<?xml version="1.0" encoding="utf-8" standalone="no"?>
<!DOCTYPE svg PUBLIC "-//W3C//DTD SVG 1.1//EN"
  "http://www.w3.org/Graphics/SVG/1.1/DTD/svg11.dtd">
<svg xmlns:xlink="http://www.w3.org/1999/xlink" width="460.8pt" height="345.6pt" viewBox="0 0 460.8 345.6" xmlns="http://www.w3.org/2000/svg" version="1.1">
 <metadata>
  <rdf:RDF xmlns:dc="http://purl.org/dc/elements/1.1/" xmlns:cc="http://creativecommons.org/ns#" xmlns:rdf="http://www.w3.org/1999/02/22-rdf-syntax-ns#">
   <cc:Work>
    <dc:type rdf:resource="http://purl.org/dc/dcmitype/StillImage"/>
    <dc:date>2024-05-06T10:15:11.129605</dc:date>
    <dc:format>image/svg+xml</dc:format>
    <dc:creator>
     <cc:Agent>
      <dc:title>Matplotlib v3.6.2, https://matplotlib.org/</dc:title>
     </cc:Agent>
    </dc:creator>
   </cc:Work>
  </rdf:RDF>
 </metadata>
 <defs>
  <style type="text/css">*{stroke-linejoin: round; stroke-linecap: butt}</style>
 </defs>
 <g id="figure_1">
  <g id="patch_1">
   <path d="M 0 345.6 
L 460.8 345.6 
L 460.8 0 
L 0 0 
L 0 345.6 
z
" style="fill: none"/>
  </g>
  <g id="axes_1">
   <g id="matplotlib.axis_1"/>
   <g id="matplotlib.axis_2"/>
   <g id="patch_2">
    <path d="M 338.890405 171.576302 
C 338.890405 154.883927 334.963928 138.423258 327.429159 123.528203 
C 319.894391 108.633148 308.960511 95.717222 295.513559 85.827082 
C 282.066606 75.936943 266.479894 69.347158 250.016509 66.591738 
C 233.553123 63.836318 216.67012 64.991759 200.73563 69.964428 
C 184.801141 74.937098 170.257537 83.588945 158.283377 95.218858 
C 146.309216 106.848771 137.236924 121.133881 131.801683 136.916579 
C 126.366442 152.699277 124.719146 169.541405 126.993284 186.078143 
C 129.267422 202.614881 135.39986 218.387137 144.89365 232.116789 
L 232.445605 171.576302 
L 338.890405 171.576302 
z
" style="fill: #172235; opacity: 0.5; stroke: #172235; stroke-linejoin: miter"/>
   </g>
   <g id="patch_3">
    <path d="M 144.098965 241.957736 
C 154.285614 256.689382 168.027543 268.614442 184.047252 276.624319 
C 200.06696 284.634196 217.852157 288.472743 235.749465 287.783115 
L 231.650921 181.417249 
L 144.098965 241.957736 
z
" style="fill: #422819; opacity: 0.5; stroke: #422819; stroke-linejoin: miter"/>
   </g>
   <g id="patch_4">
    <path d="M 239.612827 288.134163 
C 248.271122 287.800537 256.856379 286.410964 265.17785 283.996318 
C 273.49932 281.581672 281.494913 278.159969 288.986981 273.807234 
L 235.514282 181.768297 
L 239.612827 288.134163 
z
" style="fill: #19321f; opacity: 0.5; stroke: #19321f; stroke-linejoin: miter"/>
   </g>
   <g id="patch_5">
    <path d="M 290.837665 272.84452 
C 295.460594 270.158695 299.874604 267.128382 304.042207 263.77932 
C 308.209809 260.430257 312.11917 256.771954 315.737086 252.835482 
L 237.364966 180.805583 
L 290.837665 272.84452 
z
" style="fill: #3b1719; opacity: 0.5; stroke: #3b1719; stroke-linejoin: miter"/>
   </g>
   <g id="patch_6">
    <path d="M 316.643853 251.902895 
C 318.910768 249.436378 321.059982 246.864219 323.084316 244.195008 
C 325.10865 241.525798 327.005849 238.76251 328.769576 235.914373 
L 238.271733 179.872997 
L 316.643853 251.902895 
z
" style="fill: #272236; opacity: 0.5; stroke: #272236; stroke-linejoin: miter"/>
   </g>
   <g id="patch_7">
    <path d="M 329.647971 234.154925 
C 334.835023 225.778667 338.83412 216.722671 341.530602 207.246586 
C 344.227084 197.770501 345.594932 187.965766 345.594928 178.113497 
L 239.150128 178.113548 
L 329.647971 234.154925 
z
" style="fill: #2c241d; opacity: 0.5; stroke: #2c241d; stroke-linejoin: miter"/>
   </g>
   <g id="patch_8">
    <path d="M 341.019301 169.447406 
C 341.019301 152.755031 337.092824 136.294362 329.558055 121.399307 
C 322.023287 106.504252 311.089407 93.588326 297.642455 83.698186 
C 284.195502 73.808047 268.60879 67.218262 252.145405 64.462842 
C 235.682019 61.707422 218.799016 62.862863 202.864526 67.835532 
C 186.930037 72.808202 172.386433 81.460049 160.412273 93.089962 
C 148.438112 104.719875 139.36582 119.004985 133.930579 134.787683 
C 128.495338 150.570381 126.848042 167.412509 129.12218 183.949247 
C 131.396318 200.485985 137.528756 216.258241 147.022546 229.987893 
L 234.574501 169.447406 
L 341.019301 169.447406 
z
" style="fill: #4c72b0; stroke: #ffffff; stroke-linejoin: miter"/>
   </g>
   <g id="patch_9">
    <path d="M 146.227861 239.82884 
C 156.41451 254.560486 170.156439 266.485546 186.176148 274.495423 
C 202.195856 282.5053 219.981053 286.343847 237.878361 285.654219 
L 233.779817 179.288353 
L 146.227861 239.82884 
z
" style="fill: #dd8452; stroke: #ffffff; stroke-linejoin: miter"/>
   </g>
   <g id="patch_10">
    <path d="M 241.741723 286.005267 
C 250.400018 285.671641 258.985275 284.282068 267.306746 281.867422 
C 275.628216 279.452776 283.623809 276.031073 291.115877 271.678338 
L 237.643178 179.639401 
L 241.741723 286.005267 
z
" style="fill: #55a868; stroke: #ffffff; stroke-linejoin: miter"/>
   </g>
   <g id="patch_11">
    <path d="M 292.966561 270.715624 
C 297.58949 268.029799 302.0035 264.999486 306.171103 261.650424 
C 310.338705 258.301361 314.248066 254.643058 317.865982 250.706586 
L 239.493862 178.676687 
L 292.966561 270.715624 
z
" style="fill: #c44e52; stroke: #ffffff; stroke-linejoin: miter"/>
   </g>
   <g id="patch_12">
    <path d="M 318.772749 249.773999 
C 321.039664 247.307482 323.188878 244.735323 325.213212 242.066112 
C 327.237546 239.396902 329.134745 236.633614 330.898472 233.785477 
L 240.400629 177.744101 
L 318.772749 249.773999 
z
" style="fill: #8172b3; stroke: #ffffff; stroke-linejoin: miter"/>
   </g>
   <g id="patch_13">
    <path d="M 331.776867 232.026029 
C 336.963919 223.649771 340.963016 214.593775 343.659498 205.11769 
C 346.35598 195.641605 347.723828 185.83687 347.723824 175.984601 
L 241.279024 175.984652 
L 331.776867 232.026029 
z
" style="fill: #937860; stroke: #ffffff; stroke-linejoin: miter"/>
   </g>
  </g>
 </g>
</svg>
