<?xml version="1.0" encoding="utf-8" standalone="no"?>
<!DOCTYPE svg PUBLIC "-//W3C//DTD SVG 1.1//EN"
  "http://www.w3.org/Graphics/SVG/1.1/DTD/svg11.dtd">
<svg xmlns:xlink="http://www.w3.org/1999/xlink" width="1440pt" height="360pt" viewBox="0 0 1440 360" xmlns="http://www.w3.org/2000/svg" version="1.1">
 <metadata>
  <rdf:RDF xmlns:dc="http://purl.org/dc/elements/1.1/" xmlns:cc="http://creativecommons.org/ns#" xmlns:rdf="http://www.w3.org/1999/02/22-rdf-syntax-ns#">
   <cc:Work>
    <dc:type rdf:resource="http://purl.org/dc/dcmitype/StillImage"/>
    <dc:date>2024-05-06T10:15:11.215751</dc:date>
    <dc:format>image/svg+xml</dc:format>
    <dc:creator>
     <cc:Agent>
      <dc:title>Matplotlib v3.6.2, https://matplotlib.org/</dc:title>
     </cc:Agent>
    </dc:creator>
   </cc:Work>
  </rdf:RDF>
 </metadata>
 <defs>
  <style type="text/css">*{stroke-linejoin: round; stroke-linecap: butt}</style>
 </defs>
 <g id="figure_1">
  <g id="patch_1">
   <path d="M 0 360 
L 1440 360 
L 1440 0 
L 0 0 
z
" style="fill: #fff9ed"/>
  </g>
  <g id="axes_1">
   <g id="patch_2">
    <path d="M 180 320.4 
L 1296 320.4 
L 1296 43.2 
L 180 43.2 
z
" style="fill: #fff9ed"/>
   </g>
   <g id="matplotlib.axis_1">
    <g id="xtick_1">
     <g id="line2d_1">
      <path d="M 229.039177 320.4 
L 229.039177 43.2 
" clip-path="url(#p44d0324311)" style="fill: none; stroke: #ffffff; stroke-linecap: round"/>
     </g>
     <g id="text_1">
      <!-- 2023-01 -->
      <g style="fill: #262626" transform="translate(208.856755 337.773594) scale(0.11 -0.11)">
       <defs>
        <path id="ArialMT-32" d="M 3222 541 
L 3222 0 
L 194 0 
Q 188 203 259 391 
Q 375 700 629 1000 
Q 884 1300 1366 1694 
Q 2113 2306 2375 2664 
Q 2638 3022 2638 3341 
Q 2638 3675 2398 3904 
Q 2159 4134 1775 4134 
Q 1369 4134 1125 3890 
Q 881 3647 878 3216 
L 300 3275 
Q 359 3922 746 4261 
Q 1134 4600 1788 4600 
Q 2447 4600 2831 4234 
Q 3216 3869 3216 3328 
Q 3216 3053 3103 2787 
Q 2991 2522 2730 2228 
Q 2469 1934 1863 1422 
Q 1356 997 1212 845 
Q 1069 694 975 541 
L 3222 541 
z
" transform="scale(0.015625)"/>
        <path id="ArialMT-30" d="M 266 2259 
Q 266 3072 433 3567 
Q 600 4063 929 4331 
Q 1259 4600 1759 4600 
Q 2128 4600 2406 4451 
Q 2684 4303 2865 4023 
Q 3047 3744 3150 3342 
Q 3253 2941 3253 2259 
Q 3253 1453 3087 958 
Q 2922 463 2592 192 
Q 2263 -78 1759 -78 
Q 1097 -78 719 397 
Q 266 969 266 2259 
z
M 844 2259 
Q 844 1131 1108 757 
Q 1372 384 1759 384 
Q 2147 384 2411 759 
Q 2675 1134 2675 2259 
Q 2675 3391 2411 3762 
Q 2147 4134 1753 4134 
Q 1366 4134 1134 3806 
Q 844 3388 844 2259 
z
" transform="scale(0.015625)"/>
        <path id="ArialMT-33" d="M 269 1209 
L 831 1284 
Q 928 806 1161 595 
Q 1394 384 1728 384 
Q 2125 384 2398 659 
Q 2672 934 2672 1341 
Q 2672 1728 2419 1979 
Q 2166 2231 1775 2231 
Q 1616 2231 1378 2169 
L 1441 2663 
Q 1497 2656 1531 2656 
Q 1891 2656 2178 2843 
Q 2466 3031 2466 3422 
Q 2466 3731 2256 3934 
Q 2047 4138 1716 4138 
Q 1388 4138 1169 3931 
Q 950 3725 888 3313 
L 325 3413 
Q 428 3978 793 4289 
Q 1159 4600 1703 4600 
Q 2078 4600 2393 4439 
Q 2709 4278 2876 4000 
Q 3044 3722 3044 3409 
Q 3044 3113 2884 2869 
Q 2725 2625 2413 2481 
Q 2819 2388 3044 2092 
Q 3269 1797 3269 1353 
Q 3269 753 2831 336 
Q 2394 -81 1725 -81 
Q 1122 -81 723 278 
Q 325 638 269 1209 
z
" transform="scale(0.015625)"/>
        <path id="ArialMT-2d" d="M 203 1375 
L 203 1941 
L 1931 1941 
L 1931 1375 
L 203 1375 
z
" transform="scale(0.015625)"/>
        <path id="ArialMT-31" d="M 2384 0 
L 1822 0 
L 1822 3584 
Q 1619 3391 1289 3197 
Q 959 3003 697 2906 
L 697 3450 
Q 1169 3672 1522 3987 
Q 1875 4303 2022 4600 
L 2384 4600 
L 2384 0 
z
" transform="scale(0.015625)"/>
       </defs>
       <use xlink:href="#ArialMT-32"/>
       <use xlink:href="#ArialMT-30" x="55.615234"/>
       <use xlink:href="#ArialMT-32" x="111.230469"/>
       <use xlink:href="#ArialMT-33" x="166.845703"/>
       <use xlink:href="#ArialMT-2d" x="222.460938"/>
       <use xlink:href="#ArialMT-30" x="255.761719"/>
       <use xlink:href="#ArialMT-31" x="311.376953"/>
      </g>
     </g>
    </g>
    <g id="xtick_2">
     <g id="line2d_2">
      <path d="M 328.636817 320.4 
L 328.636817 43.2 
" clip-path="url(#p44d0324311)" style="fill: none; stroke: #ffffff; stroke-linecap: round"/>
     </g>
     <g id="text_2">
      <!-- 2023-03 -->
      <g style="fill: #262626" transform="translate(308.454396 337.773594) scale(0.11 -0.11)">
       <use xlink:href="#ArialMT-32"/>
       <use xlink:href="#ArialMT-30" x="55.615234"/>
       <use xlink:href="#ArialMT-32" x="111.230469"/>
       <use xlink:href="#ArialMT-33" x="166.845703"/>
       <use xlink:href="#ArialMT-2d" x="222.460938"/>
       <use xlink:href="#ArialMT-30" x="255.761719"/>
       <use xlink:href="#ArialMT-33" x="311.376953"/>
      </g>
     </g>
    </g>
    <g id="xtick_3">
     <g id="line2d_3">
      <path d="M 431.610649 320.4 
L 431.610649 43.2 
" clip-path="url(#p44d0324311)" style="fill: none; stroke: #ffffff; stroke-linecap: round"/>
     </g>
     <g id="text_3">
      <!-- 2023-05 -->
      <g style="fill: #262626" transform="translate(411.428227 337.773594) scale(0.11 -0.11)">
       <defs>
        <path id="ArialMT-35" d="M 266 1200 
L 856 1250 
Q 922 819 1161 601 
Q 1400 384 1738 384 
Q 2144 384 2425 690 
Q 2706 997 2706 1503 
Q 2706 1984 2436 2262 
Q 2166 2541 1728 2541 
Q 1456 2541 1237 2417 
Q 1019 2294 894 2097 
L 366 2166 
L 809 4519 
L 3088 4519 
L 3088 3981 
L 1259 3981 
L 1013 2750 
Q 1425 3038 1878 3038 
Q 2478 3038 2890 2622 
Q 3303 2206 3303 1553 
Q 3303 931 2941 478 
Q 2500 -78 1738 -78 
Q 1113 -78 717 272 
Q 322 622 266 1200 
z
" transform="scale(0.015625)"/>
       </defs>
       <use xlink:href="#ArialMT-32"/>
       <use xlink:href="#ArialMT-30" x="55.615234"/>
       <use xlink:href="#ArialMT-32" x="111.230469"/>
       <use xlink:href="#ArialMT-33" x="166.845703"/>
       <use xlink:href="#ArialMT-2d" x="222.460938"/>
       <use xlink:href="#ArialMT-30" x="255.761719"/>
       <use xlink:href="#ArialMT-35" x="311.376953"/>
      </g>
     </g>
    </g>
    <g id="xtick_4">
     <g id="line2d_4">
      <path d="M 534.58448 320.4 
L 534.58448 43.2 
" clip-path="url(#p44d0324311)" style="fill: none; stroke: #ffffff; stroke-linecap: round"/>
     </g>
     <g id="text_4">
      <!-- 2023-07 -->
      <g style="fill: #262626" transform="translate(514.402059 337.773594) scale(0.11 -0.11)">
       <defs>
        <path id="ArialMT-37" d="M 303 3981 
L 303 4522 
L 3269 4522 
L 3269 4084 
Q 2831 3619 2401 2847 
Q 1972 2075 1738 1259 
Q 1569 684 1522 0 
L 944 0 
Q 953 541 1156 1306 
Q 1359 2072 1739 2783 
Q 2119 3494 2547 3981 
L 303 3981 
z
" transform="scale(0.015625)"/>
       </defs>
       <use xlink:href="#ArialMT-32"/>
       <use xlink:href="#ArialMT-30" x="55.615234"/>
       <use xlink:href="#ArialMT-32" x="111.230469"/>
       <use xlink:href="#ArialMT-33" x="166.845703"/>
       <use xlink:href="#ArialMT-2d" x="222.460938"/>
       <use xlink:href="#ArialMT-30" x="255.761719"/>
       <use xlink:href="#ArialMT-37" x="311.376953"/>
      </g>
     </g>
    </g>
    <g id="xtick_5">
     <g id="line2d_5">
      <path d="M 639.246408 320.4 
L 639.246408 43.2 
" clip-path="url(#p44d0324311)" style="fill: none; stroke: #ffffff; stroke-linecap: round"/>
     </g>
     <g id="text_5">
      <!-- 2023-09 -->
      <g style="fill: #262626" transform="translate(619.063986 337.773594) scale(0.11 -0.11)">
       <defs>
        <path id="ArialMT-39" d="M 350 1059 
L 891 1109 
Q 959 728 1153 556 
Q 1347 384 1650 384 
Q 1909 384 2104 503 
Q 2300 622 2425 820 
Q 2550 1019 2634 1356 
Q 2719 1694 2719 2044 
Q 2719 2081 2716 2156 
Q 2547 1888 2255 1720 
Q 1963 1553 1622 1553 
Q 1053 1553 659 1965 
Q 266 2378 266 3053 
Q 266 3750 677 4175 
Q 1088 4600 1706 4600 
Q 2153 4600 2523 4359 
Q 2894 4119 3086 3673 
Q 3278 3228 3278 2384 
Q 3278 1506 3087 986 
Q 2897 466 2520 194 
Q 2144 -78 1638 -78 
Q 1100 -78 759 220 
Q 419 519 350 1059 
z
M 2653 3081 
Q 2653 3566 2395 3850 
Q 2138 4134 1775 4134 
Q 1400 4134 1122 3828 
Q 844 3522 844 3034 
Q 844 2597 1108 2323 
Q 1372 2050 1759 2050 
Q 2150 2050 2401 2323 
Q 2653 2597 2653 3081 
z
" transform="scale(0.015625)"/>
       </defs>
       <use xlink:href="#ArialMT-32"/>
       <use xlink:href="#ArialMT-30" x="55.615234"/>
       <use xlink:href="#ArialMT-32" x="111.230469"/>
       <use xlink:href="#ArialMT-33" x="166.845703"/>
       <use xlink:href="#ArialMT-2d" x="222.460938"/>
       <use xlink:href="#ArialMT-30" x="255.761719"/>
       <use xlink:href="#ArialMT-39" x="311.376953"/>
      </g>
     </g>
    </g>
    <g id="xtick_6">
     <g id="line2d_6">
      <path d="M 742.220239 320.4 
L 742.220239 43.2 
" clip-path="url(#p44d0324311)" style="fill: none; stroke: #ffffff; stroke-linecap: round"/>
     </g>
     <g id="text_6">
      <!-- 2023-11 -->
      <g style="fill: #262626" transform="translate(722.443442 337.773594) scale(0.11 -0.11)">
       <use xlink:href="#ArialMT-32"/>
       <use xlink:href="#ArialMT-30" x="55.615234"/>
       <use xlink:href="#ArialMT-32" x="111.230469"/>
       <use xlink:href="#ArialMT-33" x="166.845703"/>
       <use xlink:href="#ArialMT-2d" x="222.460938"/>
       <use xlink:href="#ArialMT-31" x="255.761719"/>
       <use xlink:href="#ArialMT-31" x="304.001953"/>
      </g>
     </g>
    </g>
    <g id="xtick_7">
     <g id="line2d_7">
      <path d="M 845.19407 320.4 
L 845.19407 43.2 
" clip-path="url(#p44d0324311)" style="fill: none; stroke: #ffffff; stroke-linecap: round"/>
     </g>
     <g id="text_7">
      <!-- 2024-01 -->
      <g style="fill: #262626" transform="translate(825.011649 337.773594) scale(0.11 -0.11)">
       <defs>
        <path id="ArialMT-34" d="M 2069 0 
L 2069 1097 
L 81 1097 
L 81 1613 
L 2172 4581 
L 2631 4581 
L 2631 1613 
L 3250 1613 
L 3250 1097 
L 2631 1097 
L 2631 0 
L 2069 0 
z
M 2069 1613 
L 2069 3678 
L 634 1613 
L 2069 1613 
z
" transform="scale(0.015625)"/>
       </defs>
       <use xlink:href="#ArialMT-32"/>
       <use xlink:href="#ArialMT-30" x="55.615234"/>
       <use xlink:href="#ArialMT-32" x="111.230469"/>
       <use xlink:href="#ArialMT-34" x="166.845703"/>
       <use xlink:href="#ArialMT-2d" x="222.460938"/>
       <use xlink:href="#ArialMT-30" x="255.761719"/>
       <use xlink:href="#ArialMT-31" x="311.376953"/>
      </g>
     </g>
    </g>
    <g id="xtick_8">
     <g id="line2d_8">
      <path d="M 946.479806 320.4 
L 946.479806 43.2 
" clip-path="url(#p44d0324311)" style="fill: none; stroke: #ffffff; stroke-linecap: round"/>
     </g>
     <g id="text_8">
      <!-- 2024-03 -->
      <g style="fill: #262626" transform="translate(926.297385 337.773594) scale(0.11 -0.11)">
       <use xlink:href="#ArialMT-32"/>
       <use xlink:href="#ArialMT-30" x="55.615234"/>
       <use xlink:href="#ArialMT-32" x="111.230469"/>
       <use xlink:href="#ArialMT-34" x="166.845703"/>
       <use xlink:href="#ArialMT-2d" x="222.460938"/>
       <use xlink:href="#ArialMT-30" x="255.761719"/>
       <use xlink:href="#ArialMT-33" x="311.376953"/>
      </g>
     </g>
    </g>
    <g id="xtick_9">
     <g id="line2d_9">
      <path d="M 1049.453638 320.4 
L 1049.453638 43.2 
" clip-path="url(#p44d0324311)" style="fill: none; stroke: #ffffff; stroke-linecap: round"/>
     </g>
     <g id="text_9">
      <!-- 2024-05 -->
      <g style="fill: #262626" transform="translate(1029.271216 337.773594) scale(0.11 -0.11)">
       <use xlink:href="#ArialMT-32"/>
       <use xlink:href="#ArialMT-30" x="55.615234"/>
       <use xlink:href="#ArialMT-32" x="111.230469"/>
       <use xlink:href="#ArialMT-34" x="166.845703"/>
       <use xlink:href="#ArialMT-2d" x="222.460938"/>
       <use xlink:href="#ArialMT-30" x="255.761719"/>
       <use xlink:href="#ArialMT-35" x="311.376953"/>
      </g>
     </g>
    </g>
    <g id="xtick_10">
     <g id="line2d_10">
      <path d="M 1152.427469 320.4 
L 1152.427469 43.2 
" clip-path="url(#p44d0324311)" style="fill: none; stroke: #ffffff; stroke-linecap: round"/>
     </g>
     <g id="text_10">
      <!-- 2024-07 -->
      <g style="fill: #262626" transform="translate(1132.245047 337.773594) scale(0.11 -0.11)">
       <use xlink:href="#ArialMT-32"/>
       <use xlink:href="#ArialMT-30" x="55.615234"/>
       <use xlink:href="#ArialMT-32" x="111.230469"/>
       <use xlink:href="#ArialMT-34" x="166.845703"/>
       <use xlink:href="#ArialMT-2d" x="222.460938"/>
       <use xlink:href="#ArialMT-30" x="255.761719"/>
       <use xlink:href="#ArialMT-37" x="311.376953"/>
      </g>
     </g>
    </g>
    <g id="xtick_11">
     <g id="line2d_11">
      <path d="M 1257.089396 320.4 
L 1257.089396 43.2 
" clip-path="url(#p44d0324311)" style="fill: none; stroke: #ffffff; stroke-linecap: round"/>
     </g>
     <g id="text_11">
      <!-- 2024-09 -->
      <g style="fill: #262626" transform="translate(1236.906975 337.773594) scale(0.11 -0.11)">
       <use xlink:href="#ArialMT-32"/>
       <use xlink:href="#ArialMT-30" x="55.615234"/>
       <use xlink:href="#ArialMT-32" x="111.230469"/>
       <use xlink:href="#ArialMT-34" x="166.845703"/>
       <use xlink:href="#ArialMT-2d" x="222.460938"/>
       <use xlink:href="#ArialMT-30" x="255.761719"/>
       <use xlink:href="#ArialMT-39" x="311.376953"/>
      </g>
     </g>
    </g>
   </g>
   <g id="matplotlib.axis_2">
    <g id="ytick_1">
     <g id="line2d_12">
      <path d="M 180 320.4 
L 1296 320.4 
" clip-path="url(#p44d0324311)" style="fill: none; stroke: #ffffff; stroke-linecap: round"/>
     </g>
     <g id="text_12">
      <!-- 0 -->
      <g style="fill: #262626" transform="translate(164.382969 324.336797) scale(0.11 -0.11)">
       <use xlink:href="#ArialMT-30"/>
      </g>
     </g>
    </g>
    <g id="ytick_2">
     <g id="line2d_13">
      <path d="M 180 272.251595 
L 1296 272.251595 
" clip-path="url(#p44d0324311)" style="fill: none; stroke: #ffffff; stroke-linecap: round"/>
     </g>
     <g id="text_13">
      <!-- 50.000.000 -->
      <g style="fill: #262626" transform="translate(115.451875 276.188391) scale(0.11 -0.11)">
       <defs>
        <path id="ArialMT-2e" d="M 581 0 
L 581 641 
L 1222 641 
L 1222 0 
L 581 0 
z
" transform="scale(0.015625)"/>
       </defs>
       <use xlink:href="#ArialMT-35"/>
       <use xlink:href="#ArialMT-30" x="55.615234"/>
       <use xlink:href="#ArialMT-2e" x="111.230469"/>
       <use xlink:href="#ArialMT-30" x="139.013672"/>
       <use xlink:href="#ArialMT-30" x="194.628906"/>
       <use xlink:href="#ArialMT-30" x="250.244141"/>
       <use xlink:href="#ArialMT-2e" x="305.859375"/>
       <use xlink:href="#ArialMT-30" x="333.642578"/>
       <use xlink:href="#ArialMT-30" x="389.257812"/>
       <use xlink:href="#ArialMT-30" x="444.873047"/>
      </g>
     </g>
    </g>
    <g id="ytick_3">
     <g id="line2d_14">
      <path d="M 180 224.103189 
L 1296 224.103189 
" clip-path="url(#p44d0324311)" style="fill: none; stroke: #ffffff; stroke-linecap: round"/>
     </g>
     <g id="text_14">
      <!-- 100.000.000 -->
      <g style="fill: #262626" transform="translate(109.334844 228.039986) scale(0.11 -0.11)">
       <use xlink:href="#ArialMT-31"/>
       <use xlink:href="#ArialMT-30" x="55.615234"/>
       <use xlink:href="#ArialMT-30" x="111.230469"/>
       <use xlink:href="#ArialMT-2e" x="166.845703"/>
       <use xlink:href="#ArialMT-30" x="194.628906"/>
       <use xlink:href="#ArialMT-30" x="250.244141"/>
       <use xlink:href="#ArialMT-30" x="305.859375"/>
       <use xlink:href="#ArialMT-2e" x="361.474609"/>
       <use xlink:href="#ArialMT-30" x="389.257812"/>
       <use xlink:href="#ArialMT-30" x="444.873047"/>
       <use xlink:href="#ArialMT-30" x="500.488281"/>
      </g>
     </g>
    </g>
    <g id="ytick_4">
     <g id="line2d_15">
      <path d="M 180 175.954784 
L 1296 175.954784 
" clip-path="url(#p44d0324311)" style="fill: none; stroke: #ffffff; stroke-linecap: round"/>
     </g>
     <g id="text_15">
      <!-- 150.000.000 -->
      <g style="fill: #262626" transform="translate(109.334844 179.89158) scale(0.11 -0.11)">
       <use xlink:href="#ArialMT-31"/>
       <use xlink:href="#ArialMT-35" x="55.615234"/>
       <use xlink:href="#ArialMT-30" x="111.230469"/>
       <use xlink:href="#ArialMT-2e" x="166.845703"/>
       <use xlink:href="#ArialMT-30" x="194.628906"/>
       <use xlink:href="#ArialMT-30" x="250.244141"/>
       <use xlink:href="#ArialMT-30" x="305.859375"/>
       <use xlink:href="#ArialMT-2e" x="361.474609"/>
       <use xlink:href="#ArialMT-30" x="389.257812"/>
       <use xlink:href="#ArialMT-30" x="444.873047"/>
       <use xlink:href="#ArialMT-30" x="500.488281"/>
      </g>
     </g>
    </g>
    <g id="ytick_5">
     <g id="line2d_16">
      <path d="M 180 127.806378 
L 1296 127.806378 
" clip-path="url(#p44d0324311)" style="fill: none; stroke: #ffffff; stroke-linecap: round"/>
     </g>
     <g id="text_16">
      <!-- 200.000.000 -->
      <g style="fill: #262626" transform="translate(109.334844 131.743175) scale(0.11 -0.11)">
       <use xlink:href="#ArialMT-32"/>
       <use xlink:href="#ArialMT-30" x="55.615234"/>
       <use xlink:href="#ArialMT-30" x="111.230469"/>
       <use xlink:href="#ArialMT-2e" x="166.845703"/>
       <use xlink:href="#ArialMT-30" x="194.628906"/>
       <use xlink:href="#ArialMT-30" x="250.244141"/>
       <use xlink:href="#ArialMT-30" x="305.859375"/>
       <use xlink:href="#ArialMT-2e" x="361.474609"/>
       <use xlink:href="#ArialMT-30" x="389.257812"/>
       <use xlink:href="#ArialMT-30" x="444.873047"/>
       <use xlink:href="#ArialMT-30" x="500.488281"/>
      </g>
     </g>
    </g>
    <g id="ytick_6">
     <g id="line2d_17">
      <path d="M 180 79.657973 
L 1296 79.657973 
" clip-path="url(#p44d0324311)" style="fill: none; stroke: #ffffff; stroke-linecap: round"/>
     </g>
     <g id="text_17">
      <!-- 250.000.000 -->
      <g style="fill: #262626" transform="translate(109.334844 83.59477) scale(0.11 -0.11)">
       <use xlink:href="#ArialMT-32"/>
       <use xlink:href="#ArialMT-35" x="55.615234"/>
       <use xlink:href="#ArialMT-30" x="111.230469"/>
       <use xlink:href="#ArialMT-2e" x="166.845703"/>
       <use xlink:href="#ArialMT-30" x="194.628906"/>
       <use xlink:href="#ArialMT-30" x="250.244141"/>
       <use xlink:href="#ArialMT-30" x="305.859375"/>
       <use xlink:href="#ArialMT-2e" x="361.474609"/>
       <use xlink:href="#ArialMT-30" x="389.257812"/>
       <use xlink:href="#ArialMT-30" x="444.873047"/>
       <use xlink:href="#ArialMT-30" x="500.488281"/>
      </g>
     </g>
    </g>
    <g id="text_18">
     <!-- Biaya Dalam Rupiah -->
     <g style="fill: #262626" transform="translate(91.809219 236.491875) rotate(-90) scale(0.12 -0.12)">
      <defs>
       <path id="ArialMT-42" d="M 469 0 
L 469 4581 
L 2188 4581 
Q 2713 4581 3030 4442 
Q 3347 4303 3526 4014 
Q 3706 3725 3706 3409 
Q 3706 3116 3547 2856 
Q 3388 2597 3066 2438 
Q 3481 2316 3704 2022 
Q 3928 1728 3928 1328 
Q 3928 1006 3792 729 
Q 3656 453 3456 303 
Q 3256 153 2954 76 
Q 2653 0 2216 0 
L 469 0 
z
M 1075 2656 
L 2066 2656 
Q 2469 2656 2644 2709 
Q 2875 2778 2992 2937 
Q 3109 3097 3109 3338 
Q 3109 3566 3000 3739 
Q 2891 3913 2687 3977 
Q 2484 4041 1991 4041 
L 1075 4041 
L 1075 2656 
z
M 1075 541 
L 2216 541 
Q 2509 541 2628 563 
Q 2838 600 2978 687 
Q 3119 775 3209 942 
Q 3300 1109 3300 1328 
Q 3300 1584 3169 1773 
Q 3038 1963 2805 2039 
Q 2572 2116 2134 2116 
L 1075 2116 
L 1075 541 
z
" transform="scale(0.015625)"/>
       <path id="ArialMT-69" d="M 425 3934 
L 425 4581 
L 988 4581 
L 988 3934 
L 425 3934 
z
M 425 0 
L 425 3319 
L 988 3319 
L 988 0 
L 425 0 
z
" transform="scale(0.015625)"/>
       <path id="ArialMT-61" d="M 2588 409 
Q 2275 144 1986 34 
Q 1697 -75 1366 -75 
Q 819 -75 525 192 
Q 231 459 231 875 
Q 231 1119 342 1320 
Q 453 1522 633 1644 
Q 813 1766 1038 1828 
Q 1203 1872 1538 1913 
Q 2219 1994 2541 2106 
Q 2544 2222 2544 2253 
Q 2544 2597 2384 2738 
Q 2169 2928 1744 2928 
Q 1347 2928 1158 2789 
Q 969 2650 878 2297 
L 328 2372 
Q 403 2725 575 2942 
Q 747 3159 1072 3276 
Q 1397 3394 1825 3394 
Q 2250 3394 2515 3294 
Q 2781 3194 2906 3042 
Q 3031 2891 3081 2659 
Q 3109 2516 3109 2141 
L 3109 1391 
Q 3109 606 3145 398 
Q 3181 191 3288 0 
L 2700 0 
Q 2613 175 2588 409 
z
M 2541 1666 
Q 2234 1541 1622 1453 
Q 1275 1403 1131 1340 
Q 988 1278 909 1158 
Q 831 1038 831 891 
Q 831 666 1001 516 
Q 1172 366 1500 366 
Q 1825 366 2078 508 
Q 2331 650 2450 897 
Q 2541 1088 2541 1459 
L 2541 1666 
z
" transform="scale(0.015625)"/>
       <path id="ArialMT-79" d="M 397 -1278 
L 334 -750 
Q 519 -800 656 -800 
Q 844 -800 956 -737 
Q 1069 -675 1141 -563 
Q 1194 -478 1313 -144 
Q 1328 -97 1363 -6 
L 103 3319 
L 709 3319 
L 1400 1397 
Q 1534 1031 1641 628 
Q 1738 1016 1872 1384 
L 2581 3319 
L 3144 3319 
L 1881 -56 
Q 1678 -603 1566 -809 
Q 1416 -1088 1222 -1217 
Q 1028 -1347 759 -1347 
Q 597 -1347 397 -1278 
z
" transform="scale(0.015625)"/>
       <path id="ArialMT-20" transform="scale(0.015625)"/>
       <path id="ArialMT-44" d="M 494 0 
L 494 4581 
L 2072 4581 
Q 2606 4581 2888 4516 
Q 3281 4425 3559 4188 
Q 3922 3881 4101 3404 
Q 4281 2928 4281 2316 
Q 4281 1794 4159 1391 
Q 4038 988 3847 723 
Q 3656 459 3429 307 
Q 3203 156 2883 78 
Q 2563 0 2147 0 
L 494 0 
z
M 1100 541 
L 2078 541 
Q 2531 541 2789 625 
Q 3047 709 3200 863 
Q 3416 1078 3536 1442 
Q 3656 1806 3656 2325 
Q 3656 3044 3420 3430 
Q 3184 3816 2847 3947 
Q 2603 4041 2063 4041 
L 1100 4041 
L 1100 541 
z
" transform="scale(0.015625)"/>
       <path id="ArialMT-6c" d="M 409 0 
L 409 4581 
L 972 4581 
L 972 0 
L 409 0 
z
" transform="scale(0.015625)"/>
       <path id="ArialMT-6d" d="M 422 0 
L 422 3319 
L 925 3319 
L 925 2853 
Q 1081 3097 1340 3245 
Q 1600 3394 1931 3394 
Q 2300 3394 2536 3241 
Q 2772 3088 2869 2813 
Q 3263 3394 3894 3394 
Q 4388 3394 4653 3120 
Q 4919 2847 4919 2278 
L 4919 0 
L 4359 0 
L 4359 2091 
Q 4359 2428 4304 2576 
Q 4250 2725 4106 2815 
Q 3963 2906 3769 2906 
Q 3419 2906 3187 2673 
Q 2956 2441 2956 1928 
L 2956 0 
L 2394 0 
L 2394 2156 
Q 2394 2531 2256 2718 
Q 2119 2906 1806 2906 
Q 1569 2906 1367 2781 
Q 1166 2656 1075 2415 
Q 984 2175 984 1722 
L 984 0 
L 422 0 
z
" transform="scale(0.015625)"/>
       <path id="ArialMT-52" d="M 503 0 
L 503 4581 
L 2534 4581 
Q 3147 4581 3465 4457 
Q 3784 4334 3975 4021 
Q 4166 3709 4166 3331 
Q 4166 2844 3850 2509 
Q 3534 2175 2875 2084 
Q 3116 1969 3241 1856 
Q 3506 1613 3744 1247 
L 4541 0 
L 3778 0 
L 3172 953 
Q 2906 1366 2734 1584 
Q 2563 1803 2427 1890 
Q 2291 1978 2150 2013 
Q 2047 2034 1813 2034 
L 1109 2034 
L 1109 0 
L 503 0 
z
M 1109 2559 
L 2413 2559 
Q 2828 2559 3062 2645 
Q 3297 2731 3419 2920 
Q 3541 3109 3541 3331 
Q 3541 3656 3305 3865 
Q 3069 4075 2559 4075 
L 1109 4075 
L 1109 2559 
z
" transform="scale(0.015625)"/>
       <path id="ArialMT-75" d="M 2597 0 
L 2597 488 
Q 2209 -75 1544 -75 
Q 1250 -75 995 37 
Q 741 150 617 320 
Q 494 491 444 738 
Q 409 903 409 1263 
L 409 3319 
L 972 3319 
L 972 1478 
Q 972 1038 1006 884 
Q 1059 663 1231 536 
Q 1403 409 1656 409 
Q 1909 409 2131 539 
Q 2353 669 2445 892 
Q 2538 1116 2538 1541 
L 2538 3319 
L 3100 3319 
L 3100 0 
L 2597 0 
z
" transform="scale(0.015625)"/>
       <path id="ArialMT-70" d="M 422 -1272 
L 422 3319 
L 934 3319 
L 934 2888 
Q 1116 3141 1344 3267 
Q 1572 3394 1897 3394 
Q 2322 3394 2647 3175 
Q 2972 2956 3137 2557 
Q 3303 2159 3303 1684 
Q 3303 1175 3120 767 
Q 2938 359 2589 142 
Q 2241 -75 1856 -75 
Q 1575 -75 1351 44 
Q 1128 163 984 344 
L 984 -1272 
L 422 -1272 
z
M 931 1641 
Q 931 1000 1190 694 
Q 1450 388 1819 388 
Q 2194 388 2461 705 
Q 2728 1022 2728 1688 
Q 2728 2322 2467 2637 
Q 2206 2953 1844 2953 
Q 1484 2953 1207 2617 
Q 931 2281 931 1641 
z
" transform="scale(0.015625)"/>
       <path id="ArialMT-68" d="M 422 0 
L 422 4581 
L 984 4581 
L 984 2938 
Q 1378 3394 1978 3394 
Q 2347 3394 2619 3248 
Q 2891 3103 3008 2847 
Q 3125 2591 3125 2103 
L 3125 0 
L 2563 0 
L 2563 2103 
Q 2563 2525 2380 2717 
Q 2197 2909 1863 2909 
Q 1613 2909 1392 2779 
Q 1172 2650 1078 2428 
Q 984 2206 984 1816 
L 984 0 
L 422 0 
z
" transform="scale(0.015625)"/>
      </defs>
      <use xlink:href="#ArialMT-42"/>
      <use xlink:href="#ArialMT-69" x="66.699219"/>
      <use xlink:href="#ArialMT-61" x="88.916016"/>
      <use xlink:href="#ArialMT-79" x="144.53125"/>
      <use xlink:href="#ArialMT-61" x="194.53125"/>
      <use xlink:href="#ArialMT-20" x="250.146484"/>
      <use xlink:href="#ArialMT-44" x="277.929688"/>
      <use xlink:href="#ArialMT-61" x="350.146484"/>
      <use xlink:href="#ArialMT-6c" x="405.761719"/>
      <use xlink:href="#ArialMT-61" x="427.978516"/>
      <use xlink:href="#ArialMT-6d" x="483.59375"/>
      <use xlink:href="#ArialMT-20" x="566.894531"/>
      <use xlink:href="#ArialMT-52" x="594.677734"/>
      <use xlink:href="#ArialMT-75" x="666.894531"/>
      <use xlink:href="#ArialMT-70" x="722.509766"/>
      <use xlink:href="#ArialMT-69" x="778.125"/>
      <use xlink:href="#ArialMT-61" x="800.341797"/>
      <use xlink:href="#ArialMT-68" x="855.957031"/>
     </g>
    </g>
   </g>
   <g id="PolyCollection_1"/>
   <g id="PolyCollection_2"/>
   <g id="line2d_18">
    <path d="M 230.727273 260.091545 
L 232.415368 207.636434 
L 234.103464 275.294574 
L 235.79156 243.754134 
L 237.479655 245.955078 
L 239.167751 297.304485 
L 240.855846 274.586414 
L 242.543942 286.345908 
L 244.232038 286.375103 
L 245.920133 258.396567 
L 247.608229 272.062898 
L 249.296324 258.155016 
L 250.98442 252.011064 
L 252.672516 252.359842 
L 254.360611 263.793195 
L 256.048707 190.166737 
L 257.736802 253.207573 
L 259.424898 252.199059 
L 261.112993 229.421323 
L 262.801089 201.998256 
L 264.489185 252.287001 
L 266.17728 254.683516 
L 267.865376 207.411412 
L 269.553471 218.635289 
L 271.241567 250.835184 
L 272.929663 215.856642 
L 274.617758 224.301872 
L 276.305854 241.843612 
L 277.993949 181.526517 
L 279.682045 241.240482 
L 281.370141 273.016191 
L 283.058236 252.516838 
L 284.746332 249.571044 
L 286.434427 246.232787 
L 288.122523 218.699612 
L 289.810619 142.613842 
L 291.498714 280.909608 
L 293.18681 235.393246 
L 294.874905 251.111426 
L 296.563001 297.622264 
L 298.251097 274.889788 
L 299.939192 173.348471 
L 301.627288 229.053705 
L 303.315383 218.471152 
L 305.003479 263.896224 
L 306.691575 152.950367 
L 308.37967 229.758701 
L 310.067766 218.86063 
L 311.755861 263.724476 
L 313.443957 259.827883 
L 315.132053 296.430416 
L 316.820148 225.288125 
L 318.508244 119.752731 
L 320.196339 263.382658 
L 321.884435 196.16425 
L 323.572531 284.546832 
L 325.260626 294.907 
L 326.948722 264.018217 
L 328.636817 259.799494 
L 330.324913 297.847287 
L 332.013009 277.769402 
L 333.701104 269.460568 
L 335.3892 297.651459 
L 337.077295 142.089745 
L 338.765391 275.790163 
L 340.453487 79.372865 
L 342.141582 202.072335 
L 343.829678 244.507876 
L 345.517773 201.186354 
L 347.205869 150.118349 
L 348.893965 237.191852 
L 350.58206 237.472969 
L 352.270156 264.016291 
L 353.958251 168.965561 
L 355.646347 246.251768 
L 357.334443 237.402196 
L 359.022538 251.690929 
L 360.710634 205.884882 
L 362.398729 320.253326 
L 364.086825 297.496976 
L 365.774921 317.534286 
L 367.463016 274.455147 
L 369.151112 242.89903 
L 370.839207 240.239417 
L 372.527303 245.558643 
L 374.215399 228.787906 
L 375.903494 217.336394 
L 377.59159 187.774569 
L 379.279685 223.322411 
L 380.967781 274.256419 
L 382.655877 219.18844 
L 384.343972 196.348512 
L 386.032068 211.605729 
L 387.720163 218.462746 
L 389.408259 275.076059 
L 391.096355 297.509753 
L 392.78445 209.670847 
L 394.472546 249.434907 
L 396.160641 226.73152 
L 397.848737 245.772367 
L 399.536833 254.955751 
L 401.224928 207.636434 
L 402.913024 286.138637 
L 404.601119 243.662044 
L 406.289215 261.248358 
L 407.977311 284.411593 
L 409.665406 297.236765 
L 411.353502 291.431109 
L 413.041597 320.181485 
L 418.105884 317.589175 
L 419.79398 296.931741 
L 421.482075 286.57093 
L 423.170171 308.905129 
L 424.858267 320.181485 
L 426.546362 276.238282 
L 428.234458 302.462872 
L 429.922553 284.744259 
L 431.610649 240.227216 
L 433.298745 302.681387 
L 434.98684 320.4 
L 436.674936 320.4 
L 438.363031 213.418095 
L 440.051127 228.17493 
L 441.739223 252.221893 
L 443.427318 243.613235 
L 445.115414 213.193072 
L 446.803509 126.312164 
L 448.491605 272.852487 
L 450.1797 171.835518 
L 451.867796 209.88971 
L 453.555892 204.401174 
L 455.243987 284.064297 
L 456.932083 201.306194 
L 458.620178 195.362755 
L 460.308274 212.481413 
L 461.99637 275.947466 
L 463.684465 213.090516 
L 465.372561 272.558061 
L 467.060656 218.645228 
L 468.748752 299.721223 
L 470.436848 272.852487 
L 472.124943 249.07873 
L 473.813039 269.90734 
L 475.501134 260.290541 
L 477.18923 251.948687 
L 478.877326 255.335004 
L 480.565421 275.069551 
L 482.253517 315.779028 
L 483.941612 320.186221 
L 485.629708 297.622264 
L 487.317804 286.484004 
L 489.005899 224.245708 
L 490.693995 229.970633 
L 492.38209 262.430032 
L 494.070186 252.304831 
L 495.758282 229.486287 
L 497.446377 284.296747 
L 499.134473 230.189148 
L 500.822568 252.741861 
L 502.510664 234.745108 
L 504.19876 230.189148 
L 505.886855 108.415168 
L 507.574951 187.349664 
L 509.263046 167.085042 
L 510.951142 238.184751 
L 512.639238 229.849177 
L 514.327333 206.881625 
L 516.015429 243.175893 
L 517.703524 200.592844 
L 519.39162 261.709867 
L 521.079716 264.329335 
L 522.767811 250.751485 
L 524.455907 240.746159 
L 526.144002 241.953078 
L 527.832098 260.888571 
L 529.520194 112.144977 
L 532.896385 287.928715 
L 534.58448 217.543077 
L 536.272576 230.189148 
L 537.960672 252.741861 
L 539.648767 255.156915 
L 541.336863 286.387966 
L 543.024958 264.018217 
L 544.713054 272.483749 
L 546.40115 98.043465 
L 548.089245 205.57603 
L 549.777341 241.465504 
L 551.465436 213.826666 
L 553.153532 241.269676 
L 554.841628 217.240506 
L 556.529723 286.279848 
L 558.217819 295.36221 
L 559.905914 280.529886 
L 561.59401 234.958331 
L 563.282106 238.14003 
L 564.970201 275.294574 
L 566.658297 247.631661 
L 568.346392 299.009244 
L 570.034488 250.526291 
L 571.722584 240.659772 
L 573.410679 249.263892 
L 575.098775 256.815216 
L 576.78687 269.437881 
L 578.474966 309.123643 
L 580.163062 275.098746 
L 581.851157 266.502675 
L 583.539253 252.741861 
L 585.227348 275.294574 
L 586.915444 243.949962 
L 588.60354 297.847287 
L 590.291635 275.294574 
L 591.979731 266.502675 
L 593.667826 288.583881 
L 595.355922 287.226096 
L 597.044018 290.644285 
L 598.732113 250.969999 
L 600.420209 231.132856 
L 602.108304 221.214285 
L 603.7964 241.051428 
L 605.484496 190.416157 
L 607.172591 230.189148 
L 608.860687 196.360078 
L 610.548782 200.642423 
L 612.236878 266.502675 
L 613.924974 241.060971 
L 615.613069 198.921573 
L 617.301165 232.673605 
L 618.98926 286.57093 
L 620.677356 153.816147 
L 622.365452 297.847287 
L 624.053547 280.311638 
L 625.741643 275.294574 
L 627.429738 269.672924 
L 629.117834 227.560505 
L 630.80593 297.419729 
L 632.494025 164.485462 
L 634.182121 252.546033 
L 635.870216 274.902918 
L 637.558312 287.569528 
L 639.246408 320.204172 
L 640.934503 304.81987 
L 642.622599 308.257555 
L 644.310694 297.137852 
L 645.99879 320.4 
L 647.686885 320.008344 
L 649.374981 308.610036 
L 651.063077 263.089755 
L 652.751172 268.526074 
L 654.439268 308.202509 
L 656.127363 279.172101 
L 657.815459 260.590433 
L 659.503555 290.609584 
L 661.19165 57.728884 
L 662.879746 246.418128 
L 664.567841 300.562857 
L 666.255937 260.888571 
L 667.944033 290.425771 
L 669.632128 277.914889 
L 671.320224 220.99577 
L 673.008319 263.799702 
L 674.696415 229.970633 
L 678.072606 286.352416 
L 679.760702 275.294574 
L 681.448797 286.881596 
L 683.136893 220.639627 
L 684.824989 252.546033 
L 686.513084 275.076059 
L 688.20118 311.608101 
L 689.889275 252.741861 
L 691.577371 217.35575 
L 693.265467 92.8199 
L 694.953562 262.142447 
L 696.641658 263.767893 
L 698.329753 285.915386 
L 700.017849 232.935968 
L 701.705945 309.123643 
L 703.39404 305.993997 
L 705.082136 217.016438 
L 706.770231 255.571686 
L 708.458327 176.095456 
L 710.146423 275.076059 
L 711.834518 243.949962 
L 713.522614 263.590659 
L 715.210709 219.039643 
L 716.898805 241.246989 
L 718.586901 284.980186 
L 720.274996 285.915386 
L 721.963092 218.380506 
L 723.651187 295.036462 
L 725.339283 181.860746 
L 727.027379 198.703058 
L 728.715474 218.475761 
L 730.40357 241.413343 
L 732.091665 284.510526 
L 733.779761 252.643947 
L 735.467857 283.049628 
L 737.155952 238.14003 
L 738.844048 241.465504 
L 740.532143 252.6897 
L 743.908335 230.534515 
L 745.59643 297.651459 
L 747.284526 286.179275 
L 748.972621 246.238592 
L 750.660717 232.259529 
L 752.348813 250.969999 
L 754.036908 271.881763 
L 755.725004 300.367029 
L 757.413099 300.562857 
L 759.101195 257.758924 
L 760.789291 279.367929 
L 762.477386 211.295713 
L 764.165482 250.769357 
L 765.853577 232.259529 
L 767.541673 290.644285 
L 769.229769 131.077583 
L 770.917864 240.613895 
L 772.60596 222.340957 
L 774.294055 240.953514 
L 775.982151 199.902499 
L 777.670247 254.384025 
L 779.358342 225.28764 
L 781.046438 241.051428 
L 782.734533 270.58212 
L 784.422629 310.023368 
L 786.110725 290.644285 
L 787.79882 43.2 
L 789.486916 220.775483 
L 791.175011 260.888571 
L 792.863107 240.826405 
L 794.551203 250.969999 
L 796.239298 280.725714 
L 797.927394 280.982481 
L 799.615489 226.366164 
L 801.303585 280.725714 
L 802.991681 290.644285 
L 804.679776 290.644285 
L 806.367872 310.285601 
L 808.055967 292.749951 
L 809.744063 297.651459 
L 811.432159 275.294574 
L 813.120254 193.194768 
L 814.80835 218.912791 
L 816.496445 250.969999 
L 818.184541 239.272792 
L 819.872637 231.132856 
L 821.560732 271.708793 
L 823.248828 238.458198 
L 824.936923 287.928715 
L 826.625019 260.888571 
L 828.313115 260.888571 
L 830.00121 281.852387 
L 831.689306 280.090467 
L 835.065497 270.807142 
L 836.753592 300.367029 
L 838.441688 291.770958 
L 840.129784 270.807142 
L 841.817879 300.562857 
L 843.505975 320.4 
L 846.882166 221.214285 
L 848.570262 261.354647 
L 850.258357 280.529886 
L 851.946453 240.620948 
L 853.634548 249.612214 
L 855.322644 271.173765 
L 857.01074 259.80198 
L 858.698835 218.912791 
L 860.386931 230.189148 
L 862.075026 194.723727 
L 863.763122 263.528648 
L 865.451218 241.171762 
L 867.139313 153.522405 
L 868.827409 297.795235 
L 870.515504 241.419282 
L 872.2036 170.523643 
L 873.891696 250.969999 
L 875.579791 208.700478 
L 877.267887 310.481428 
L 878.955982 260.965608 
L 880.644078 254.569574 
L 882.332174 140.065309 
L 884.020269 286.072113 
L 885.708365 43.220509 
L 887.39646 233.136793 
L 889.084556 230.72325 
L 890.772652 298.688869 
L 892.460747 151.370208 
L 894.148843 260.965608 
L 895.836938 297.971165 
L 897.525034 177.007885 
L 899.21313 310.481428 
L 900.901225 260.551532 
L 902.589321 257.464624 
L 904.277416 266.16818 
L 905.965512 270.415487 
L 907.653608 259.398938 
L 909.341703 260.560799 
L 911.029799 250.969999 
L 912.717894 270.60203 
L 914.40599 254.427055 
L 916.094086 266.278267 
L 917.782181 296.626243 
L 921.158372 279.04052 
L 922.846468 299.55174 
L 924.534564 268.9127 
L 926.222659 298.540624 
L 927.910755 235.090292 
L 929.59885 239.340233 
L 931.286946 280.397942 
L 932.975042 277.74015 
L 934.663137 270.807142 
L 936.351233 260.888571 
L 938.039328 165.482505 
L 939.727424 247.585166 
L 941.41552 260.342284 
L 943.103615 270.746957 
L 944.791711 300.562857 
L 946.479806 251.047037 
L 948.167902 210.479168 
L 949.855998 290.316513 
L 951.544093 280.051636 
L 953.232189 280.725714 
L 954.920284 290.306752 
L 956.60838 276.269176 
L 958.296476 257.946365 
L 959.984571 244.846564 
L 961.672667 300.409023 
L 963.360762 310.276316 
L 965.048858 289.899469 
L 966.736954 267.677496 
L 968.425049 319.972442 
L 970.113145 82.796767 
L 971.80124 190.788104 
L 973.489336 212.197363 
L 975.177432 250.63296 
L 976.865527 261.790221 
L 978.553623 216.330913 
L 980.241718 167.264932 
L 981.929814 280.725714 
L 985.306005 200.921007 
L 986.994101 217.507378 
L 988.682196 86.634987 
L 990.370292 97.321853 
L 992.058388 253.425568 
L 993.746483 263.214739 
L 995.434579 231.546933 
L 997.122674 241.171762 
L 998.81077 262.811273 
L 1000.498866 275.294574 
L 1002.186961 250.302317 
L 1003.875057 265.168964 
L 1005.563152 217.262881 
L 1007.251248 252.329365 
L 1008.939344 290.644285 
L 1010.627439 308.782274 
L 1012.315535 184.042368 
L 1017.379822 299.55174 
L 1019.067917 291.135377 
L 1020.756013 290.644285 
L 1022.444108 220.540207 
L 1024.132204 252.096672 
L 1025.8203 289.578552 
L 1027.508395 259.023265 
L 1029.196491 310.481428 
L 1030.884586 269.684542 
L 1032.572682 289.205611 
L 1034.260777 190.848666 
L 1035.948873 250.100094 
L 1037.636969 300.245077 
L 1039.325064 230.088036 
L 1041.01316 298.502452 
L 1042.701255 170.571792 
L 1044.389351 288.098815 
L 1046.077447 297.847287 
L 1047.765542 273.168653 
L 1049.453638 242.50551 
L 1051.141733 297.651459 
L 1052.829829 320.4 
L 1056.20602 320.4 
L 1245.272727 300.562857 
L 1245.272727 300.562857 
" clip-path="url(#p44d0324311)" style="fill: none; stroke: #4c72b0; stroke-width: 1.5; stroke-linecap: round"/>
   </g>
   <g id="line2d_19">
    <path d="M 279.682045 244.991224 
L 281.370141 245.422046 
L 283.058236 246.918059 
L 284.746332 246.060608 
L 286.434427 246.14323 
L 288.122523 245.234715 
L 289.810619 240.07836 
L 291.498714 240.289133 
L 293.18681 238.590711 
L 294.874905 237.415255 
L 296.563001 238.722778 
L 298.251097 238.817008 
L 299.939192 235.990123 
L 301.627288 235.224878 
L 303.315383 234.095255 
L 305.003479 234.098689 
L 306.691575 232.858143 
L 308.37967 232.076514 
L 310.067766 230.965233 
L 311.755861 232.108672 
L 313.443957 234.036326 
L 315.132053 235.507773 
L 316.820148 234.527927 
L 318.508244 231.605971 
L 320.196339 233.09755 
L 321.884435 231.275185 
L 325.260626 235.918363 
L 326.948722 236.657516 
L 328.636817 239.266615 
L 330.324913 241.153509 
L 332.013009 241.311949 
L 333.701104 241.87674 
L 335.3892 243.479421 
L 337.077295 240.007986 
L 338.765391 241.911004 
L 340.453487 239.802972 
L 342.141582 237.175063 
L 343.829678 237.478884 
L 345.517773 235.814715 
L 347.205869 230.897917 
L 348.893965 229.64132 
L 350.58206 231.778803 
L 352.270156 232.944222 
L 353.958251 231.294036 
L 355.646347 230.705887 
L 357.334443 233.520948 
L 359.022538 234.252023 
L 360.710634 233.819498 
L 362.398729 235.703793 
L 364.086825 236.959429 
L 365.774921 237.662892 
L 367.463016 239.301792 
L 369.151112 243.406669 
L 370.839207 242.635228 
L 372.527303 244.281707 
L 374.215399 242.423076 
L 377.59159 237.295935 
L 379.279685 236.080032 
L 380.967781 235.29367 
L 382.655877 233.340971 
L 384.343972 230.903902 
L 386.032068 228.035711 
L 387.720163 230.581478 
L 389.408259 230.557675 
L 391.096355 237.828904 
L 394.472546 238.246422 
L 396.160641 239.097928 
L 397.848737 242.286395 
L 399.536833 242.878525 
L 401.224928 241.883974 
L 402.913024 242.621385 
L 404.601119 245.111268 
L 406.289215 245.611155 
L 409.665406 248.696329 
L 411.353502 251.54787 
L 413.041597 251.545475 
L 418.105884 252.215215 
L 419.79398 251.528464 
L 421.482075 251.932323 
L 423.170171 254.132526 
L 424.858267 256.797262 
L 426.546362 257.819917 
L 428.234458 260.275749 
L 429.922553 262.522678 
L 431.610649 264.271099 
L 433.298745 266.916398 
L 434.98684 268.454518 
L 436.674936 271.828236 
L 440.051127 272.949529 
L 441.739223 274.074834 
L 443.427318 273.026073 
L 446.803509 267.436895 
L 448.491605 268.217481 
L 450.1797 266.387614 
L 451.867796 265.191525 
L 453.555892 263.506373 
L 455.243987 266.053968 
L 456.932083 263.22622 
L 460.308274 259.990679 
L 461.99637 259.708541 
L 463.684465 256.903666 
L 465.372561 256.274565 
L 467.060656 252.890023 
L 468.748752 252.294424 
L 470.436848 251.491783 
L 473.813039 248.942116 
L 475.501134 246.945751 
L 477.18923 246.136098 
L 478.877326 244.565169 
L 480.565421 244.242679 
L 482.253517 246.761073 
L 483.941612 247.344567 
L 485.629708 246.585309 
L 487.317804 245.454776 
L 489.005899 245.815697 
L 490.693995 245.875553 
L 494.070186 246.505545 
L 495.758282 247.048652 
L 497.446377 252.314805 
L 499.134473 250.892693 
L 500.822568 253.589571 
L 504.19876 255.277684 
L 505.886855 249.422713 
L 507.574951 248.957495 
L 509.263046 248.014905 
L 510.951142 248.871683 
L 512.639238 247.335073 
L 514.327333 247.12811 
L 516.015429 246.148704 
L 517.703524 245.546958 
L 519.39162 244.279913 
L 521.079716 243.995808 
L 522.767811 244.051566 
L 524.455907 243.079527 
L 526.144002 242.468278 
L 527.832098 242.766274 
L 529.520194 237.993273 
L 532.896385 238.421912 
L 534.58448 235.147381 
L 536.272576 232.147478 
L 537.960672 230.651465 
L 539.648767 229.607228 
L 541.336863 231.678637 
L 543.024958 232.813556 
L 544.713054 233.14868 
L 546.40115 228.006635 
L 548.089245 227.209626 
L 549.777341 225.781918 
L 551.465436 225.236502 
L 553.153532 224.854096 
L 554.841628 224.270609 
L 556.529723 226.140299 
L 558.217819 232.371867 
L 559.905914 235.477875 
L 561.59401 237.740318 
L 563.282106 237.738827 
L 564.970201 239.253674 
L 566.658297 240.612008 
L 568.346392 242.47312 
L 570.034488 244.137568 
L 571.722584 243.435898 
L 573.410679 242.933717 
L 575.098775 243.135841 
L 576.78687 244.092232 
L 578.474966 246.331251 
L 580.163062 246.804923 
L 581.851157 251.95018 
L 583.539253 250.777285 
L 585.227348 252.702335 
L 586.915444 253.161028 
L 588.60354 254.664543 
L 590.291635 255.335798 
L 591.979731 254.672955 
L 593.667826 255.49181 
L 595.355922 255.983222 
L 597.044018 262.403249 
L 598.732113 263.916382 
L 600.420209 263.57196 
L 602.108304 263.818214 
L 603.7964 263.810939 
L 605.484496 262.916794 
L 607.172591 261.047104 
L 608.860687 257.747033 
L 610.548782 255.084117 
L 612.236878 256.135596 
L 613.924974 256.23296 
L 615.613069 253.687194 
L 618.98926 252.773981 
L 620.677356 249.55031 
L 622.365452 251.45656 
L 624.053547 252.491485 
L 625.741643 253.107464 
L 627.429738 253.115298 
L 629.117834 250.396527 
L 630.80593 251.14056 
L 632.494025 247.739986 
L 635.870216 247.720403 
L 637.558312 249.174389 
L 639.246408 249.919618 
L 640.934503 250.903795 
L 642.622599 252.295624 
L 644.310694 252.580757 
L 647.686885 254.665356 
L 649.374981 256.58669 
L 651.063077 257.65192 
L 652.751172 259.22898 
L 654.439268 261.467349 
L 656.127363 264.425881 
L 657.815459 265.439257 
L 659.503555 268.580907 
L 661.19165 263.817122 
L 662.879746 263.147637 
L 667.944033 269.121672 
L 669.632128 268.833138 
L 671.320224 271.072458 
L 673.008319 269.937539 
L 674.696415 268.259505 
L 676.384511 267.666095 
L 678.072606 268.222078 
L 679.760702 269.813214 
L 681.448797 269.461943 
L 683.136893 271.333748 
L 686.513084 271.339519 
L 688.20118 272.140805 
L 689.889275 269.892062 
L 691.577371 266.976591 
L 693.265467 259.795336 
L 694.953562 258.628822 
L 696.641658 256.741085 
L 698.329753 255.604653 
L 700.017849 253.082184 
L 701.705945 254.616647 
L 703.39404 255.865578 
L 705.082136 252.826042 
L 706.770231 252.039362 
L 708.458327 249.222863 
L 710.146423 248.705078 
L 711.834518 254.912448 
L 713.522614 255.484865 
L 715.210709 252.767425 
L 716.898805 252.112706 
L 718.586901 251.931186 
L 720.274996 252.197869 
L 721.963092 252.110694 
L 723.651187 253.151919 
L 725.339283 251.548256 
L 727.027379 249.588616 
L 728.715474 247.326061 
L 730.40357 246.196687 
L 732.091665 246.117651 
L 735.467857 248.201248 
L 737.155952 246.970047 
L 738.844048 244.631961 
L 740.532143 244.630222 
L 742.220239 245.43388 
L 743.908335 250.024368 
L 745.59643 251.208001 
L 747.284526 251.955047 
L 748.972621 250.632488 
L 750.660717 250.60994 
L 752.348813 248.671485 
L 754.036908 247.53441 
L 755.725004 250.312763 
L 757.413099 251.812469 
L 759.101195 254.534585 
L 760.789291 254.677647 
L 762.477386 253.589172 
L 764.165482 253.161795 
L 765.853577 253.602458 
L 767.541673 255.249035 
L 769.229769 250.118948 
L 770.917864 248.608898 
L 772.60596 248.740913 
L 774.294055 246.938148 
L 775.982151 247.53954 
L 777.670247 249.395572 
L 779.358342 249.622635 
L 781.046438 249.610571 
L 782.734533 249.146291 
L 784.422629 251.058938 
L 786.110725 251.312094 
L 787.79882 244.814093 
L 789.486916 244.124425 
L 791.175011 244.397721 
L 792.863107 244.376418 
L 794.551203 245.0576 
L 796.239298 244.493409 
L 797.927394 244.320182 
L 799.615489 243.657768 
L 801.303585 245.273308 
L 802.991681 246.595784 
L 804.679776 247.221201 
L 806.367872 247.55182 
L 808.055967 247.29139 
L 809.744063 248.621141 
L 811.432159 248.485363 
L 813.120254 247.881998 
L 814.80835 246.820113 
L 816.496445 247.443795 
L 818.184541 245.731412 
L 819.872637 249.066588 
L 821.560732 250.103084 
L 823.248828 250.640325 
L 824.936923 252.206166 
L 826.625019 254.239035 
L 828.313115 254.455853 
L 830.00121 256.341344 
L 831.689306 257.642646 
L 835.065497 257.650146 
L 836.753592 257.328268 
L 838.441688 257.365824 
L 840.129784 264.952729 
L 841.817879 267.612308 
L 843.505975 269.596022 
L 846.882166 268.942285 
L 848.570262 269.28844 
L 850.258357 269.281912 
L 851.946453 267.936528 
L 853.634548 268.711396 
L 855.322644 268.392998 
L 857.01074 267.364921 
L 858.698835 264.973871 
L 860.386931 262.30399 
L 862.075026 259.036449 
L 865.451218 256.761595 
L 867.139313 255.439182 
L 868.827409 258.068597 
L 870.515504 257.75024 
L 872.2036 255.458602 
L 873.891696 256.11984 
L 875.579791 254.019563 
L 877.267887 256.420337 
L 878.955982 255.521567 
L 880.644078 255.310934 
L 882.332174 251.283491 
L 884.020269 251.424149 
L 885.708365 243.528484 
L 887.39646 242.272805 
L 889.084556 239.951346 
L 890.772652 240.181943 
L 892.460747 236.200712 
L 894.148843 234.880804 
L 895.836938 234.133176 
L 897.525034 232.659629 
L 899.21313 234.297189 
L 900.901225 233.631243 
L 904.277416 234.744565 
L 907.653608 234.705854 
L 909.341703 236.094121 
L 911.029799 236.786816 
L 912.717894 239.316093 
L 914.40599 239.012707 
L 916.094086 239.84959 
L 917.782181 244.619718 
L 921.158372 243.994561 
L 922.846468 245.932309 
L 924.534564 249.211945 
L 926.222659 250.797632 
L 927.910755 251.677293 
L 929.59885 249.305919 
L 931.286946 249.953664 
L 932.975042 250.726016 
L 934.663137 255.084077 
L 936.351233 254.244626 
L 938.039328 258.320026 
L 939.727424 258.801638 
L 941.41552 259.78894 
L 943.103615 258.857543 
L 944.791711 263.830631 
L 946.479806 263.500012 
L 948.167902 260.583612 
L 949.855998 264.360566 
L 951.544093 263.34624 
L 953.232189 264.018712 
L 954.920284 265.11345 
L 956.60838 265.45015 
L 959.984571 264.549433 
L 961.672667 265.877708 
L 963.360762 267.854585 
L 965.048858 268.497833 
L 966.736954 268.939514 
L 968.425049 270.72932 
L 970.113145 263.601671 
L 973.489336 257.748111 
L 975.177432 257.138786 
L 976.865527 255.913773 
L 978.553623 255.28846 
L 980.241718 252.88595 
L 981.929814 252.896876 
L 983.61791 251.700868 
L 985.306005 249.37133 
L 986.994101 247.925291 
L 988.682196 245.29704 
L 990.370292 240.288263 
L 993.746483 239.806632 
L 995.434579 237.506101 
L 997.122674 237.176925 
L 998.81077 238.921329 
L 1000.498866 238.420597 
L 1002.186961 237.428953 
L 1003.875057 236.910395 
L 1005.563152 234.475599 
L 1007.251248 233.677606 
L 1008.939344 234.767536 
L 1010.627439 236.898727 
L 1012.315535 233.019838 
L 1017.379822 232.662352 
L 1019.067917 232.703549 
L 1020.756013 233.469109 
L 1022.444108 230.154701 
L 1024.132204 235.798031 
L 1025.8203 239.091046 
L 1027.508395 240.651909 
L 1029.196491 242.646858 
L 1030.884586 242.910002 
L 1032.572682 245.339159 
L 1034.260777 246.125283 
L 1035.948873 245.104429 
L 1037.636969 247.050602 
L 1039.325064 248.022836 
L 1042.701255 253.520565 
L 1044.389351 259.879797 
L 1046.077447 261.360521 
L 1049.453638 262.057604 
L 1052.829829 265.859885 
L 1054.517925 267.363399 
L 1056.20602 269.699989 
L 1245.272727 270.879785 
L 1245.272727 270.879785 
" clip-path="url(#p44d0324311)" style="fill: none; stroke-dasharray: 5.55,2.4; stroke-dashoffset: 0; stroke: #dd8452; stroke-width: 1.5"/>
   </g>
   <g id="patch_3">
    <path d="M 180 320.4 
L 180 43.2 
" style="fill: none; stroke: #ffffff; stroke-width: 1.25; stroke-linejoin: miter; stroke-linecap: square"/>
   </g>
   <g id="patch_4">
    <path d="M 1296 320.4 
L 1296 43.2 
" style="fill: none; stroke: #ffffff; stroke-width: 1.25; stroke-linejoin: miter; stroke-linecap: square"/>
   </g>
   <g id="patch_5">
    <path d="M 180 320.4 
L 1296 320.4 
" style="fill: none; stroke: #ffffff; stroke-width: 1.25; stroke-linejoin: miter; stroke-linecap: square"/>
   </g>
   <g id="patch_6">
    <path d="M 180 43.2 
L 1296 43.2 
" style="fill: none; stroke: #ffffff; stroke-width: 1.25; stroke-linejoin: miter; stroke-linecap: square"/>
   </g>
   <g id="text_19">
    <!-- Trend Biaya Maintenance Tyre Per Hari -->
    <g style="fill: #262626" transform="translate(562.925 28.2) scale(0.2 -0.2)">
     <defs>
      <path id="ArialMT-54" d="M 1659 0 
L 1659 4041 
L 150 4041 
L 150 4581 
L 3781 4581 
L 3781 4041 
L 2266 4041 
L 2266 0 
L 1659 0 
z
" transform="scale(0.015625)"/>
      <path id="ArialMT-72" d="M 416 0 
L 416 3319 
L 922 3319 
L 922 2816 
Q 1116 3169 1280 3281 
Q 1444 3394 1641 3394 
Q 1925 3394 2219 3213 
L 2025 2691 
Q 1819 2813 1613 2813 
Q 1428 2813 1281 2702 
Q 1134 2591 1072 2394 
Q 978 2094 978 1738 
L 978 0 
L 416 0 
z
" transform="scale(0.015625)"/>
      <path id="ArialMT-65" d="M 2694 1069 
L 3275 997 
Q 3138 488 2766 206 
Q 2394 -75 1816 -75 
Q 1088 -75 661 373 
Q 234 822 234 1631 
Q 234 2469 665 2931 
Q 1097 3394 1784 3394 
Q 2450 3394 2872 2941 
Q 3294 2488 3294 1666 
Q 3294 1616 3291 1516 
L 816 1516 
Q 847 969 1125 678 
Q 1403 388 1819 388 
Q 2128 388 2347 550 
Q 2566 713 2694 1069 
z
M 847 1978 
L 2700 1978 
Q 2663 2397 2488 2606 
Q 2219 2931 1791 2931 
Q 1403 2931 1139 2672 
Q 875 2413 847 1978 
z
" transform="scale(0.015625)"/>
      <path id="ArialMT-6e" d="M 422 0 
L 422 3319 
L 928 3319 
L 928 2847 
Q 1294 3394 1984 3394 
Q 2284 3394 2536 3286 
Q 2788 3178 2913 3003 
Q 3038 2828 3088 2588 
Q 3119 2431 3119 2041 
L 3119 0 
L 2556 0 
L 2556 2019 
Q 2556 2363 2490 2533 
Q 2425 2703 2258 2804 
Q 2091 2906 1866 2906 
Q 1506 2906 1245 2678 
Q 984 2450 984 1813 
L 984 0 
L 422 0 
z
" transform="scale(0.015625)"/>
      <path id="ArialMT-64" d="M 2575 0 
L 2575 419 
Q 2259 -75 1647 -75 
Q 1250 -75 917 144 
Q 584 363 401 755 
Q 219 1147 219 1656 
Q 219 2153 384 2558 
Q 550 2963 881 3178 
Q 1213 3394 1622 3394 
Q 1922 3394 2156 3267 
Q 2391 3141 2538 2938 
L 2538 4581 
L 3097 4581 
L 3097 0 
L 2575 0 
z
M 797 1656 
Q 797 1019 1065 703 
Q 1334 388 1700 388 
Q 2069 388 2326 689 
Q 2584 991 2584 1609 
Q 2584 2291 2321 2609 
Q 2059 2928 1675 2928 
Q 1300 2928 1048 2622 
Q 797 2316 797 1656 
z
" transform="scale(0.015625)"/>
      <path id="ArialMT-4d" d="M 475 0 
L 475 4581 
L 1388 4581 
L 2472 1338 
Q 2622 884 2691 659 
Q 2769 909 2934 1394 
L 4031 4581 
L 4847 4581 
L 4847 0 
L 4263 0 
L 4263 3834 
L 2931 0 
L 2384 0 
L 1059 3900 
L 1059 0 
L 475 0 
z
" transform="scale(0.015625)"/>
      <path id="ArialMT-74" d="M 1650 503 
L 1731 6 
Q 1494 -44 1306 -44 
Q 1000 -44 831 53 
Q 663 150 594 308 
Q 525 466 525 972 
L 525 2881 
L 113 2881 
L 113 3319 
L 525 3319 
L 525 4141 
L 1084 4478 
L 1084 3319 
L 1650 3319 
L 1650 2881 
L 1084 2881 
L 1084 941 
Q 1084 700 1114 631 
Q 1144 563 1211 522 
Q 1278 481 1403 481 
Q 1497 481 1650 503 
z
" transform="scale(0.015625)"/>
      <path id="ArialMT-63" d="M 2588 1216 
L 3141 1144 
Q 3050 572 2676 248 
Q 2303 -75 1759 -75 
Q 1078 -75 664 370 
Q 250 816 250 1647 
Q 250 2184 428 2587 
Q 606 2991 970 3192 
Q 1334 3394 1763 3394 
Q 2303 3394 2647 3120 
Q 2991 2847 3088 2344 
L 2541 2259 
Q 2463 2594 2264 2762 
Q 2066 2931 1784 2931 
Q 1359 2931 1093 2626 
Q 828 2322 828 1663 
Q 828 994 1084 691 
Q 1341 388 1753 388 
Q 2084 388 2306 591 
Q 2528 794 2588 1216 
z
" transform="scale(0.015625)"/>
      <path id="ArialMT-50" d="M 494 0 
L 494 4581 
L 2222 4581 
Q 2678 4581 2919 4538 
Q 3256 4481 3484 4323 
Q 3713 4166 3852 3881 
Q 3991 3597 3991 3256 
Q 3991 2672 3619 2267 
Q 3247 1863 2275 1863 
L 1100 1863 
L 1100 0 
L 494 0 
z
M 1100 2403 
L 2284 2403 
Q 2872 2403 3119 2622 
Q 3366 2841 3366 3238 
Q 3366 3525 3220 3729 
Q 3075 3934 2838 4000 
Q 2684 4041 2272 4041 
L 1100 4041 
L 1100 2403 
z
" transform="scale(0.015625)"/>
      <path id="ArialMT-48" d="M 513 0 
L 513 4581 
L 1119 4581 
L 1119 2700 
L 3500 2700 
L 3500 4581 
L 4106 4581 
L 4106 0 
L 3500 0 
L 3500 2159 
L 1119 2159 
L 1119 0 
L 513 0 
z
" transform="scale(0.015625)"/>
     </defs>
     <use xlink:href="#ArialMT-54"/>
     <use xlink:href="#ArialMT-72" x="57.333984"/>
     <use xlink:href="#ArialMT-65" x="90.634766"/>
     <use xlink:href="#ArialMT-6e" x="146.25"/>
     <use xlink:href="#ArialMT-64" x="201.865234"/>
     <use xlink:href="#ArialMT-20" x="257.480469"/>
     <use xlink:href="#ArialMT-42" x="285.263672"/>
     <use xlink:href="#ArialMT-69" x="351.962891"/>
     <use xlink:href="#ArialMT-61" x="374.179688"/>
     <use xlink:href="#ArialMT-79" x="429.794922"/>
     <use xlink:href="#ArialMT-61" x="479.794922"/>
     <use xlink:href="#ArialMT-20" x="535.410156"/>
     <use xlink:href="#ArialMT-4d" x="563.193359"/>
     <use xlink:href="#ArialMT-61" x="646.494141"/>
     <use xlink:href="#ArialMT-69" x="702.109375"/>
     <use xlink:href="#ArialMT-6e" x="724.326172"/>
     <use xlink:href="#ArialMT-74" x="779.941406"/>
     <use xlink:href="#ArialMT-65" x="807.724609"/>
     <use xlink:href="#ArialMT-6e" x="863.339844"/>
     <use xlink:href="#ArialMT-61" x="918.955078"/>
     <use xlink:href="#ArialMT-6e" x="974.570312"/>
     <use xlink:href="#ArialMT-63" x="1030.185547"/>
     <use xlink:href="#ArialMT-65" x="1080.185547"/>
     <use xlink:href="#ArialMT-20" x="1135.800781"/>
     <use xlink:href="#ArialMT-54" x="1161.833984"/>
     <use xlink:href="#ArialMT-79" x="1217.417969"/>
     <use xlink:href="#ArialMT-72" x="1267.417969"/>
     <use xlink:href="#ArialMT-65" x="1300.71875"/>
     <use xlink:href="#ArialMT-20" x="1356.333984"/>
     <use xlink:href="#ArialMT-50" x="1384.117188"/>
     <use xlink:href="#ArialMT-65" x="1450.816406"/>
     <use xlink:href="#ArialMT-72" x="1506.431641"/>
     <use xlink:href="#ArialMT-20" x="1539.732422"/>
     <use xlink:href="#ArialMT-48" x="1567.515625"/>
     <use xlink:href="#ArialMT-61" x="1639.732422"/>
     <use xlink:href="#ArialMT-72" x="1695.347656"/>
     <use xlink:href="#ArialMT-69" x="1728.648438"/>
    </g>
   </g>
   <g id="legend_1">
    <g id="patch_7">
     <path d="M 1091.080312 83.410156 
L 1288.3 83.410156 
Q 1290.5 83.410156 1290.5 81.210156 
L 1290.5 50.9 
Q 1290.5 48.7 1288.3 48.7 
L 1091.080312 48.7 
Q 1088.880312 48.7 1088.880312 50.9 
L 1088.880312 81.210156 
Q 1088.880312 83.410156 1091.080312 83.410156 
z
" style="fill: #fff9ed; opacity: 0.8; stroke: #cccccc; stroke-linejoin: miter"/>
    </g>
    <g id="line2d_20">
     <path d="M 1093.280313 57.123594 
L 1104.280313 57.123594 
L 1115.280313 57.123594 
" style="fill: none; stroke: #4c72b0; stroke-width: 1.5; stroke-linecap: round"/>
    </g>
    <g id="text_20">
     <!-- Biaya Harian -->
     <g style="fill: #262626" transform="translate(1124.080312 60.973594) scale(0.11 -0.11)">
      <use xlink:href="#ArialMT-42"/>
      <use xlink:href="#ArialMT-69" x="66.699219"/>
      <use xlink:href="#ArialMT-61" x="88.916016"/>
      <use xlink:href="#ArialMT-79" x="144.53125"/>
      <use xlink:href="#ArialMT-61" x="194.53125"/>
      <use xlink:href="#ArialMT-20" x="250.146484"/>
      <use xlink:href="#ArialMT-48" x="277.929688"/>
      <use xlink:href="#ArialMT-61" x="350.146484"/>
      <use xlink:href="#ArialMT-72" x="405.761719"/>
      <use xlink:href="#ArialMT-69" x="439.0625"/>
      <use xlink:href="#ArialMT-61" x="461.279297"/>
      <use xlink:href="#ArialMT-6e" x="516.894531"/>
     </g>
    </g>
    <g id="line2d_21">
     <path d="M 1093.280313 72.845 
L 1104.280313 72.845 
L 1115.280313 72.845 
" style="fill: none; stroke-dasharray: 5.55,2.4; stroke-dashoffset: 0; stroke: #dd8452; stroke-width: 1.5"/>
    </g>
    <g id="text_21">
     <!-- Pergerakan Rerata Biaya 30 Hari -->
     <g style="fill: #262626" transform="translate(1124.080312 76.695) scale(0.11 -0.11)">
      <defs>
       <path id="ArialMT-67" d="M 319 -275 
L 866 -356 
Q 900 -609 1056 -725 
Q 1266 -881 1628 -881 
Q 2019 -881 2231 -725 
Q 2444 -569 2519 -288 
Q 2563 -116 2559 434 
Q 2191 0 1641 0 
Q 956 0 581 494 
Q 206 988 206 1678 
Q 206 2153 378 2554 
Q 550 2956 876 3175 
Q 1203 3394 1644 3394 
Q 2231 3394 2613 2919 
L 2613 3319 
L 3131 3319 
L 3131 450 
Q 3131 -325 2973 -648 
Q 2816 -972 2473 -1159 
Q 2131 -1347 1631 -1347 
Q 1038 -1347 672 -1080 
Q 306 -813 319 -275 
z
M 784 1719 
Q 784 1066 1043 766 
Q 1303 466 1694 466 
Q 2081 466 2343 764 
Q 2606 1063 2606 1700 
Q 2606 2309 2336 2618 
Q 2066 2928 1684 2928 
Q 1309 2928 1046 2623 
Q 784 2319 784 1719 
z
" transform="scale(0.015625)"/>
       <path id="ArialMT-6b" d="M 425 0 
L 425 4581 
L 988 4581 
L 988 1969 
L 2319 3319 
L 3047 3319 
L 1778 2088 
L 3175 0 
L 2481 0 
L 1384 1697 
L 988 1316 
L 988 0 
L 425 0 
z
" transform="scale(0.015625)"/>
      </defs>
      <use xlink:href="#ArialMT-50"/>
      <use xlink:href="#ArialMT-65" x="66.699219"/>
      <use xlink:href="#ArialMT-72" x="122.314453"/>
      <use xlink:href="#ArialMT-67" x="155.615234"/>
      <use xlink:href="#ArialMT-65" x="211.230469"/>
      <use xlink:href="#ArialMT-72" x="266.845703"/>
      <use xlink:href="#ArialMT-61" x="300.146484"/>
      <use xlink:href="#ArialMT-6b" x="355.761719"/>
      <use xlink:href="#ArialMT-61" x="405.761719"/>
      <use xlink:href="#ArialMT-6e" x="461.376953"/>
      <use xlink:href="#ArialMT-20" x="516.992188"/>
      <use xlink:href="#ArialMT-52" x="544.775391"/>
      <use xlink:href="#ArialMT-65" x="616.992188"/>
      <use xlink:href="#ArialMT-72" x="672.607422"/>
      <use xlink:href="#ArialMT-61" x="705.908203"/>
      <use xlink:href="#ArialMT-74" x="761.523438"/>
      <use xlink:href="#ArialMT-61" x="789.306641"/>
      <use xlink:href="#ArialMT-20" x="844.921875"/>
      <use xlink:href="#ArialMT-42" x="872.705078"/>
      <use xlink:href="#ArialMT-69" x="939.404297"/>
      <use xlink:href="#ArialMT-61" x="961.621094"/>
      <use xlink:href="#ArialMT-79" x="1017.236328"/>
      <use xlink:href="#ArialMT-61" x="1067.236328"/>
      <use xlink:href="#ArialMT-20" x="1122.851562"/>
      <use xlink:href="#ArialMT-33" x="1150.634766"/>
      <use xlink:href="#ArialMT-30" x="1206.25"/>
      <use xlink:href="#ArialMT-20" x="1261.865234"/>
      <use xlink:href="#ArialMT-48" x="1289.648438"/>
      <use xlink:href="#ArialMT-61" x="1361.865234"/>
      <use xlink:href="#ArialMT-72" x="1417.480469"/>
      <use xlink:href="#ArialMT-69" x="1450.78125"/>
     </g>
    </g>
   </g>
  </g>
 </g>
 <defs>
  <clipPath id="p44d0324311">
   <rect x="180" y="43.2" width="1116" height="277.2"/>
  </clipPath>
 </defs>
</svg>
