<?xml version="1.0" encoding="utf-8" standalone="no"?>
<!DOCTYPE svg PUBLIC "-//W3C//DTD SVG 1.1//EN"
  "http://www.w3.org/Graphics/SVG/1.1/DTD/svg11.dtd">
<svg xmlns:xlink="http://www.w3.org/1999/xlink" width="460.8pt" height="345.6pt" viewBox="0 0 460.8 345.6" xmlns="http://www.w3.org/2000/svg" version="1.1">
 <metadata>
  <rdf:RDF xmlns:dc="http://purl.org/dc/elements/1.1/" xmlns:cc="http://creativecommons.org/ns#" xmlns:rdf="http://www.w3.org/1999/02/22-rdf-syntax-ns#">
   <cc:Work>
    <dc:type rdf:resource="http://purl.org/dc/dcmitype/StillImage"/>
    <dc:date>2024-05-06T10:15:12.261107</dc:date>
    <dc:format>image/svg+xml</dc:format>
    <dc:creator>
     <cc:Agent>
      <dc:title>Matplotlib v3.6.2, https://matplotlib.org/</dc:title>
     </cc:Agent>
    </dc:creator>
   </cc:Work>
  </rdf:RDF>
 </metadata>
 <defs>
  <style type="text/css">*{stroke-linejoin: round; stroke-linecap: butt}</style>
 </defs>
 <g id="figure_1">
  <g id="patch_1">
   <path d="M 0 345.6 
L 460.8 345.6 
L 460.8 0 
L 0 0 
L 0 345.6 
z
" style="fill: none"/>
  </g>
  <g id="axes_1">
   <g id="matplotlib.axis_1"/>
   <g id="matplotlib.axis_2"/>
   <g id="patch_2">
    <path d="M 340.475904 176.656896 
C 340.475904 159.455906 336.306503 142.50851 328.325953 127.270897 
C 320.345403 112.033283 308.789017 98.954747 294.649768 89.15905 
C 280.510519 79.363353 264.205315 73.13933 247.135165 71.021774 
C 230.065016 68.904218 212.73325 70.955567 196.629083 76.999562 
C 180.524917 83.043556 166.123196 92.901983 154.661375 105.727766 
C 143.199554 118.553548 135.015595 133.968508 130.812698 150.648127 
C 126.6098 167.327746 126.511891 184.780212 130.527381 201.505937 
C 134.542872 218.231662 142.553363 233.737474 153.870559 246.691049 
L 234.031104 176.656896 
L 340.475904 176.656896 
z
" style="fill: #172235; opacity: 0.5; stroke: #172235; stroke-linejoin: miter"/>
   </g>
   <g id="patch_3">
    <path d="M 153.870559 246.691049 
C 168.121884 263.003003 187.018311 274.58275 208.022335 279.875302 
C 229.026359 285.167854 251.153747 283.925207 271.433125 276.31423 
C 291.712502 268.703253 309.193593 255.08059 321.52895 237.27556 
C 333.864306 219.47053 340.475904 198.317462 340.475904 176.656896 
L 234.031104 176.656896 
L 153.870559 246.691049 
z
" style="fill: #422819; opacity: 0.5; stroke: #422819; stroke-linejoin: miter"/>
   </g>
   <g id="patch_4">
    <path d="M 342.6048 174.528 
C 342.6048 157.32701 338.435399 140.379614 330.454849 125.142001 
C 322.474299 109.904387 310.917913 96.825851 296.778664 87.030154 
C 282.639415 77.234457 266.334211 71.010434 249.264061 68.892878 
C 232.193912 66.775322 214.862146 68.826671 198.757979 74.870666 
C 182.653813 80.91466 168.252092 90.773087 156.790271 103.59887 
C 145.32845 116.424652 137.144491 131.839612 132.941594 148.519231 
C 128.738696 165.19885 128.640787 182.651316 132.656277 199.377041 
C 136.671768 216.102766 144.682259 231.608578 155.999455 244.562153 
L 236.16 174.528 
L 342.6048 174.528 
z
" style="fill: #4c72b0; stroke: #ffffff; stroke-linejoin: miter"/>
   </g>
   <g id="patch_5">
    <path d="M 155.999455 244.562153 
C 170.25078 260.874107 189.147207 272.453854 210.151231 277.746406 
C 231.155255 283.038958 253.282643 281.796311 273.562021 274.185334 
C 293.841398 266.574357 311.322489 252.951694 323.657846 235.146664 
C 335.993202 217.341634 342.6048 196.188566 342.6048 174.528 
L 236.16 174.528 
L 155.999455 244.562153 
z
" style="fill: #dd8452; stroke: #ffffff; stroke-linejoin: miter"/>
   </g>
  </g>
 </g>
</svg>
