<?xml version="1.0" encoding="utf-8" standalone="no"?>
<!DOCTYPE svg PUBLIC "-//W3C//DTD SVG 1.1//EN"
  "http://www.w3.org/Graphics/SVG/1.1/DTD/svg11.dtd">
<svg xmlns:xlink="http://www.w3.org/1999/xlink" width="720pt" height="288pt" viewBox="0 0 720 288" xmlns="http://www.w3.org/2000/svg" version="1.1">
 <metadata>
  <rdf:RDF xmlns:dc="http://purl.org/dc/elements/1.1/" xmlns:cc="http://creativecommons.org/ns#" xmlns:rdf="http://www.w3.org/1999/02/22-rdf-syntax-ns#">
   <cc:Work>
    <dc:type rdf:resource="http://purl.org/dc/dcmitype/StillImage"/>
    <dc:date>2024-05-24T11:07:47.857420</dc:date>
    <dc:format>image/svg+xml</dc:format>
    <dc:creator>
     <cc:Agent>
      <dc:title>Matplotlib v3.6.2, https://matplotlib.org/</dc:title>
     </cc:Agent>
    </dc:creator>
   </cc:Work>
  </rdf:RDF>
 </metadata>
 <defs>
  <style type="text/css">*{stroke-linejoin: round; stroke-linecap: butt}</style>
 </defs>
 <g id="figure_1">
  <g id="patch_1">
   <path d="M 0 288 
L 720 288 
L 720 0 
L 0 0 
z
" style="fill: #fff9ed"/>
  </g>
  <g id="axes_1">
   <g id="patch_2">
    <path d="M 90 256.32 
L 648 256.32 
L 648 34.56 
L 90 34.56 
z
" style="fill: #fff9ed"/>
   </g>
   <g id="matplotlib.axis_1">
    <g id="xtick_1">
     <g id="line2d_1">
      <path d="M 115.363636 256.32 
L 115.363636 34.56 
" clip-path="url(#pfd3a9d203e)" style="fill: none; stroke: #ffffff; stroke-linecap: round"/>
     </g>
     <g id="text_1">
      <!-- 0 -->
      <g style="fill: #262626" transform="translate(114.13672 275.697248) rotate(-30) scale(0.11 -0.11)">
       <defs>
        <path id="ArialMT-30" d="M 266 2259 
Q 266 3072 433 3567 
Q 600 4063 929 4331 
Q 1259 4600 1759 4600 
Q 2128 4600 2406 4451 
Q 2684 4303 2865 4023 
Q 3047 3744 3150 3342 
Q 3253 2941 3253 2259 
Q 3253 1453 3087 958 
Q 2922 463 2592 192 
Q 2263 -78 1759 -78 
Q 1097 -78 719 397 
Q 266 969 266 2259 
z
M 844 2259 
Q 844 1131 1108 757 
Q 1372 384 1759 384 
Q 2147 384 2411 759 
Q 2675 1134 2675 2259 
Q 2675 3391 2411 3762 
Q 2147 4134 1753 4134 
Q 1366 4134 1134 3806 
Q 844 3388 844 2259 
z
" transform="scale(0.015625)"/>
       </defs>
       <use xlink:href="#ArialMT-30"/>
      </g>
     </g>
    </g>
    <g id="xtick_2">
     <g id="line2d_2">
      <path d="M 208.792574 256.32 
L 208.792574 34.56 
" clip-path="url(#pfd3a9d203e)" style="fill: none; stroke: #ffffff; stroke-linecap: round"/>
     </g>
     <g id="text_2">
      <!-- 3.000 -->
      <g style="fill: #262626" transform="translate(198.296141 286.400763) rotate(-30) scale(0.11 -0.11)">
       <defs>
        <path id="ArialMT-33" d="M 269 1209 
L 831 1284 
Q 928 806 1161 595 
Q 1394 384 1728 384 
Q 2125 384 2398 659 
Q 2672 934 2672 1341 
Q 2672 1728 2419 1979 
Q 2166 2231 1775 2231 
Q 1616 2231 1378 2169 
L 1441 2663 
Q 1497 2656 1531 2656 
Q 1891 2656 2178 2843 
Q 2466 3031 2466 3422 
Q 2466 3731 2256 3934 
Q 2047 4138 1716 4138 
Q 1388 4138 1169 3931 
Q 950 3725 888 3313 
L 325 3413 
Q 428 3978 793 4289 
Q 1159 4600 1703 4600 
Q 2078 4600 2393 4439 
Q 2709 4278 2876 4000 
Q 3044 3722 3044 3409 
Q 3044 3113 2884 2869 
Q 2725 2625 2413 2481 
Q 2819 2388 3044 2092 
Q 3269 1797 3269 1353 
Q 3269 753 2831 336 
Q 2394 -81 1725 -81 
Q 1122 -81 723 278 
Q 325 638 269 1209 
z
" transform="scale(0.015625)"/>
        <path id="ArialMT-2e" d="M 581 0 
L 581 641 
L 1222 641 
L 1222 0 
L 581 0 
z
" transform="scale(0.015625)"/>
       </defs>
       <use xlink:href="#ArialMT-33"/>
       <use xlink:href="#ArialMT-2e" x="55.615234"/>
       <use xlink:href="#ArialMT-30" x="83.398438"/>
       <use xlink:href="#ArialMT-30" x="139.013672"/>
       <use xlink:href="#ArialMT-30" x="194.628906"/>
      </g>
     </g>
    </g>
    <g id="xtick_3">
     <g id="line2d_3">
      <path d="M 302.221511 256.32 
L 302.221511 34.56 
" clip-path="url(#pfd3a9d203e)" style="fill: none; stroke: #ffffff; stroke-linecap: round"/>
     </g>
     <g id="text_3">
      <!-- 6.000 -->
      <g style="fill: #262626" transform="translate(291.725079 286.400763) rotate(-30) scale(0.11 -0.11)">
       <defs>
        <path id="ArialMT-36" d="M 3184 3459 
L 2625 3416 
Q 2550 3747 2413 3897 
Q 2184 4138 1850 4138 
Q 1581 4138 1378 3988 
Q 1113 3794 959 3422 
Q 806 3050 800 2363 
Q 1003 2672 1297 2822 
Q 1591 2972 1913 2972 
Q 2475 2972 2870 2558 
Q 3266 2144 3266 1488 
Q 3266 1056 3080 686 
Q 2894 316 2569 119 
Q 2244 -78 1831 -78 
Q 1128 -78 684 439 
Q 241 956 241 2144 
Q 241 3472 731 4075 
Q 1159 4600 1884 4600 
Q 2425 4600 2770 4297 
Q 3116 3994 3184 3459 
z
M 888 1484 
Q 888 1194 1011 928 
Q 1134 663 1356 523 
Q 1578 384 1822 384 
Q 2178 384 2434 671 
Q 2691 959 2691 1453 
Q 2691 1928 2437 2201 
Q 2184 2475 1800 2475 
Q 1419 2475 1153 2201 
Q 888 1928 888 1484 
z
" transform="scale(0.015625)"/>
       </defs>
       <use xlink:href="#ArialMT-36"/>
       <use xlink:href="#ArialMT-2e" x="55.615234"/>
       <use xlink:href="#ArialMT-30" x="83.398438"/>
       <use xlink:href="#ArialMT-30" x="139.013672"/>
       <use xlink:href="#ArialMT-30" x="194.628906"/>
      </g>
     </g>
    </g>
    <g id="xtick_4">
     <g id="line2d_4">
      <path d="M 395.650449 256.32 
L 395.650449 34.56 
" clip-path="url(#pfd3a9d203e)" style="fill: none; stroke: #ffffff; stroke-linecap: round"/>
     </g>
     <g id="text_4">
      <!-- 9.000 -->
      <g style="fill: #262626" transform="translate(385.154016 286.400763) rotate(-30) scale(0.11 -0.11)">
       <defs>
        <path id="ArialMT-39" d="M 350 1059 
L 891 1109 
Q 959 728 1153 556 
Q 1347 384 1650 384 
Q 1909 384 2104 503 
Q 2300 622 2425 820 
Q 2550 1019 2634 1356 
Q 2719 1694 2719 2044 
Q 2719 2081 2716 2156 
Q 2547 1888 2255 1720 
Q 1963 1553 1622 1553 
Q 1053 1553 659 1965 
Q 266 2378 266 3053 
Q 266 3750 677 4175 
Q 1088 4600 1706 4600 
Q 2153 4600 2523 4359 
Q 2894 4119 3086 3673 
Q 3278 3228 3278 2384 
Q 3278 1506 3087 986 
Q 2897 466 2520 194 
Q 2144 -78 1638 -78 
Q 1100 -78 759 220 
Q 419 519 350 1059 
z
M 2653 3081 
Q 2653 3566 2395 3850 
Q 2138 4134 1775 4134 
Q 1400 4134 1122 3828 
Q 844 3522 844 3034 
Q 844 2597 1108 2323 
Q 1372 2050 1759 2050 
Q 2150 2050 2401 2323 
Q 2653 2597 2653 3081 
z
" transform="scale(0.015625)"/>
       </defs>
       <use xlink:href="#ArialMT-39"/>
       <use xlink:href="#ArialMT-2e" x="55.615234"/>
       <use xlink:href="#ArialMT-30" x="83.398438"/>
       <use xlink:href="#ArialMT-30" x="139.013672"/>
       <use xlink:href="#ArialMT-30" x="194.628906"/>
      </g>
     </g>
    </g>
    <g id="xtick_5">
     <g id="line2d_5">
      <path d="M 489.079386 256.32 
L 489.079386 34.56 
" clip-path="url(#pfd3a9d203e)" style="fill: none; stroke: #ffffff; stroke-linecap: round"/>
     </g>
     <g id="text_5">
      <!-- 12.000 -->
      <g style="fill: #262626" transform="translate(475.934201 289.459279) rotate(-30) scale(0.11 -0.11)">
       <defs>
        <path id="ArialMT-31" d="M 2384 0 
L 1822 0 
L 1822 3584 
Q 1619 3391 1289 3197 
Q 959 3003 697 2906 
L 697 3450 
Q 1169 3672 1522 3987 
Q 1875 4303 2022 4600 
L 2384 4600 
L 2384 0 
z
" transform="scale(0.015625)"/>
        <path id="ArialMT-32" d="M 3222 541 
L 3222 0 
L 194 0 
Q 188 203 259 391 
Q 375 700 629 1000 
Q 884 1300 1366 1694 
Q 2113 2306 2375 2664 
Q 2638 3022 2638 3341 
Q 2638 3675 2398 3904 
Q 2159 4134 1775 4134 
Q 1369 4134 1125 3890 
Q 881 3647 878 3216 
L 300 3275 
Q 359 3922 746 4261 
Q 1134 4600 1788 4600 
Q 2447 4600 2831 4234 
Q 3216 3869 3216 3328 
Q 3216 3053 3103 2787 
Q 2991 2522 2730 2228 
Q 2469 1934 1863 1422 
Q 1356 997 1212 845 
Q 1069 694 975 541 
L 3222 541 
z
" transform="scale(0.015625)"/>
       </defs>
       <use xlink:href="#ArialMT-31"/>
       <use xlink:href="#ArialMT-32" x="55.615234"/>
       <use xlink:href="#ArialMT-2e" x="111.230469"/>
       <use xlink:href="#ArialMT-30" x="139.013672"/>
       <use xlink:href="#ArialMT-30" x="194.628906"/>
       <use xlink:href="#ArialMT-30" x="250.244141"/>
      </g>
     </g>
    </g>
    <g id="xtick_6">
     <g id="line2d_6">
      <path d="M 582.508324 256.32 
L 582.508324 34.56 
" clip-path="url(#pfd3a9d203e)" style="fill: none; stroke: #ffffff; stroke-linecap: round"/>
     </g>
     <g id="text_6">
      <!-- 15.000 -->
      <g style="fill: #262626" transform="translate(569.363139 289.459279) rotate(-30) scale(0.11 -0.11)">
       <defs>
        <path id="ArialMT-35" d="M 266 1200 
L 856 1250 
Q 922 819 1161 601 
Q 1400 384 1738 384 
Q 2144 384 2425 690 
Q 2706 997 2706 1503 
Q 2706 1984 2436 2262 
Q 2166 2541 1728 2541 
Q 1456 2541 1237 2417 
Q 1019 2294 894 2097 
L 366 2166 
L 809 4519 
L 3088 4519 
L 3088 3981 
L 1259 3981 
L 1013 2750 
Q 1425 3038 1878 3038 
Q 2478 3038 2890 2622 
Q 3303 2206 3303 1553 
Q 3303 931 2941 478 
Q 2500 -78 1738 -78 
Q 1113 -78 717 272 
Q 322 622 266 1200 
z
" transform="scale(0.015625)"/>
       </defs>
       <use xlink:href="#ArialMT-31"/>
       <use xlink:href="#ArialMT-35" x="55.615234"/>
       <use xlink:href="#ArialMT-2e" x="111.230469"/>
       <use xlink:href="#ArialMT-30" x="139.013672"/>
       <use xlink:href="#ArialMT-30" x="194.628906"/>
       <use xlink:href="#ArialMT-30" x="250.244141"/>
      </g>
     </g>
    </g>
    <g id="text_7">
     <!-- Hasil Produksi (Ton) -->
     <g style="fill: #262626" transform="translate(315.321563 315.088252) scale(0.12 -0.12)">
      <defs>
       <path id="ArialMT-48" d="M 513 0 
L 513 4581 
L 1119 4581 
L 1119 2700 
L 3500 2700 
L 3500 4581 
L 4106 4581 
L 4106 0 
L 3500 0 
L 3500 2159 
L 1119 2159 
L 1119 0 
L 513 0 
z
" transform="scale(0.015625)"/>
       <path id="ArialMT-61" d="M 2588 409 
Q 2275 144 1986 34 
Q 1697 -75 1366 -75 
Q 819 -75 525 192 
Q 231 459 231 875 
Q 231 1119 342 1320 
Q 453 1522 633 1644 
Q 813 1766 1038 1828 
Q 1203 1872 1538 1913 
Q 2219 1994 2541 2106 
Q 2544 2222 2544 2253 
Q 2544 2597 2384 2738 
Q 2169 2928 1744 2928 
Q 1347 2928 1158 2789 
Q 969 2650 878 2297 
L 328 2372 
Q 403 2725 575 2942 
Q 747 3159 1072 3276 
Q 1397 3394 1825 3394 
Q 2250 3394 2515 3294 
Q 2781 3194 2906 3042 
Q 3031 2891 3081 2659 
Q 3109 2516 3109 2141 
L 3109 1391 
Q 3109 606 3145 398 
Q 3181 191 3288 0 
L 2700 0 
Q 2613 175 2588 409 
z
M 2541 1666 
Q 2234 1541 1622 1453 
Q 1275 1403 1131 1340 
Q 988 1278 909 1158 
Q 831 1038 831 891 
Q 831 666 1001 516 
Q 1172 366 1500 366 
Q 1825 366 2078 508 
Q 2331 650 2450 897 
Q 2541 1088 2541 1459 
L 2541 1666 
z
" transform="scale(0.015625)"/>
       <path id="ArialMT-73" d="M 197 991 
L 753 1078 
Q 800 744 1014 566 
Q 1228 388 1613 388 
Q 2000 388 2187 545 
Q 2375 703 2375 916 
Q 2375 1106 2209 1216 
Q 2094 1291 1634 1406 
Q 1016 1563 777 1677 
Q 538 1791 414 1992 
Q 291 2194 291 2438 
Q 291 2659 392 2848 
Q 494 3038 669 3163 
Q 800 3259 1026 3326 
Q 1253 3394 1513 3394 
Q 1903 3394 2198 3281 
Q 2494 3169 2634 2976 
Q 2775 2784 2828 2463 
L 2278 2388 
Q 2241 2644 2061 2787 
Q 1881 2931 1553 2931 
Q 1166 2931 1000 2803 
Q 834 2675 834 2503 
Q 834 2394 903 2306 
Q 972 2216 1119 2156 
Q 1203 2125 1616 2013 
Q 2213 1853 2448 1751 
Q 2684 1650 2818 1456 
Q 2953 1263 2953 975 
Q 2953 694 2789 445 
Q 2625 197 2315 61 
Q 2006 -75 1616 -75 
Q 969 -75 630 194 
Q 291 463 197 991 
z
" transform="scale(0.015625)"/>
       <path id="ArialMT-69" d="M 425 3934 
L 425 4581 
L 988 4581 
L 988 3934 
L 425 3934 
z
M 425 0 
L 425 3319 
L 988 3319 
L 988 0 
L 425 0 
z
" transform="scale(0.015625)"/>
       <path id="ArialMT-6c" d="M 409 0 
L 409 4581 
L 972 4581 
L 972 0 
L 409 0 
z
" transform="scale(0.015625)"/>
       <path id="ArialMT-20" transform="scale(0.015625)"/>
       <path id="ArialMT-50" d="M 494 0 
L 494 4581 
L 2222 4581 
Q 2678 4581 2919 4538 
Q 3256 4481 3484 4323 
Q 3713 4166 3852 3881 
Q 3991 3597 3991 3256 
Q 3991 2672 3619 2267 
Q 3247 1863 2275 1863 
L 1100 1863 
L 1100 0 
L 494 0 
z
M 1100 2403 
L 2284 2403 
Q 2872 2403 3119 2622 
Q 3366 2841 3366 3238 
Q 3366 3525 3220 3729 
Q 3075 3934 2838 4000 
Q 2684 4041 2272 4041 
L 1100 4041 
L 1100 2403 
z
" transform="scale(0.015625)"/>
       <path id="ArialMT-72" d="M 416 0 
L 416 3319 
L 922 3319 
L 922 2816 
Q 1116 3169 1280 3281 
Q 1444 3394 1641 3394 
Q 1925 3394 2219 3213 
L 2025 2691 
Q 1819 2813 1613 2813 
Q 1428 2813 1281 2702 
Q 1134 2591 1072 2394 
Q 978 2094 978 1738 
L 978 0 
L 416 0 
z
" transform="scale(0.015625)"/>
       <path id="ArialMT-6f" d="M 213 1659 
Q 213 2581 725 3025 
Q 1153 3394 1769 3394 
Q 2453 3394 2887 2945 
Q 3322 2497 3322 1706 
Q 3322 1066 3130 698 
Q 2938 331 2570 128 
Q 2203 -75 1769 -75 
Q 1072 -75 642 372 
Q 213 819 213 1659 
z
M 791 1659 
Q 791 1022 1069 705 
Q 1347 388 1769 388 
Q 2188 388 2466 706 
Q 2744 1025 2744 1678 
Q 2744 2294 2464 2611 
Q 2184 2928 1769 2928 
Q 1347 2928 1069 2612 
Q 791 2297 791 1659 
z
" transform="scale(0.015625)"/>
       <path id="ArialMT-64" d="M 2575 0 
L 2575 419 
Q 2259 -75 1647 -75 
Q 1250 -75 917 144 
Q 584 363 401 755 
Q 219 1147 219 1656 
Q 219 2153 384 2558 
Q 550 2963 881 3178 
Q 1213 3394 1622 3394 
Q 1922 3394 2156 3267 
Q 2391 3141 2538 2938 
L 2538 4581 
L 3097 4581 
L 3097 0 
L 2575 0 
z
M 797 1656 
Q 797 1019 1065 703 
Q 1334 388 1700 388 
Q 2069 388 2326 689 
Q 2584 991 2584 1609 
Q 2584 2291 2321 2609 
Q 2059 2928 1675 2928 
Q 1300 2928 1048 2622 
Q 797 2316 797 1656 
z
" transform="scale(0.015625)"/>
       <path id="ArialMT-75" d="M 2597 0 
L 2597 488 
Q 2209 -75 1544 -75 
Q 1250 -75 995 37 
Q 741 150 617 320 
Q 494 491 444 738 
Q 409 903 409 1263 
L 409 3319 
L 972 3319 
L 972 1478 
Q 972 1038 1006 884 
Q 1059 663 1231 536 
Q 1403 409 1656 409 
Q 1909 409 2131 539 
Q 2353 669 2445 892 
Q 2538 1116 2538 1541 
L 2538 3319 
L 3100 3319 
L 3100 0 
L 2597 0 
z
" transform="scale(0.015625)"/>
       <path id="ArialMT-6b" d="M 425 0 
L 425 4581 
L 988 4581 
L 988 1969 
L 2319 3319 
L 3047 3319 
L 1778 2088 
L 3175 0 
L 2481 0 
L 1384 1697 
L 988 1316 
L 988 0 
L 425 0 
z
" transform="scale(0.015625)"/>
       <path id="ArialMT-28" d="M 1497 -1347 
Q 1031 -759 709 28 
Q 388 816 388 1659 
Q 388 2403 628 3084 
Q 909 3875 1497 4659 
L 1900 4659 
Q 1522 4009 1400 3731 
Q 1209 3300 1100 2831 
Q 966 2247 966 1656 
Q 966 153 1900 -1347 
L 1497 -1347 
z
" transform="scale(0.015625)"/>
       <path id="ArialMT-54" d="M 1659 0 
L 1659 4041 
L 150 4041 
L 150 4581 
L 3781 4581 
L 3781 4041 
L 2266 4041 
L 2266 0 
L 1659 0 
z
" transform="scale(0.015625)"/>
       <path id="ArialMT-6e" d="M 422 0 
L 422 3319 
L 928 3319 
L 928 2847 
Q 1294 3394 1984 3394 
Q 2284 3394 2536 3286 
Q 2788 3178 2913 3003 
Q 3038 2828 3088 2588 
Q 3119 2431 3119 2041 
L 3119 0 
L 2556 0 
L 2556 2019 
Q 2556 2363 2490 2533 
Q 2425 2703 2258 2804 
Q 2091 2906 1866 2906 
Q 1506 2906 1245 2678 
Q 984 2450 984 1813 
L 984 0 
L 422 0 
z
" transform="scale(0.015625)"/>
       <path id="ArialMT-29" d="M 791 -1347 
L 388 -1347 
Q 1322 153 1322 1656 
Q 1322 2244 1188 2822 
Q 1081 3291 891 3722 
Q 769 4003 388 4659 
L 791 4659 
Q 1378 3875 1659 3084 
Q 1900 2403 1900 1659 
Q 1900 816 1576 28 
Q 1253 -759 791 -1347 
z
" transform="scale(0.015625)"/>
      </defs>
      <use xlink:href="#ArialMT-48"/>
      <use xlink:href="#ArialMT-61" x="72.216797"/>
      <use xlink:href="#ArialMT-73" x="127.832031"/>
      <use xlink:href="#ArialMT-69" x="177.832031"/>
      <use xlink:href="#ArialMT-6c" x="200.048828"/>
      <use xlink:href="#ArialMT-20" x="222.265625"/>
      <use xlink:href="#ArialMT-50" x="250.048828"/>
      <use xlink:href="#ArialMT-72" x="316.748047"/>
      <use xlink:href="#ArialMT-6f" x="350.048828"/>
      <use xlink:href="#ArialMT-64" x="405.664062"/>
      <use xlink:href="#ArialMT-75" x="461.279297"/>
      <use xlink:href="#ArialMT-6b" x="516.894531"/>
      <use xlink:href="#ArialMT-73" x="566.894531"/>
      <use xlink:href="#ArialMT-69" x="616.894531"/>
      <use xlink:href="#ArialMT-20" x="639.111328"/>
      <use xlink:href="#ArialMT-28" x="666.894531"/>
      <use xlink:href="#ArialMT-54" x="700.195312"/>
      <use xlink:href="#ArialMT-6f" x="750.154297"/>
      <use xlink:href="#ArialMT-6e" x="805.769531"/>
      <use xlink:href="#ArialMT-29" x="861.384766"/>
     </g>
    </g>
   </g>
   <g id="matplotlib.axis_2">
    <g id="ytick_1">
     <g id="line2d_7">
      <path d="M 90 256.32 
L 648 256.32 
" clip-path="url(#pfd3a9d203e)" style="fill: none; stroke: #ffffff; stroke-linecap: round"/>
     </g>
     <g id="text_8">
      <!-- 0 -->
      <g style="fill: #262626" transform="translate(74.382969 260.256797) scale(0.11 -0.11)">
       <use xlink:href="#ArialMT-30"/>
      </g>
     </g>
    </g>
    <g id="ytick_2">
     <g id="line2d_8">
      <path d="M 90 245.489231 
L 648 245.489231 
" clip-path="url(#pfd3a9d203e)" style="fill: none; stroke: #ffffff; stroke-linecap: round"/>
     </g>
     <g id="text_9">
      <!-- 2 -->
      <g style="fill: #262626" transform="translate(74.382969 249.426028) scale(0.11 -0.11)">
       <use xlink:href="#ArialMT-32"/>
      </g>
     </g>
    </g>
    <g id="ytick_3">
     <g id="line2d_9">
      <path d="M 90 234.658462 
L 648 234.658462 
" clip-path="url(#pfd3a9d203e)" style="fill: none; stroke: #ffffff; stroke-linecap: round"/>
     </g>
     <g id="text_10">
      <!-- 4 -->
      <g style="fill: #262626" transform="translate(74.382969 238.595258) scale(0.11 -0.11)">
       <defs>
        <path id="ArialMT-34" d="M 2069 0 
L 2069 1097 
L 81 1097 
L 81 1613 
L 2172 4581 
L 2631 4581 
L 2631 1613 
L 3250 1613 
L 3250 1097 
L 2631 1097 
L 2631 0 
L 2069 0 
z
M 2069 1613 
L 2069 3678 
L 634 1613 
L 2069 1613 
z
" transform="scale(0.015625)"/>
       </defs>
       <use xlink:href="#ArialMT-34"/>
      </g>
     </g>
    </g>
    <g id="ytick_4">
     <g id="line2d_10">
      <path d="M 90 223.827692 
L 648 223.827692 
" clip-path="url(#pfd3a9d203e)" style="fill: none; stroke: #ffffff; stroke-linecap: round"/>
     </g>
     <g id="text_11">
      <!-- 6 -->
      <g style="fill: #262626" transform="translate(74.382969 227.764489) scale(0.11 -0.11)">
       <use xlink:href="#ArialMT-36"/>
      </g>
     </g>
    </g>
    <g id="ytick_5">
     <g id="line2d_11">
      <path d="M 90 212.996923 
L 648 212.996923 
" clip-path="url(#pfd3a9d203e)" style="fill: none; stroke: #ffffff; stroke-linecap: round"/>
     </g>
     <g id="text_12">
      <!-- 8 -->
      <g style="fill: #262626" transform="translate(74.382969 216.93372) scale(0.11 -0.11)">
       <defs>
        <path id="ArialMT-38" d="M 1131 2484 
Q 781 2613 612 2850 
Q 444 3088 444 3419 
Q 444 3919 803 4259 
Q 1163 4600 1759 4600 
Q 2359 4600 2725 4251 
Q 3091 3903 3091 3403 
Q 3091 3084 2923 2848 
Q 2756 2613 2416 2484 
Q 2838 2347 3058 2040 
Q 3278 1734 3278 1309 
Q 3278 722 2862 322 
Q 2447 -78 1769 -78 
Q 1091 -78 675 323 
Q 259 725 259 1325 
Q 259 1772 486 2073 
Q 713 2375 1131 2484 
z
M 1019 3438 
Q 1019 3113 1228 2906 
Q 1438 2700 1772 2700 
Q 2097 2700 2305 2904 
Q 2513 3109 2513 3406 
Q 2513 3716 2298 3927 
Q 2084 4138 1766 4138 
Q 1444 4138 1231 3931 
Q 1019 3725 1019 3438 
z
M 838 1322 
Q 838 1081 952 856 
Q 1066 631 1291 507 
Q 1516 384 1775 384 
Q 2178 384 2440 643 
Q 2703 903 2703 1303 
Q 2703 1709 2433 1975 
Q 2163 2241 1756 2241 
Q 1359 2241 1098 1978 
Q 838 1716 838 1322 
z
" transform="scale(0.015625)"/>
       </defs>
       <use xlink:href="#ArialMT-38"/>
      </g>
     </g>
    </g>
    <g id="ytick_6">
     <g id="line2d_12">
      <path d="M 90 202.166154 
L 648 202.166154 
" clip-path="url(#pfd3a9d203e)" style="fill: none; stroke: #ffffff; stroke-linecap: round"/>
     </g>
     <g id="text_13">
      <!-- 10 -->
      <g style="fill: #262626" transform="translate(68.265938 206.102951) scale(0.11 -0.11)">
       <use xlink:href="#ArialMT-31"/>
       <use xlink:href="#ArialMT-30" x="55.615234"/>
      </g>
     </g>
    </g>
    <g id="ytick_7">
     <g id="line2d_13">
      <path d="M 90 191.335385 
L 648 191.335385 
" clip-path="url(#pfd3a9d203e)" style="fill: none; stroke: #ffffff; stroke-linecap: round"/>
     </g>
     <g id="text_14">
      <!-- 12 -->
      <g style="fill: #262626" transform="translate(68.265938 195.272181) scale(0.11 -0.11)">
       <use xlink:href="#ArialMT-31"/>
       <use xlink:href="#ArialMT-32" x="55.615234"/>
      </g>
     </g>
    </g>
    <g id="ytick_8">
     <g id="line2d_14">
      <path d="M 90 180.504615 
L 648 180.504615 
" clip-path="url(#pfd3a9d203e)" style="fill: none; stroke: #ffffff; stroke-linecap: round"/>
     </g>
     <g id="text_15">
      <!-- 14 -->
      <g style="fill: #262626" transform="translate(68.265938 184.441412) scale(0.11 -0.11)">
       <use xlink:href="#ArialMT-31"/>
       <use xlink:href="#ArialMT-34" x="55.615234"/>
      </g>
     </g>
    </g>
    <g id="ytick_9">
     <g id="line2d_15">
      <path d="M 90 169.673846 
L 648 169.673846 
" clip-path="url(#pfd3a9d203e)" style="fill: none; stroke: #ffffff; stroke-linecap: round"/>
     </g>
     <g id="text_16">
      <!-- 16 -->
      <g style="fill: #262626" transform="translate(68.265938 173.610643) scale(0.11 -0.11)">
       <use xlink:href="#ArialMT-31"/>
       <use xlink:href="#ArialMT-36" x="55.615234"/>
      </g>
     </g>
    </g>
    <g id="ytick_10">
     <g id="line2d_16">
      <path d="M 90 158.843077 
L 648 158.843077 
" clip-path="url(#pfd3a9d203e)" style="fill: none; stroke: #ffffff; stroke-linecap: round"/>
     </g>
     <g id="text_17">
      <!-- 18 -->
      <g style="fill: #262626" transform="translate(68.265938 162.779874) scale(0.11 -0.11)">
       <use xlink:href="#ArialMT-31"/>
       <use xlink:href="#ArialMT-38" x="55.615234"/>
      </g>
     </g>
    </g>
    <g id="ytick_11">
     <g id="line2d_17">
      <path d="M 90 148.012308 
L 648 148.012308 
" clip-path="url(#pfd3a9d203e)" style="fill: none; stroke: #ffffff; stroke-linecap: round"/>
     </g>
     <g id="text_18">
      <!-- 20 -->
      <g style="fill: #262626" transform="translate(68.265938 151.949105) scale(0.11 -0.11)">
       <use xlink:href="#ArialMT-32"/>
       <use xlink:href="#ArialMT-30" x="55.615234"/>
      </g>
     </g>
    </g>
    <g id="text_19">
     <!-- Count Unit -->
     <g style="fill: #262626" transform="translate(50.880938 173.78625) rotate(-90) scale(0.12 -0.12)">
      <defs>
       <path id="ArialMT-43" d="M 3763 1606 
L 4369 1453 
Q 4178 706 3683 314 
Q 3188 -78 2472 -78 
Q 1731 -78 1267 223 
Q 803 525 561 1097 
Q 319 1669 319 2325 
Q 319 3041 592 3573 
Q 866 4106 1370 4382 
Q 1875 4659 2481 4659 
Q 3169 4659 3637 4309 
Q 4106 3959 4291 3325 
L 3694 3184 
Q 3534 3684 3231 3912 
Q 2928 4141 2469 4141 
Q 1941 4141 1586 3887 
Q 1231 3634 1087 3207 
Q 944 2781 944 2328 
Q 944 1744 1114 1308 
Q 1284 872 1643 656 
Q 2003 441 2422 441 
Q 2931 441 3284 734 
Q 3638 1028 3763 1606 
z
" transform="scale(0.015625)"/>
       <path id="ArialMT-74" d="M 1650 503 
L 1731 6 
Q 1494 -44 1306 -44 
Q 1000 -44 831 53 
Q 663 150 594 308 
Q 525 466 525 972 
L 525 2881 
L 113 2881 
L 113 3319 
L 525 3319 
L 525 4141 
L 1084 4478 
L 1084 3319 
L 1650 3319 
L 1650 2881 
L 1084 2881 
L 1084 941 
Q 1084 700 1114 631 
Q 1144 563 1211 522 
Q 1278 481 1403 481 
Q 1497 481 1650 503 
z
" transform="scale(0.015625)"/>
       <path id="ArialMT-55" d="M 3500 4581 
L 4106 4581 
L 4106 1934 
Q 4106 1244 3950 837 
Q 3794 431 3386 176 
Q 2978 -78 2316 -78 
Q 1672 -78 1262 144 
Q 853 366 678 786 
Q 503 1206 503 1934 
L 503 4581 
L 1109 4581 
L 1109 1938 
Q 1109 1341 1220 1058 
Q 1331 775 1601 622 
Q 1872 469 2263 469 
Q 2931 469 3215 772 
Q 3500 1075 3500 1938 
L 3500 4581 
z
" transform="scale(0.015625)"/>
      </defs>
      <use xlink:href="#ArialMT-43"/>
      <use xlink:href="#ArialMT-6f" x="72.216797"/>
      <use xlink:href="#ArialMT-75" x="127.832031"/>
      <use xlink:href="#ArialMT-6e" x="183.447266"/>
      <use xlink:href="#ArialMT-74" x="239.0625"/>
      <use xlink:href="#ArialMT-20" x="266.845703"/>
      <use xlink:href="#ArialMT-55" x="294.628906"/>
      <use xlink:href="#ArialMT-6e" x="366.845703"/>
      <use xlink:href="#ArialMT-69" x="422.460938"/>
      <use xlink:href="#ArialMT-74" x="444.677734"/>
     </g>
    </g>
   </g>
   <g id="patch_3">
    <path d="M 115.363636 256.32 
L 208.792574 256.32 
L 208.792574 115.52 
L 115.363636 115.52 
z
" clip-path="url(#pfd3a9d203e)" style="fill: #55a868; fill-opacity: 0.5; stroke: #ffffff; stroke-linejoin: miter"/>
   </g>
   <g id="patch_4">
    <path d="M 208.792574 256.32 
L 302.221511 256.32 
L 302.221511 158.843077 
L 208.792574 158.843077 
z
" clip-path="url(#pfd3a9d203e)" style="fill: #55a868; fill-opacity: 0.5; stroke: #ffffff; stroke-linejoin: miter"/>
   </g>
   <g id="patch_5">
    <path d="M 302.221511 256.32 
L 395.650449 256.32 
L 395.650449 234.658462 
L 302.221511 234.658462 
z
" clip-path="url(#pfd3a9d203e)" style="fill: #55a868; fill-opacity: 0.5; stroke: #ffffff; stroke-linejoin: miter"/>
   </g>
   <g id="patch_6">
    <path d="M 395.650449 256.32 
L 489.079386 256.32 
L 489.079386 256.32 
L 395.650449 256.32 
z
" clip-path="url(#pfd3a9d203e)" style="fill: #55a868; fill-opacity: 0.5; stroke: #ffffff; stroke-linejoin: miter"/>
   </g>
   <g id="patch_7">
    <path d="M 489.079386 256.32 
L 582.508324 256.32 
L 582.508324 256.32 
L 489.079386 256.32 
z
" clip-path="url(#pfd3a9d203e)" style="fill: #55a868; fill-opacity: 0.5; stroke: #ffffff; stroke-linejoin: miter"/>
   </g>
   <g id="patch_8">
    <path d="M 115.363636 256.32 
L 208.792574 256.32 
L 208.792574 169.673846 
L 115.363636 169.673846 
z
" clip-path="url(#pfd3a9d203e)" style="fill: #dd8452; fill-opacity: 0.5; stroke: #ffffff; stroke-linejoin: miter"/>
   </g>
   <g id="patch_9">
    <path d="M 208.792574 256.32 
L 302.221511 256.32 
L 302.221511 153.427692 
L 208.792574 153.427692 
z
" clip-path="url(#pfd3a9d203e)" style="fill: #dd8452; fill-opacity: 0.5; stroke: #ffffff; stroke-linejoin: miter"/>
   </g>
   <g id="patch_10">
    <path d="M 302.221511 256.32 
L 395.650449 256.32 
L 395.650449 45.12 
L 302.221511 45.12 
z
" clip-path="url(#pfd3a9d203e)" style="fill: #dd8452; fill-opacity: 0.5; stroke: #ffffff; stroke-linejoin: miter"/>
   </g>
   <g id="patch_11">
    <path d="M 395.650449 256.32 
L 489.079386 256.32 
L 489.079386 196.750769 
L 395.650449 196.750769 
z
" clip-path="url(#pfd3a9d203e)" style="fill: #dd8452; fill-opacity: 0.5; stroke: #ffffff; stroke-linejoin: miter"/>
   </g>
   <g id="patch_12">
    <path d="M 489.079386 256.32 
L 582.508324 256.32 
L 582.508324 256.32 
L 489.079386 256.32 
z
" clip-path="url(#pfd3a9d203e)" style="fill: #dd8452; fill-opacity: 0.5; stroke: #ffffff; stroke-linejoin: miter"/>
   </g>
   <g id="patch_13">
    <path d="M 115.363636 256.32 
L 208.792574 256.32 
L 208.792574 207.581538 
L 115.363636 207.581538 
z
" clip-path="url(#pfd3a9d203e)" style="fill: #4c72b0; fill-opacity: 0.5; stroke: #ffffff; stroke-linejoin: miter"/>
   </g>
   <g id="patch_14">
    <path d="M 208.792574 256.32 
L 302.221511 256.32 
L 302.221511 202.166154 
L 208.792574 202.166154 
z
" clip-path="url(#pfd3a9d203e)" style="fill: #4c72b0; fill-opacity: 0.5; stroke: #ffffff; stroke-linejoin: miter"/>
   </g>
   <g id="patch_15">
    <path d="M 302.221511 256.32 
L 395.650449 256.32 
L 395.650449 234.658462 
L 302.221511 234.658462 
z
" clip-path="url(#pfd3a9d203e)" style="fill: #4c72b0; fill-opacity: 0.5; stroke: #ffffff; stroke-linejoin: miter"/>
   </g>
   <g id="patch_16">
    <path d="M 395.650449 256.32 
L 489.079386 256.32 
L 489.079386 218.412308 
L 395.650449 218.412308 
z
" clip-path="url(#pfd3a9d203e)" style="fill: #4c72b0; fill-opacity: 0.5; stroke: #ffffff; stroke-linejoin: miter"/>
   </g>
   <g id="patch_17">
    <path d="M 489.079386 256.32 
L 582.508324 256.32 
L 582.508324 223.827692 
L 489.079386 223.827692 
z
" clip-path="url(#pfd3a9d203e)" style="fill: #4c72b0; fill-opacity: 0.5; stroke: #ffffff; stroke-linejoin: miter"/>
   </g>
   <g id="line2d_18">
    <path d="M 115.363636 140.009442 
L 117.912746 137.983054 
L 120.461855 136.429918 
L 123.010964 135.353577 
L 125.560073 134.749816 
L 128.109182 134.606909 
L 130.658291 134.906066 
L 133.207401 135.622046 
L 135.75651 136.723916 
L 138.305619 138.175912 
L 140.854728 139.938385 
L 143.403837 141.96879 
L 145.952947 144.222668 
L 151.051165 149.219231 
L 166.34582 165.035884 
L 168.894929 167.405616 
L 171.444038 169.622804 
L 173.993148 171.667166 
L 176.542257 173.522221 
L 179.091366 175.175218 
L 181.640475 176.617028 
L 184.189584 177.841997 
L 186.738693 178.847783 
L 189.287803 179.635174 
L 191.836912 180.207888 
L 194.386021 180.57236 
L 196.93513 180.737515 
L 199.484239 180.71452 
L 202.033349 180.51652 
L 204.582458 180.158358 
L 207.131567 179.656267 
L 212.229785 178.290258 
L 217.328004 176.563692 
L 224.975331 173.614753 
L 235.171768 169.680319 
L 240.269986 167.932248 
L 245.368205 166.417595 
L 250.466423 165.178213 
L 255.564641 164.246484 
L 260.66286 163.654909 
L 265.761078 163.444686 
L 268.310187 163.49926 
L 270.859296 163.671126 
L 273.408406 163.969512 
L 275.957515 164.404316 
L 278.506624 164.985831 
L 281.055733 165.724404 
L 283.604842 166.630044 
L 286.153952 167.711989 
L 288.703061 168.978256 
L 291.25217 170.435204 
L 293.801279 172.087113 
L 296.350388 173.935821 
L 298.899497 175.980417 
L 301.448607 178.217021 
L 303.997716 180.638658 
L 306.546825 183.235226 
L 311.645043 188.89768 
L 316.743262 195.066427 
L 324.390589 204.883586 
L 332.037917 214.788986 
L 337.136135 221.122457 
L 342.234354 227.048367 
L 347.332572 232.442395 
L 349.881681 234.912484 
L 352.43079 237.222015 
L 354.979899 239.367302 
L 357.529009 241.347109 
L 360.078118 243.16246 
L 362.627227 244.816401 
L 365.176336 246.313749 
L 367.725445 247.660812 
L 370.274555 248.865106 
L 372.823664 249.935085 
L 377.921882 251.70897 
L 383.020101 253.059044 
L 388.118319 254.0619 
L 393.216537 254.789105 
L 398.314756 255.303962 
L 405.962083 255.79222 
L 416.15852 256.115583 
L 431.453175 256.278106 
L 467.140704 256.319517 
L 622.636364 256.32 
L 622.636364 256.32 
" clip-path="url(#pfd3a9d203e)" style="fill: none; stroke: #55a868; stroke-width: 1.5; stroke-linecap: round"/>
   </g>
   <g id="line2d_19">
    <path d="M 115.363636 209.488474 
L 123.010964 202.432889 
L 128.109182 197.934803 
L 133.207401 193.694641 
L 138.305619 189.779321 
L 143.403837 186.239379 
L 148.502056 183.105498 
L 153.600274 180.386148 
L 158.698492 178.066683 
L 163.796711 176.110167 
L 168.894929 174.460035 
L 173.993148 173.044508 
L 181.640475 171.182742 
L 194.386021 168.108288 
L 199.484239 166.696829 
L 204.582458 165.11903 
L 209.680676 163.358324 
L 214.778894 161.414044 
L 219.877113 159.296606 
L 227.52444 155.827947 
L 235.171768 152.033944 
L 240.269986 149.311594 
L 245.368205 146.400076 
L 250.466423 143.247973 
L 255.564641 139.787813 
L 260.66286 135.942676 
L 265.761078 131.635791 
L 270.859296 126.802271 
L 275.957515 121.40178 
L 281.055733 115.430694 
L 286.153952 108.932226 
L 291.25217 102.003028 
L 309.095934 76.992499 
L 311.645043 73.731803 
L 314.194153 70.653043 
L 316.743262 67.790916 
L 319.292371 65.178681 
L 321.84148 62.847495 
L 324.390589 60.825781 
L 326.939698 59.138642 
L 329.488808 57.807353 
L 332.037917 56.848924 
L 334.587026 56.27577 
L 337.136135 56.09548 
L 339.685244 56.310695 
L 342.234354 56.919116 
L 344.783463 57.913608 
L 347.332572 59.282436 
L 349.881681 61.009589 
L 352.43079 63.075217 
L 354.979899 65.456135 
L 357.529009 68.126405 
L 360.078118 71.057966 
L 362.627227 74.221298 
L 367.725445 81.121943 
L 372.823664 88.588389 
L 380.470991 100.371915 
L 395.765646 124.141728 
L 405.962083 139.437089 
L 446.74783 199.521766 
L 451.846048 206.702838 
L 456.944267 213.559457 
L 462.042485 219.993668 
L 467.140704 225.920581 
L 472.238922 231.275382 
L 474.788031 233.724599 
L 477.33714 236.017659 
L 479.886249 238.153561 
L 482.435359 240.132862 
L 484.984468 241.957585 
L 487.533577 243.631096 
L 490.082686 245.157965 
L 492.631795 246.5438 
L 495.180905 247.795086 
L 500.279123 249.923261 
L 505.377341 251.605277 
L 510.47556 252.907261 
L 515.573778 253.894336 
L 520.671996 254.627302 
L 525.770215 255.160427 
L 533.417542 255.685075 
L 541.06487 255.98669 
L 553.810416 256.21638 
L 576.752398 256.310624 
L 622.636364 256.319976 
L 622.636364 256.319976 
" clip-path="url(#pfd3a9d203e)" style="fill: none; stroke: #dd8452; stroke-width: 1.5; stroke-linecap: round"/>
   </g>
   <g id="line2d_20">
    <path d="M 115.363636 232.992955 
L 135.75651 228.082284 
L 148.502056 225.261814 
L 158.698492 223.23385 
L 168.894929 221.462844 
L 176.542257 220.327955 
L 184.189584 219.373673 
L 191.836912 218.609215 
L 199.484239 218.039689 
L 207.131567 217.665984 
L 214.778894 217.484809 
L 222.426222 217.488848 
L 230.07355 217.667056 
L 240.269986 218.150305 
L 250.466423 218.875521 
L 263.211969 220.048082 
L 278.506624 221.708598 
L 314.194153 225.705149 
L 326.939698 226.896639 
L 339.685244 227.863125 
L 352.43079 228.570873 
L 365.176336 229.007446 
L 377.921882 229.180675 
L 390.667428 229.116342 
L 405.962083 228.783094 
L 423.805847 228.15442 
L 472.238922 226.314157 
L 487.533577 225.998922 
L 502.828232 225.916686 
L 515.573778 226.057277 
L 528.319324 226.410381 
L 541.06487 226.993989 
L 553.810416 227.822647 
L 566.555962 228.905593 
L 579.301508 230.24401 
L 592.047053 231.828072 
L 604.792599 233.634634 
L 620.087254 236.042662 
L 622.636364 236.463935 
L 622.636364 236.463935 
" clip-path="url(#pfd3a9d203e)" style="fill: none; stroke: #4c72b0; stroke-width: 1.5; stroke-linecap: round"/>
   </g>
   <g id="LineCollection_1">
    <path d="M 283.727815 256.32 
L 283.727815 142.596923 
" clip-path="url(#pfd3a9d203e)" style="fill: none; stroke-dasharray: 5.55,2.4; stroke-dashoffset: 0; stroke: #ff0000; stroke-width: 1.5"/>
   </g>
   <g id="patch_18">
    <path d="M 90 256.32 
L 90 34.56 
" style="fill: none; stroke: #ffffff; stroke-width: 1.25; stroke-linejoin: miter; stroke-linecap: square"/>
   </g>
   <g id="patch_19">
    <path d="M 648 256.32 
L 648 34.56 
" style="fill: none; stroke: #ffffff; stroke-width: 1.25; stroke-linejoin: miter; stroke-linecap: square"/>
   </g>
   <g id="patch_20">
    <path d="M 90 256.32 
L 648 256.32 
" style="fill: none; stroke: #ffffff; stroke-width: 1.25; stroke-linejoin: miter; stroke-linecap: square"/>
   </g>
   <g id="patch_21">
    <path d="M 90 34.56 
L 648 34.56 
" style="fill: none; stroke: #ffffff; stroke-width: 1.25; stroke-linejoin: miter; stroke-linecap: square"/>
   </g>
   <g id="text_20">
    <!-- Histogram Hasil Produksi Periode 2023 - 2024 Per Equipment Name -->
    <g style="fill: #262626" transform="translate(140.984766 19.56) scale(0.15 -0.15)">
     <defs>
      <path id="ArialMT-67" d="M 319 -275 
L 866 -356 
Q 900 -609 1056 -725 
Q 1266 -881 1628 -881 
Q 2019 -881 2231 -725 
Q 2444 -569 2519 -288 
Q 2563 -116 2559 434 
Q 2191 0 1641 0 
Q 956 0 581 494 
Q 206 988 206 1678 
Q 206 2153 378 2554 
Q 550 2956 876 3175 
Q 1203 3394 1644 3394 
Q 2231 3394 2613 2919 
L 2613 3319 
L 3131 3319 
L 3131 450 
Q 3131 -325 2973 -648 
Q 2816 -972 2473 -1159 
Q 2131 -1347 1631 -1347 
Q 1038 -1347 672 -1080 
Q 306 -813 319 -275 
z
M 784 1719 
Q 784 1066 1043 766 
Q 1303 466 1694 466 
Q 2081 466 2343 764 
Q 2606 1063 2606 1700 
Q 2606 2309 2336 2618 
Q 2066 2928 1684 2928 
Q 1309 2928 1046 2623 
Q 784 2319 784 1719 
z
" transform="scale(0.015625)"/>
      <path id="ArialMT-6d" d="M 422 0 
L 422 3319 
L 925 3319 
L 925 2853 
Q 1081 3097 1340 3245 
Q 1600 3394 1931 3394 
Q 2300 3394 2536 3241 
Q 2772 3088 2869 2813 
Q 3263 3394 3894 3394 
Q 4388 3394 4653 3120 
Q 4919 2847 4919 2278 
L 4919 0 
L 4359 0 
L 4359 2091 
Q 4359 2428 4304 2576 
Q 4250 2725 4106 2815 
Q 3963 2906 3769 2906 
Q 3419 2906 3187 2673 
Q 2956 2441 2956 1928 
L 2956 0 
L 2394 0 
L 2394 2156 
Q 2394 2531 2256 2718 
Q 2119 2906 1806 2906 
Q 1569 2906 1367 2781 
Q 1166 2656 1075 2415 
Q 984 2175 984 1722 
L 984 0 
L 422 0 
z
" transform="scale(0.015625)"/>
      <path id="ArialMT-65" d="M 2694 1069 
L 3275 997 
Q 3138 488 2766 206 
Q 2394 -75 1816 -75 
Q 1088 -75 661 373 
Q 234 822 234 1631 
Q 234 2469 665 2931 
Q 1097 3394 1784 3394 
Q 2450 3394 2872 2941 
Q 3294 2488 3294 1666 
Q 3294 1616 3291 1516 
L 816 1516 
Q 847 969 1125 678 
Q 1403 388 1819 388 
Q 2128 388 2347 550 
Q 2566 713 2694 1069 
z
M 847 1978 
L 2700 1978 
Q 2663 2397 2488 2606 
Q 2219 2931 1791 2931 
Q 1403 2931 1139 2672 
Q 875 2413 847 1978 
z
" transform="scale(0.015625)"/>
      <path id="ArialMT-2d" d="M 203 1375 
L 203 1941 
L 1931 1941 
L 1931 1375 
L 203 1375 
z
" transform="scale(0.015625)"/>
      <path id="ArialMT-45" d="M 506 0 
L 506 4581 
L 3819 4581 
L 3819 4041 
L 1113 4041 
L 1113 2638 
L 3647 2638 
L 3647 2100 
L 1113 2100 
L 1113 541 
L 3925 541 
L 3925 0 
L 506 0 
z
" transform="scale(0.015625)"/>
      <path id="ArialMT-71" d="M 2538 -1272 
L 2538 353 
Q 2406 169 2170 47 
Q 1934 -75 1669 -75 
Q 1078 -75 651 397 
Q 225 869 225 1691 
Q 225 2191 398 2587 
Q 572 2984 901 3189 
Q 1231 3394 1625 3394 
Q 2241 3394 2594 2875 
L 2594 3319 
L 3100 3319 
L 3100 -1272 
L 2538 -1272 
z
M 803 1669 
Q 803 1028 1072 708 
Q 1341 388 1716 388 
Q 2075 388 2334 692 
Q 2594 997 2594 1619 
Q 2594 2281 2320 2615 
Q 2047 2950 1678 2950 
Q 1313 2950 1058 2639 
Q 803 2328 803 1669 
z
" transform="scale(0.015625)"/>
      <path id="ArialMT-70" d="M 422 -1272 
L 422 3319 
L 934 3319 
L 934 2888 
Q 1116 3141 1344 3267 
Q 1572 3394 1897 3394 
Q 2322 3394 2647 3175 
Q 2972 2956 3137 2557 
Q 3303 2159 3303 1684 
Q 3303 1175 3120 767 
Q 2938 359 2589 142 
Q 2241 -75 1856 -75 
Q 1575 -75 1351 44 
Q 1128 163 984 344 
L 984 -1272 
L 422 -1272 
z
M 931 1641 
Q 931 1000 1190 694 
Q 1450 388 1819 388 
Q 2194 388 2461 705 
Q 2728 1022 2728 1688 
Q 2728 2322 2467 2637 
Q 2206 2953 1844 2953 
Q 1484 2953 1207 2617 
Q 931 2281 931 1641 
z
" transform="scale(0.015625)"/>
      <path id="ArialMT-4e" d="M 488 0 
L 488 4581 
L 1109 4581 
L 3516 984 
L 3516 4581 
L 4097 4581 
L 4097 0 
L 3475 0 
L 1069 3600 
L 1069 0 
L 488 0 
z
" transform="scale(0.015625)"/>
     </defs>
     <use xlink:href="#ArialMT-48"/>
     <use xlink:href="#ArialMT-69" x="72.216797"/>
     <use xlink:href="#ArialMT-73" x="94.433594"/>
     <use xlink:href="#ArialMT-74" x="144.433594"/>
     <use xlink:href="#ArialMT-6f" x="172.216797"/>
     <use xlink:href="#ArialMT-67" x="227.832031"/>
     <use xlink:href="#ArialMT-72" x="283.447266"/>
     <use xlink:href="#ArialMT-61" x="316.748047"/>
     <use xlink:href="#ArialMT-6d" x="372.363281"/>
     <use xlink:href="#ArialMT-20" x="455.664062"/>
     <use xlink:href="#ArialMT-48" x="483.447266"/>
     <use xlink:href="#ArialMT-61" x="555.664062"/>
     <use xlink:href="#ArialMT-73" x="611.279297"/>
     <use xlink:href="#ArialMT-69" x="661.279297"/>
     <use xlink:href="#ArialMT-6c" x="683.496094"/>
     <use xlink:href="#ArialMT-20" x="705.712891"/>
     <use xlink:href="#ArialMT-50" x="733.496094"/>
     <use xlink:href="#ArialMT-72" x="800.195312"/>
     <use xlink:href="#ArialMT-6f" x="833.496094"/>
     <use xlink:href="#ArialMT-64" x="889.111328"/>
     <use xlink:href="#ArialMT-75" x="944.726562"/>
     <use xlink:href="#ArialMT-6b" x="1000.341797"/>
     <use xlink:href="#ArialMT-73" x="1050.341797"/>
     <use xlink:href="#ArialMT-69" x="1100.341797"/>
     <use xlink:href="#ArialMT-20" x="1122.558594"/>
     <use xlink:href="#ArialMT-50" x="1150.341797"/>
     <use xlink:href="#ArialMT-65" x="1217.041016"/>
     <use xlink:href="#ArialMT-72" x="1272.65625"/>
     <use xlink:href="#ArialMT-69" x="1305.957031"/>
     <use xlink:href="#ArialMT-6f" x="1328.173828"/>
     <use xlink:href="#ArialMT-64" x="1383.789062"/>
     <use xlink:href="#ArialMT-65" x="1439.404297"/>
     <use xlink:href="#ArialMT-20" x="1495.019531"/>
     <use xlink:href="#ArialMT-32" x="1522.802734"/>
     <use xlink:href="#ArialMT-30" x="1578.417969"/>
     <use xlink:href="#ArialMT-32" x="1634.033203"/>
     <use xlink:href="#ArialMT-33" x="1689.648438"/>
     <use xlink:href="#ArialMT-20" x="1745.263672"/>
     <use xlink:href="#ArialMT-2d" x="1773.046875"/>
     <use xlink:href="#ArialMT-20" x="1806.347656"/>
     <use xlink:href="#ArialMT-32" x="1834.130859"/>
     <use xlink:href="#ArialMT-30" x="1889.746094"/>
     <use xlink:href="#ArialMT-32" x="1945.361328"/>
     <use xlink:href="#ArialMT-34" x="2000.976562"/>
     <use xlink:href="#ArialMT-20" x="2056.591797"/>
     <use xlink:href="#ArialMT-50" x="2084.375"/>
     <use xlink:href="#ArialMT-65" x="2151.074219"/>
     <use xlink:href="#ArialMT-72" x="2206.689453"/>
     <use xlink:href="#ArialMT-20" x="2239.990234"/>
     <use xlink:href="#ArialMT-45" x="2267.773438"/>
     <use xlink:href="#ArialMT-71" x="2334.472656"/>
     <use xlink:href="#ArialMT-75" x="2390.087891"/>
     <use xlink:href="#ArialMT-69" x="2445.703125"/>
     <use xlink:href="#ArialMT-70" x="2467.919922"/>
     <use xlink:href="#ArialMT-6d" x="2523.535156"/>
     <use xlink:href="#ArialMT-65" x="2606.835938"/>
     <use xlink:href="#ArialMT-6e" x="2662.451172"/>
     <use xlink:href="#ArialMT-74" x="2718.066406"/>
     <use xlink:href="#ArialMT-20" x="2745.849609"/>
     <use xlink:href="#ArialMT-4e" x="2773.632812"/>
     <use xlink:href="#ArialMT-61" x="2845.849609"/>
     <use xlink:href="#ArialMT-6d" x="2901.464844"/>
     <use xlink:href="#ArialMT-65" x="2984.765625"/>
    </g>
   </g>
   <g id="legend_1">
    <g id="patch_22">
     <path d="M 476.029844 107.9225 
L 642.3 107.9225 
Q 644.5 107.9225 644.5 105.7225 
L 644.5 44.26 
Q 644.5 42.06 642.3 42.06 
L 476.029844 42.06 
Q 473.829844 42.06 473.829844 44.26 
L 473.829844 105.7225 
Q 473.829844 107.9225 476.029844 107.9225 
z
" style="fill: #4c4b47; opacity: 0.5; stroke: #4c4b47; stroke-linejoin: miter"/>
    </g>
    <g id="patch_23">
     <path d="M 474.029844 105.9225 
L 640.3 105.9225 
Q 642.5 105.9225 642.5 103.7225 
L 642.5 42.26 
Q 642.5 40.06 640.3 40.06 
L 474.029844 40.06 
Q 471.829844 40.06 471.829844 42.26 
L 471.829844 103.7225 
Q 471.829844 105.9225 474.029844 105.9225 
z
" style="fill: #fff9ed; stroke: #cccccc; stroke-linejoin: miter"/>
    </g>
    <g id="line2d_21">
     <path d="M 476.229844 48.483594 
L 487.229844 48.483594 
L 498.229844 48.483594 
" style="fill: none; stroke: #55a868; stroke-width: 1.5; stroke-linecap: round"/>
    </g>
    <g id="text_21">
     <!-- Hino ZY -->
     <g style="fill: #262626" transform="translate(507.029844 52.333594) scale(0.11 -0.11)">
      <defs>
       <path id="ArialMT-5a" d="M 128 0 
L 128 563 
L 2475 3497 
Q 2725 3809 2950 4041 
L 394 4041 
L 394 4581 
L 3675 4581 
L 3675 4041 
L 1103 863 
L 825 541 
L 3750 541 
L 3750 0 
L 128 0 
z
" transform="scale(0.015625)"/>
       <path id="ArialMT-59" d="M 1784 0 
L 1784 1941 
L 19 4581 
L 756 4581 
L 1659 3200 
Q 1909 2813 2125 2425 
Q 2331 2784 2625 3234 
L 3513 4581 
L 4219 4581 
L 2391 1941 
L 2391 0 
L 1784 0 
z
" transform="scale(0.015625)"/>
      </defs>
      <use xlink:href="#ArialMT-48"/>
      <use xlink:href="#ArialMT-69" x="72.216797"/>
      <use xlink:href="#ArialMT-6e" x="94.433594"/>
      <use xlink:href="#ArialMT-6f" x="150.048828"/>
      <use xlink:href="#ArialMT-20" x="205.664062"/>
      <use xlink:href="#ArialMT-5a" x="233.447266"/>
      <use xlink:href="#ArialMT-59" x="294.53125"/>
     </g>
    </g>
    <g id="line2d_22">
     <path d="M 476.229844 64.076094 
L 487.229844 64.076094 
L 498.229844 64.076094 
" style="fill: none; stroke: #dd8452; stroke-width: 1.5; stroke-linecap: round"/>
    </g>
    <g id="text_22">
     <!-- Hongyan Kinkan 430 -->
     <g style="fill: #262626" transform="translate(507.029844 67.926094) scale(0.11 -0.11)">
      <defs>
       <path id="ArialMT-79" d="M 397 -1278 
L 334 -750 
Q 519 -800 656 -800 
Q 844 -800 956 -737 
Q 1069 -675 1141 -563 
Q 1194 -478 1313 -144 
Q 1328 -97 1363 -6 
L 103 3319 
L 709 3319 
L 1400 1397 
Q 1534 1031 1641 628 
Q 1738 1016 1872 1384 
L 2581 3319 
L 3144 3319 
L 1881 -56 
Q 1678 -603 1566 -809 
Q 1416 -1088 1222 -1217 
Q 1028 -1347 759 -1347 
Q 597 -1347 397 -1278 
z
" transform="scale(0.015625)"/>
       <path id="ArialMT-4b" d="M 469 0 
L 469 4581 
L 1075 4581 
L 1075 2309 
L 3350 4581 
L 4172 4581 
L 2250 2725 
L 4256 0 
L 3456 0 
L 1825 2319 
L 1075 1588 
L 1075 0 
L 469 0 
z
" transform="scale(0.015625)"/>
      </defs>
      <use xlink:href="#ArialMT-48"/>
      <use xlink:href="#ArialMT-6f" x="72.216797"/>
      <use xlink:href="#ArialMT-6e" x="127.832031"/>
      <use xlink:href="#ArialMT-67" x="183.447266"/>
      <use xlink:href="#ArialMT-79" x="239.0625"/>
      <use xlink:href="#ArialMT-61" x="289.0625"/>
      <use xlink:href="#ArialMT-6e" x="344.677734"/>
      <use xlink:href="#ArialMT-20" x="400.292969"/>
      <use xlink:href="#ArialMT-4b" x="428.076172"/>
      <use xlink:href="#ArialMT-69" x="494.775391"/>
      <use xlink:href="#ArialMT-6e" x="516.992188"/>
      <use xlink:href="#ArialMT-6b" x="572.607422"/>
      <use xlink:href="#ArialMT-61" x="622.607422"/>
      <use xlink:href="#ArialMT-6e" x="678.222656"/>
      <use xlink:href="#ArialMT-20" x="733.837891"/>
      <use xlink:href="#ArialMT-34" x="761.621094"/>
      <use xlink:href="#ArialMT-33" x="817.236328"/>
      <use xlink:href="#ArialMT-30" x="872.851562"/>
     </g>
    </g>
    <g id="line2d_23">
     <path d="M 476.229844 79.764844 
L 487.229844 79.764844 
L 498.229844 79.764844 
" style="fill: none; stroke: #4c72b0; stroke-width: 1.5; stroke-linecap: round"/>
    </g>
    <g id="text_23">
     <!-- Hino ZS -->
     <g style="fill: #262626" transform="translate(507.029844 83.614844) scale(0.11 -0.11)">
      <defs>
       <path id="ArialMT-53" d="M 288 1472 
L 859 1522 
Q 900 1178 1048 958 
Q 1197 738 1509 602 
Q 1822 466 2213 466 
Q 2559 466 2825 569 
Q 3091 672 3220 851 
Q 3350 1031 3350 1244 
Q 3350 1459 3225 1620 
Q 3100 1781 2813 1891 
Q 2628 1963 1997 2114 
Q 1366 2266 1113 2400 
Q 784 2572 623 2826 
Q 463 3081 463 3397 
Q 463 3744 659 4045 
Q 856 4347 1234 4503 
Q 1613 4659 2075 4659 
Q 2584 4659 2973 4495 
Q 3363 4331 3572 4012 
Q 3781 3694 3797 3291 
L 3216 3247 
Q 3169 3681 2898 3903 
Q 2628 4125 2100 4125 
Q 1550 4125 1298 3923 
Q 1047 3722 1047 3438 
Q 1047 3191 1225 3031 
Q 1400 2872 2139 2705 
Q 2878 2538 3153 2413 
Q 3553 2228 3743 1945 
Q 3934 1663 3934 1294 
Q 3934 928 3725 604 
Q 3516 281 3123 101 
Q 2731 -78 2241 -78 
Q 1619 -78 1198 103 
Q 778 284 539 648 
Q 300 1013 288 1472 
z
" transform="scale(0.015625)"/>
      </defs>
      <use xlink:href="#ArialMT-48"/>
      <use xlink:href="#ArialMT-69" x="72.216797"/>
      <use xlink:href="#ArialMT-6e" x="94.433594"/>
      <use xlink:href="#ArialMT-6f" x="150.048828"/>
      <use xlink:href="#ArialMT-20" x="205.664062"/>
      <use xlink:href="#ArialMT-5a" x="233.447266"/>
      <use xlink:href="#ArialMT-53" x="294.53125"/>
     </g>
    </g>
    <g id="line2d_24">
     <path d="M 476.229844 95.357344 
L 498.229844 95.357344 
" style="fill: none; stroke-dasharray: 5.55,2.4; stroke-dashoffset: 0; stroke: #ff0000; stroke-width: 1.5"/>
    </g>
    <g id="text_24">
     <!-- Avg. Produksi : 15.000 Ton -->
     <g style="fill: #262626" transform="translate(507.029844 99.207344) scale(0.11 -0.11)">
      <defs>
       <path id="ArialMT-41" d="M -9 0 
L 1750 4581 
L 2403 4581 
L 4278 0 
L 3588 0 
L 3053 1388 
L 1138 1388 
L 634 0 
L -9 0 
z
M 1313 1881 
L 2866 1881 
L 2388 3150 
Q 2169 3728 2063 4100 
Q 1975 3659 1816 3225 
L 1313 1881 
z
" transform="scale(0.015625)"/>
       <path id="ArialMT-76" d="M 1344 0 
L 81 3319 
L 675 3319 
L 1388 1331 
Q 1503 1009 1600 663 
Q 1675 925 1809 1294 
L 2547 3319 
L 3125 3319 
L 1869 0 
L 1344 0 
z
" transform="scale(0.015625)"/>
       <path id="ArialMT-3a" d="M 578 2678 
L 578 3319 
L 1219 3319 
L 1219 2678 
L 578 2678 
z
M 578 0 
L 578 641 
L 1219 641 
L 1219 0 
L 578 0 
z
" transform="scale(0.015625)"/>
      </defs>
      <use xlink:href="#ArialMT-41"/>
      <use xlink:href="#ArialMT-76" x="64.949219"/>
      <use xlink:href="#ArialMT-67" x="114.949219"/>
      <use xlink:href="#ArialMT-2e" x="170.564453"/>
      <use xlink:href="#ArialMT-20" x="198.347656"/>
      <use xlink:href="#ArialMT-50" x="226.130859"/>
      <use xlink:href="#ArialMT-72" x="292.830078"/>
      <use xlink:href="#ArialMT-6f" x="326.130859"/>
      <use xlink:href="#ArialMT-64" x="381.746094"/>
      <use xlink:href="#ArialMT-75" x="437.361328"/>
      <use xlink:href="#ArialMT-6b" x="492.976562"/>
      <use xlink:href="#ArialMT-73" x="542.976562"/>
      <use xlink:href="#ArialMT-69" x="592.976562"/>
      <use xlink:href="#ArialMT-20" x="615.193359"/>
      <use xlink:href="#ArialMT-3a" x="642.976562"/>
      <use xlink:href="#ArialMT-20" x="670.759766"/>
      <use xlink:href="#ArialMT-31" x="698.542969"/>
      <use xlink:href="#ArialMT-35" x="754.158203"/>
      <use xlink:href="#ArialMT-2e" x="809.773438"/>
      <use xlink:href="#ArialMT-30" x="837.556641"/>
      <use xlink:href="#ArialMT-30" x="893.171875"/>
      <use xlink:href="#ArialMT-30" x="948.787109"/>
      <use xlink:href="#ArialMT-20" x="1004.402344"/>
      <use xlink:href="#ArialMT-54" x="1030.435547"/>
      <use xlink:href="#ArialMT-6f" x="1080.394531"/>
      <use xlink:href="#ArialMT-6e" x="1136.009766"/>
     </g>
    </g>
   </g>
  </g>
 </g>
 <defs>
  <clipPath id="pfd3a9d203e">
   <rect x="90" y="34.56" width="558" height="221.76"/>
  </clipPath>
 </defs>
</svg>
