<?xml version="1.0" encoding="utf-8" standalone="no"?>
<!DOCTYPE svg PUBLIC "-//W3C//DTD SVG 1.1//EN"
  "http://www.w3.org/Graphics/SVG/1.1/DTD/svg11.dtd">
<svg xmlns:xlink="http://www.w3.org/1999/xlink" width="864pt" height="360pt" viewBox="0 0 864 360" xmlns="http://www.w3.org/2000/svg" version="1.1">
 <metadata>
  <rdf:RDF xmlns:dc="http://purl.org/dc/elements/1.1/" xmlns:cc="http://creativecommons.org/ns#" xmlns:rdf="http://www.w3.org/1999/02/22-rdf-syntax-ns#">
   <cc:Work>
    <dc:type rdf:resource="http://purl.org/dc/dcmitype/StillImage"/>
    <dc:date>2024-05-07T21:39:26.122485</dc:date>
    <dc:format>image/svg+xml</dc:format>
    <dc:creator>
     <cc:Agent>
      <dc:title>Matplotlib v3.6.2, https://matplotlib.org/</dc:title>
     </cc:Agent>
    </dc:creator>
   </cc:Work>
  </rdf:RDF>
 </metadata>
 <defs>
  <style type="text/css">*{stroke-linejoin: round; stroke-linecap: butt}</style>
 </defs>
 <g id="figure_1">
  <g id="patch_1">
   <path d="M 0 360 
L 864 360 
L 864 0 
L 0 0 
z
" style="fill: #fff9ed"/>
  </g>
  <g id="axes_1">
   <g id="patch_2">
    <path d="M 108 320.4 
L 777.6 320.4 
L 777.6 43.2 
L 108 43.2 
z
" style="fill: #fff9ed"/>
   </g>
   <g id="matplotlib.axis_1">
    <g id="xtick_1">
     <g id="line2d_1">
      <path d="M 137.196593 320.4 
L 137.196593 43.2 
" clip-path="url(#p2a59bfd226)" style="fill: none; stroke: #ffffff; stroke-linecap: round"/>
     </g>
     <g id="text_1">
      <!-- 2023-01 -->
      <g style="fill: #262626" transform="translate(117.014171 337.773594) scale(0.11 -0.11)">
       <defs>
        <path id="ArialMT-32" d="M 3222 541 
L 3222 0 
L 194 0 
Q 188 203 259 391 
Q 375 700 629 1000 
Q 884 1300 1366 1694 
Q 2113 2306 2375 2664 
Q 2638 3022 2638 3341 
Q 2638 3675 2398 3904 
Q 2159 4134 1775 4134 
Q 1369 4134 1125 3890 
Q 881 3647 878 3216 
L 300 3275 
Q 359 3922 746 4261 
Q 1134 4600 1788 4600 
Q 2447 4600 2831 4234 
Q 3216 3869 3216 3328 
Q 3216 3053 3103 2787 
Q 2991 2522 2730 2228 
Q 2469 1934 1863 1422 
Q 1356 997 1212 845 
Q 1069 694 975 541 
L 3222 541 
z
" transform="scale(0.015625)"/>
        <path id="ArialMT-30" d="M 266 2259 
Q 266 3072 433 3567 
Q 600 4063 929 4331 
Q 1259 4600 1759 4600 
Q 2128 4600 2406 4451 
Q 2684 4303 2865 4023 
Q 3047 3744 3150 3342 
Q 3253 2941 3253 2259 
Q 3253 1453 3087 958 
Q 2922 463 2592 192 
Q 2263 -78 1759 -78 
Q 1097 -78 719 397 
Q 266 969 266 2259 
z
M 844 2259 
Q 844 1131 1108 757 
Q 1372 384 1759 384 
Q 2147 384 2411 759 
Q 2675 1134 2675 2259 
Q 2675 3391 2411 3762 
Q 2147 4134 1753 4134 
Q 1366 4134 1134 3806 
Q 844 3388 844 2259 
z
" transform="scale(0.015625)"/>
        <path id="ArialMT-33" d="M 269 1209 
L 831 1284 
Q 928 806 1161 595 
Q 1394 384 1728 384 
Q 2125 384 2398 659 
Q 2672 934 2672 1341 
Q 2672 1728 2419 1979 
Q 2166 2231 1775 2231 
Q 1616 2231 1378 2169 
L 1441 2663 
Q 1497 2656 1531 2656 
Q 1891 2656 2178 2843 
Q 2466 3031 2466 3422 
Q 2466 3731 2256 3934 
Q 2047 4138 1716 4138 
Q 1388 4138 1169 3931 
Q 950 3725 888 3313 
L 325 3413 
Q 428 3978 793 4289 
Q 1159 4600 1703 4600 
Q 2078 4600 2393 4439 
Q 2709 4278 2876 4000 
Q 3044 3722 3044 3409 
Q 3044 3113 2884 2869 
Q 2725 2625 2413 2481 
Q 2819 2388 3044 2092 
Q 3269 1797 3269 1353 
Q 3269 753 2831 336 
Q 2394 -81 1725 -81 
Q 1122 -81 723 278 
Q 325 638 269 1209 
z
" transform="scale(0.015625)"/>
        <path id="ArialMT-2d" d="M 203 1375 
L 203 1941 
L 1931 1941 
L 1931 1375 
L 203 1375 
z
" transform="scale(0.015625)"/>
        <path id="ArialMT-31" d="M 2384 0 
L 1822 0 
L 1822 3584 
Q 1619 3391 1289 3197 
Q 959 3003 697 2906 
L 697 3450 
Q 1169 3672 1522 3987 
Q 1875 4303 2022 4600 
L 2384 4600 
L 2384 0 
z
" transform="scale(0.015625)"/>
       </defs>
       <use xlink:href="#ArialMT-32"/>
       <use xlink:href="#ArialMT-30" x="55.615234"/>
       <use xlink:href="#ArialMT-32" x="111.230469"/>
       <use xlink:href="#ArialMT-33" x="166.845703"/>
       <use xlink:href="#ArialMT-2d" x="222.460938"/>
       <use xlink:href="#ArialMT-30" x="255.761719"/>
       <use xlink:href="#ArialMT-31" x="311.376953"/>
      </g>
     </g>
    </g>
    <g id="xtick_2">
     <g id="line2d_2">
      <path d="M 210.343048 320.4 
L 210.343048 43.2 
" clip-path="url(#p2a59bfd226)" style="fill: none; stroke: #ffffff; stroke-linecap: round"/>
     </g>
     <g id="text_2">
      <!-- 2023-03 -->
      <g style="fill: #262626" transform="translate(190.160626 337.773594) scale(0.11 -0.11)">
       <use xlink:href="#ArialMT-32"/>
       <use xlink:href="#ArialMT-30" x="55.615234"/>
       <use xlink:href="#ArialMT-32" x="111.230469"/>
       <use xlink:href="#ArialMT-33" x="166.845703"/>
       <use xlink:href="#ArialMT-2d" x="222.460938"/>
       <use xlink:href="#ArialMT-30" x="255.761719"/>
       <use xlink:href="#ArialMT-33" x="311.376953"/>
      </g>
     </g>
    </g>
    <g id="xtick_3">
     <g id="line2d_3">
      <path d="M 285.969043 320.4 
L 285.969043 43.2 
" clip-path="url(#p2a59bfd226)" style="fill: none; stroke: #ffffff; stroke-linecap: round"/>
     </g>
     <g id="text_3">
      <!-- 2023-05 -->
      <g style="fill: #262626" transform="translate(265.786621 337.773594) scale(0.11 -0.11)">
       <defs>
        <path id="ArialMT-35" d="M 266 1200 
L 856 1250 
Q 922 819 1161 601 
Q 1400 384 1738 384 
Q 2144 384 2425 690 
Q 2706 997 2706 1503 
Q 2706 1984 2436 2262 
Q 2166 2541 1728 2541 
Q 1456 2541 1237 2417 
Q 1019 2294 894 2097 
L 366 2166 
L 809 4519 
L 3088 4519 
L 3088 3981 
L 1259 3981 
L 1013 2750 
Q 1425 3038 1878 3038 
Q 2478 3038 2890 2622 
Q 3303 2206 3303 1553 
Q 3303 931 2941 478 
Q 2500 -78 1738 -78 
Q 1113 -78 717 272 
Q 322 622 266 1200 
z
" transform="scale(0.015625)"/>
       </defs>
       <use xlink:href="#ArialMT-32"/>
       <use xlink:href="#ArialMT-30" x="55.615234"/>
       <use xlink:href="#ArialMT-32" x="111.230469"/>
       <use xlink:href="#ArialMT-33" x="166.845703"/>
       <use xlink:href="#ArialMT-2d" x="222.460938"/>
       <use xlink:href="#ArialMT-30" x="255.761719"/>
       <use xlink:href="#ArialMT-35" x="311.376953"/>
      </g>
     </g>
    </g>
    <g id="xtick_4">
     <g id="line2d_4">
      <path d="M 361.595038 320.4 
L 361.595038 43.2 
" clip-path="url(#p2a59bfd226)" style="fill: none; stroke: #ffffff; stroke-linecap: round"/>
     </g>
     <g id="text_4">
      <!-- 2023-07 -->
      <g style="fill: #262626" transform="translate(341.412616 337.773594) scale(0.11 -0.11)">
       <defs>
        <path id="ArialMT-37" d="M 303 3981 
L 303 4522 
L 3269 4522 
L 3269 4084 
Q 2831 3619 2401 2847 
Q 1972 2075 1738 1259 
Q 1569 684 1522 0 
L 944 0 
Q 953 541 1156 1306 
Q 1359 2072 1739 2783 
Q 2119 3494 2547 3981 
L 303 3981 
z
" transform="scale(0.015625)"/>
       </defs>
       <use xlink:href="#ArialMT-32"/>
       <use xlink:href="#ArialMT-30" x="55.615234"/>
       <use xlink:href="#ArialMT-32" x="111.230469"/>
       <use xlink:href="#ArialMT-33" x="166.845703"/>
       <use xlink:href="#ArialMT-2d" x="222.460938"/>
       <use xlink:href="#ArialMT-30" x="255.761719"/>
       <use xlink:href="#ArialMT-37" x="311.376953"/>
      </g>
     </g>
    </g>
    <g id="xtick_5">
     <g id="line2d_5">
      <path d="M 438.460804 320.4 
L 438.460804 43.2 
" clip-path="url(#p2a59bfd226)" style="fill: none; stroke: #ffffff; stroke-linecap: round"/>
     </g>
     <g id="text_5">
      <!-- 2023-09 -->
      <g style="fill: #262626" transform="translate(418.278382 337.773594) scale(0.11 -0.11)">
       <defs>
        <path id="ArialMT-39" d="M 350 1059 
L 891 1109 
Q 959 728 1153 556 
Q 1347 384 1650 384 
Q 1909 384 2104 503 
Q 2300 622 2425 820 
Q 2550 1019 2634 1356 
Q 2719 1694 2719 2044 
Q 2719 2081 2716 2156 
Q 2547 1888 2255 1720 
Q 1963 1553 1622 1553 
Q 1053 1553 659 1965 
Q 266 2378 266 3053 
Q 266 3750 677 4175 
Q 1088 4600 1706 4600 
Q 2153 4600 2523 4359 
Q 2894 4119 3086 3673 
Q 3278 3228 3278 2384 
Q 3278 1506 3087 986 
Q 2897 466 2520 194 
Q 2144 -78 1638 -78 
Q 1100 -78 759 220 
Q 419 519 350 1059 
z
M 2653 3081 
Q 2653 3566 2395 3850 
Q 2138 4134 1775 4134 
Q 1400 4134 1122 3828 
Q 844 3522 844 3034 
Q 844 2597 1108 2323 
Q 1372 2050 1759 2050 
Q 2150 2050 2401 2323 
Q 2653 2597 2653 3081 
z
" transform="scale(0.015625)"/>
       </defs>
       <use xlink:href="#ArialMT-32"/>
       <use xlink:href="#ArialMT-30" x="55.615234"/>
       <use xlink:href="#ArialMT-32" x="111.230469"/>
       <use xlink:href="#ArialMT-33" x="166.845703"/>
       <use xlink:href="#ArialMT-2d" x="222.460938"/>
       <use xlink:href="#ArialMT-30" x="255.761719"/>
       <use xlink:href="#ArialMT-39" x="311.376953"/>
      </g>
     </g>
    </g>
    <g id="xtick_6">
     <g id="line2d_6">
      <path d="M 514.086799 320.4 
L 514.086799 43.2 
" clip-path="url(#p2a59bfd226)" style="fill: none; stroke: #ffffff; stroke-linecap: round"/>
     </g>
     <g id="text_6">
      <!-- 2023-11 -->
      <g style="fill: #262626" transform="translate(494.310002 337.773594) scale(0.11 -0.11)">
       <use xlink:href="#ArialMT-32"/>
       <use xlink:href="#ArialMT-30" x="55.615234"/>
       <use xlink:href="#ArialMT-32" x="111.230469"/>
       <use xlink:href="#ArialMT-33" x="166.845703"/>
       <use xlink:href="#ArialMT-2d" x="222.460938"/>
       <use xlink:href="#ArialMT-31" x="255.761719"/>
       <use xlink:href="#ArialMT-31" x="304.001953"/>
      </g>
     </g>
    </g>
    <g id="xtick_7">
     <g id="line2d_7">
      <path d="M 589.712794 320.4 
L 589.712794 43.2 
" clip-path="url(#p2a59bfd226)" style="fill: none; stroke: #ffffff; stroke-linecap: round"/>
     </g>
     <g id="text_7">
      <!-- 2024-01 -->
      <g style="fill: #262626" transform="translate(569.530372 337.773594) scale(0.11 -0.11)">
       <defs>
        <path id="ArialMT-34" d="M 2069 0 
L 2069 1097 
L 81 1097 
L 81 1613 
L 2172 4581 
L 2631 4581 
L 2631 1613 
L 3250 1613 
L 3250 1097 
L 2631 1097 
L 2631 0 
L 2069 0 
z
M 2069 1613 
L 2069 3678 
L 634 1613 
L 2069 1613 
z
" transform="scale(0.015625)"/>
       </defs>
       <use xlink:href="#ArialMT-32"/>
       <use xlink:href="#ArialMT-30" x="55.615234"/>
       <use xlink:href="#ArialMT-32" x="111.230469"/>
       <use xlink:href="#ArialMT-34" x="166.845703"/>
       <use xlink:href="#ArialMT-2d" x="222.460938"/>
       <use xlink:href="#ArialMT-30" x="255.761719"/>
       <use xlink:href="#ArialMT-31" x="311.376953"/>
      </g>
     </g>
    </g>
    <g id="xtick_8">
     <g id="line2d_8">
      <path d="M 664.099019 320.4 
L 664.099019 43.2 
" clip-path="url(#p2a59bfd226)" style="fill: none; stroke: #ffffff; stroke-linecap: round"/>
     </g>
     <g id="text_8">
      <!-- 2024-03 -->
      <g style="fill: #262626" transform="translate(643.916597 337.773594) scale(0.11 -0.11)">
       <use xlink:href="#ArialMT-32"/>
       <use xlink:href="#ArialMT-30" x="55.615234"/>
       <use xlink:href="#ArialMT-32" x="111.230469"/>
       <use xlink:href="#ArialMT-34" x="166.845703"/>
       <use xlink:href="#ArialMT-2d" x="222.460938"/>
       <use xlink:href="#ArialMT-30" x="255.761719"/>
       <use xlink:href="#ArialMT-33" x="311.376953"/>
      </g>
     </g>
    </g>
    <g id="xtick_9">
     <g id="line2d_9">
      <path d="M 739.725014 320.4 
L 739.725014 43.2 
" clip-path="url(#p2a59bfd226)" style="fill: none; stroke: #ffffff; stroke-linecap: round"/>
     </g>
     <g id="text_9">
      <!-- 2024-05 -->
      <g style="fill: #262626" transform="translate(719.542592 337.773594) scale(0.11 -0.11)">
       <use xlink:href="#ArialMT-32"/>
       <use xlink:href="#ArialMT-30" x="55.615234"/>
       <use xlink:href="#ArialMT-32" x="111.230469"/>
       <use xlink:href="#ArialMT-34" x="166.845703"/>
       <use xlink:href="#ArialMT-2d" x="222.460938"/>
       <use xlink:href="#ArialMT-30" x="255.761719"/>
       <use xlink:href="#ArialMT-35" x="311.376953"/>
      </g>
     </g>
    </g>
   </g>
   <g id="matplotlib.axis_2">
    <g id="ytick_1">
     <g id="line2d_10">
      <path d="M 108 320.4 
L 777.6 320.4 
" clip-path="url(#p2a59bfd226)" style="fill: none; stroke: #ffffff; stroke-linecap: round"/>
     </g>
     <g id="text_10">
      <!-- 0 -->
      <g style="fill: #262626" transform="translate(92.382969 324.336797) scale(0.11 -0.11)">
       <use xlink:href="#ArialMT-30"/>
      </g>
     </g>
    </g>
    <g id="ytick_2">
     <g id="line2d_11">
      <path d="M 108 280.8 
L 777.6 280.8 
" clip-path="url(#p2a59bfd226)" style="fill: none; stroke: #ffffff; stroke-linecap: round"/>
     </g>
     <g id="text_11">
      <!-- 50.000.000 -->
      <g style="fill: #262626" transform="translate(43.451875 284.736797) scale(0.11 -0.11)">
       <defs>
        <path id="ArialMT-2e" d="M 581 0 
L 581 641 
L 1222 641 
L 1222 0 
L 581 0 
z
" transform="scale(0.015625)"/>
       </defs>
       <use xlink:href="#ArialMT-35"/>
       <use xlink:href="#ArialMT-30" x="55.615234"/>
       <use xlink:href="#ArialMT-2e" x="111.230469"/>
       <use xlink:href="#ArialMT-30" x="139.013672"/>
       <use xlink:href="#ArialMT-30" x="194.628906"/>
       <use xlink:href="#ArialMT-30" x="250.244141"/>
       <use xlink:href="#ArialMT-2e" x="305.859375"/>
       <use xlink:href="#ArialMT-30" x="333.642578"/>
       <use xlink:href="#ArialMT-30" x="389.257812"/>
       <use xlink:href="#ArialMT-30" x="444.873047"/>
      </g>
     </g>
    </g>
    <g id="ytick_3">
     <g id="line2d_12">
      <path d="M 108 241.2 
L 777.6 241.2 
" clip-path="url(#p2a59bfd226)" style="fill: none; stroke: #ffffff; stroke-linecap: round"/>
     </g>
     <g id="text_12">
      <!-- 100.000.000 -->
      <g style="fill: #262626" transform="translate(37.334844 245.136797) scale(0.11 -0.11)">
       <use xlink:href="#ArialMT-31"/>
       <use xlink:href="#ArialMT-30" x="55.615234"/>
       <use xlink:href="#ArialMT-30" x="111.230469"/>
       <use xlink:href="#ArialMT-2e" x="166.845703"/>
       <use xlink:href="#ArialMT-30" x="194.628906"/>
       <use xlink:href="#ArialMT-30" x="250.244141"/>
       <use xlink:href="#ArialMT-30" x="305.859375"/>
       <use xlink:href="#ArialMT-2e" x="361.474609"/>
       <use xlink:href="#ArialMT-30" x="389.257812"/>
       <use xlink:href="#ArialMT-30" x="444.873047"/>
       <use xlink:href="#ArialMT-30" x="500.488281"/>
      </g>
     </g>
    </g>
    <g id="ytick_4">
     <g id="line2d_13">
      <path d="M 108 201.6 
L 777.6 201.6 
" clip-path="url(#p2a59bfd226)" style="fill: none; stroke: #ffffff; stroke-linecap: round"/>
     </g>
     <g id="text_13">
      <!-- 150.000.000 -->
      <g style="fill: #262626" transform="translate(37.334844 205.536797) scale(0.11 -0.11)">
       <use xlink:href="#ArialMT-31"/>
       <use xlink:href="#ArialMT-35" x="55.615234"/>
       <use xlink:href="#ArialMT-30" x="111.230469"/>
       <use xlink:href="#ArialMT-2e" x="166.845703"/>
       <use xlink:href="#ArialMT-30" x="194.628906"/>
       <use xlink:href="#ArialMT-30" x="250.244141"/>
       <use xlink:href="#ArialMT-30" x="305.859375"/>
       <use xlink:href="#ArialMT-2e" x="361.474609"/>
       <use xlink:href="#ArialMT-30" x="389.257812"/>
       <use xlink:href="#ArialMT-30" x="444.873047"/>
       <use xlink:href="#ArialMT-30" x="500.488281"/>
      </g>
     </g>
    </g>
    <g id="ytick_5">
     <g id="line2d_14">
      <path d="M 108 162 
L 777.6 162 
" clip-path="url(#p2a59bfd226)" style="fill: none; stroke: #ffffff; stroke-linecap: round"/>
     </g>
     <g id="text_14">
      <!-- 200.000.000 -->
      <g style="fill: #262626" transform="translate(37.334844 165.936797) scale(0.11 -0.11)">
       <use xlink:href="#ArialMT-32"/>
       <use xlink:href="#ArialMT-30" x="55.615234"/>
       <use xlink:href="#ArialMT-30" x="111.230469"/>
       <use xlink:href="#ArialMT-2e" x="166.845703"/>
       <use xlink:href="#ArialMT-30" x="194.628906"/>
       <use xlink:href="#ArialMT-30" x="250.244141"/>
       <use xlink:href="#ArialMT-30" x="305.859375"/>
       <use xlink:href="#ArialMT-2e" x="361.474609"/>
       <use xlink:href="#ArialMT-30" x="389.257812"/>
       <use xlink:href="#ArialMT-30" x="444.873047"/>
       <use xlink:href="#ArialMT-30" x="500.488281"/>
      </g>
     </g>
    </g>
    <g id="ytick_6">
     <g id="line2d_15">
      <path d="M 108 122.4 
L 777.6 122.4 
" clip-path="url(#p2a59bfd226)" style="fill: none; stroke: #ffffff; stroke-linecap: round"/>
     </g>
     <g id="text_15">
      <!-- 250.000.000 -->
      <g style="fill: #262626" transform="translate(37.334844 126.336797) scale(0.11 -0.11)">
       <use xlink:href="#ArialMT-32"/>
       <use xlink:href="#ArialMT-35" x="55.615234"/>
       <use xlink:href="#ArialMT-30" x="111.230469"/>
       <use xlink:href="#ArialMT-2e" x="166.845703"/>
       <use xlink:href="#ArialMT-30" x="194.628906"/>
       <use xlink:href="#ArialMT-30" x="250.244141"/>
       <use xlink:href="#ArialMT-30" x="305.859375"/>
       <use xlink:href="#ArialMT-2e" x="361.474609"/>
       <use xlink:href="#ArialMT-30" x="389.257812"/>
       <use xlink:href="#ArialMT-30" x="444.873047"/>
       <use xlink:href="#ArialMT-30" x="500.488281"/>
      </g>
     </g>
    </g>
    <g id="ytick_7">
     <g id="line2d_16">
      <path d="M 108 82.8 
L 777.6 82.8 
" clip-path="url(#p2a59bfd226)" style="fill: none; stroke: #ffffff; stroke-linecap: round"/>
     </g>
     <g id="text_16">
      <!-- 300.000.000 -->
      <g style="fill: #262626" transform="translate(37.334844 86.736797) scale(0.11 -0.11)">
       <use xlink:href="#ArialMT-33"/>
       <use xlink:href="#ArialMT-30" x="55.615234"/>
       <use xlink:href="#ArialMT-30" x="111.230469"/>
       <use xlink:href="#ArialMT-2e" x="166.845703"/>
       <use xlink:href="#ArialMT-30" x="194.628906"/>
       <use xlink:href="#ArialMT-30" x="250.244141"/>
       <use xlink:href="#ArialMT-30" x="305.859375"/>
       <use xlink:href="#ArialMT-2e" x="361.474609"/>
       <use xlink:href="#ArialMT-30" x="389.257812"/>
       <use xlink:href="#ArialMT-30" x="444.873047"/>
       <use xlink:href="#ArialMT-30" x="500.488281"/>
      </g>
     </g>
    </g>
    <g id="ytick_8">
     <g id="line2d_17">
      <path d="M 108 43.2 
L 777.6 43.2 
" clip-path="url(#p2a59bfd226)" style="fill: none; stroke: #ffffff; stroke-linecap: round"/>
     </g>
     <g id="text_17">
      <!-- 350.000.000 -->
      <g style="fill: #262626" transform="translate(37.334844 47.136797) scale(0.11 -0.11)">
       <use xlink:href="#ArialMT-33"/>
       <use xlink:href="#ArialMT-35" x="55.615234"/>
       <use xlink:href="#ArialMT-30" x="111.230469"/>
       <use xlink:href="#ArialMT-2e" x="166.845703"/>
       <use xlink:href="#ArialMT-30" x="194.628906"/>
       <use xlink:href="#ArialMT-30" x="250.244141"/>
       <use xlink:href="#ArialMT-30" x="305.859375"/>
       <use xlink:href="#ArialMT-2e" x="361.474609"/>
       <use xlink:href="#ArialMT-30" x="389.257812"/>
       <use xlink:href="#ArialMT-30" x="444.873047"/>
       <use xlink:href="#ArialMT-30" x="500.488281"/>
      </g>
     </g>
    </g>
    <g id="text_18">
     <!-- Biaya Harian (Rupiah) -->
     <g style="fill: #262626" transform="translate(19.809219 240.824062) rotate(-90) scale(0.12 -0.12)">
      <defs>
       <path id="ArialMT-42" d="M 469 0 
L 469 4581 
L 2188 4581 
Q 2713 4581 3030 4442 
Q 3347 4303 3526 4014 
Q 3706 3725 3706 3409 
Q 3706 3116 3547 2856 
Q 3388 2597 3066 2438 
Q 3481 2316 3704 2022 
Q 3928 1728 3928 1328 
Q 3928 1006 3792 729 
Q 3656 453 3456 303 
Q 3256 153 2954 76 
Q 2653 0 2216 0 
L 469 0 
z
M 1075 2656 
L 2066 2656 
Q 2469 2656 2644 2709 
Q 2875 2778 2992 2937 
Q 3109 3097 3109 3338 
Q 3109 3566 3000 3739 
Q 2891 3913 2687 3977 
Q 2484 4041 1991 4041 
L 1075 4041 
L 1075 2656 
z
M 1075 541 
L 2216 541 
Q 2509 541 2628 563 
Q 2838 600 2978 687 
Q 3119 775 3209 942 
Q 3300 1109 3300 1328 
Q 3300 1584 3169 1773 
Q 3038 1963 2805 2039 
Q 2572 2116 2134 2116 
L 1075 2116 
L 1075 541 
z
" transform="scale(0.015625)"/>
       <path id="ArialMT-69" d="M 425 3934 
L 425 4581 
L 988 4581 
L 988 3934 
L 425 3934 
z
M 425 0 
L 425 3319 
L 988 3319 
L 988 0 
L 425 0 
z
" transform="scale(0.015625)"/>
       <path id="ArialMT-61" d="M 2588 409 
Q 2275 144 1986 34 
Q 1697 -75 1366 -75 
Q 819 -75 525 192 
Q 231 459 231 875 
Q 231 1119 342 1320 
Q 453 1522 633 1644 
Q 813 1766 1038 1828 
Q 1203 1872 1538 1913 
Q 2219 1994 2541 2106 
Q 2544 2222 2544 2253 
Q 2544 2597 2384 2738 
Q 2169 2928 1744 2928 
Q 1347 2928 1158 2789 
Q 969 2650 878 2297 
L 328 2372 
Q 403 2725 575 2942 
Q 747 3159 1072 3276 
Q 1397 3394 1825 3394 
Q 2250 3394 2515 3294 
Q 2781 3194 2906 3042 
Q 3031 2891 3081 2659 
Q 3109 2516 3109 2141 
L 3109 1391 
Q 3109 606 3145 398 
Q 3181 191 3288 0 
L 2700 0 
Q 2613 175 2588 409 
z
M 2541 1666 
Q 2234 1541 1622 1453 
Q 1275 1403 1131 1340 
Q 988 1278 909 1158 
Q 831 1038 831 891 
Q 831 666 1001 516 
Q 1172 366 1500 366 
Q 1825 366 2078 508 
Q 2331 650 2450 897 
Q 2541 1088 2541 1459 
L 2541 1666 
z
" transform="scale(0.015625)"/>
       <path id="ArialMT-79" d="M 397 -1278 
L 334 -750 
Q 519 -800 656 -800 
Q 844 -800 956 -737 
Q 1069 -675 1141 -563 
Q 1194 -478 1313 -144 
Q 1328 -97 1363 -6 
L 103 3319 
L 709 3319 
L 1400 1397 
Q 1534 1031 1641 628 
Q 1738 1016 1872 1384 
L 2581 3319 
L 3144 3319 
L 1881 -56 
Q 1678 -603 1566 -809 
Q 1416 -1088 1222 -1217 
Q 1028 -1347 759 -1347 
Q 597 -1347 397 -1278 
z
" transform="scale(0.015625)"/>
       <path id="ArialMT-20" transform="scale(0.015625)"/>
       <path id="ArialMT-48" d="M 513 0 
L 513 4581 
L 1119 4581 
L 1119 2700 
L 3500 2700 
L 3500 4581 
L 4106 4581 
L 4106 0 
L 3500 0 
L 3500 2159 
L 1119 2159 
L 1119 0 
L 513 0 
z
" transform="scale(0.015625)"/>
       <path id="ArialMT-72" d="M 416 0 
L 416 3319 
L 922 3319 
L 922 2816 
Q 1116 3169 1280 3281 
Q 1444 3394 1641 3394 
Q 1925 3394 2219 3213 
L 2025 2691 
Q 1819 2813 1613 2813 
Q 1428 2813 1281 2702 
Q 1134 2591 1072 2394 
Q 978 2094 978 1738 
L 978 0 
L 416 0 
z
" transform="scale(0.015625)"/>
       <path id="ArialMT-6e" d="M 422 0 
L 422 3319 
L 928 3319 
L 928 2847 
Q 1294 3394 1984 3394 
Q 2284 3394 2536 3286 
Q 2788 3178 2913 3003 
Q 3038 2828 3088 2588 
Q 3119 2431 3119 2041 
L 3119 0 
L 2556 0 
L 2556 2019 
Q 2556 2363 2490 2533 
Q 2425 2703 2258 2804 
Q 2091 2906 1866 2906 
Q 1506 2906 1245 2678 
Q 984 2450 984 1813 
L 984 0 
L 422 0 
z
" transform="scale(0.015625)"/>
       <path id="ArialMT-28" d="M 1497 -1347 
Q 1031 -759 709 28 
Q 388 816 388 1659 
Q 388 2403 628 3084 
Q 909 3875 1497 4659 
L 1900 4659 
Q 1522 4009 1400 3731 
Q 1209 3300 1100 2831 
Q 966 2247 966 1656 
Q 966 153 1900 -1347 
L 1497 -1347 
z
" transform="scale(0.015625)"/>
       <path id="ArialMT-52" d="M 503 0 
L 503 4581 
L 2534 4581 
Q 3147 4581 3465 4457 
Q 3784 4334 3975 4021 
Q 4166 3709 4166 3331 
Q 4166 2844 3850 2509 
Q 3534 2175 2875 2084 
Q 3116 1969 3241 1856 
Q 3506 1613 3744 1247 
L 4541 0 
L 3778 0 
L 3172 953 
Q 2906 1366 2734 1584 
Q 2563 1803 2427 1890 
Q 2291 1978 2150 2013 
Q 2047 2034 1813 2034 
L 1109 2034 
L 1109 0 
L 503 0 
z
M 1109 2559 
L 2413 2559 
Q 2828 2559 3062 2645 
Q 3297 2731 3419 2920 
Q 3541 3109 3541 3331 
Q 3541 3656 3305 3865 
Q 3069 4075 2559 4075 
L 1109 4075 
L 1109 2559 
z
" transform="scale(0.015625)"/>
       <path id="ArialMT-75" d="M 2597 0 
L 2597 488 
Q 2209 -75 1544 -75 
Q 1250 -75 995 37 
Q 741 150 617 320 
Q 494 491 444 738 
Q 409 903 409 1263 
L 409 3319 
L 972 3319 
L 972 1478 
Q 972 1038 1006 884 
Q 1059 663 1231 536 
Q 1403 409 1656 409 
Q 1909 409 2131 539 
Q 2353 669 2445 892 
Q 2538 1116 2538 1541 
L 2538 3319 
L 3100 3319 
L 3100 0 
L 2597 0 
z
" transform="scale(0.015625)"/>
       <path id="ArialMT-70" d="M 422 -1272 
L 422 3319 
L 934 3319 
L 934 2888 
Q 1116 3141 1344 3267 
Q 1572 3394 1897 3394 
Q 2322 3394 2647 3175 
Q 2972 2956 3137 2557 
Q 3303 2159 3303 1684 
Q 3303 1175 3120 767 
Q 2938 359 2589 142 
Q 2241 -75 1856 -75 
Q 1575 -75 1351 44 
Q 1128 163 984 344 
L 984 -1272 
L 422 -1272 
z
M 931 1641 
Q 931 1000 1190 694 
Q 1450 388 1819 388 
Q 2194 388 2461 705 
Q 2728 1022 2728 1688 
Q 2728 2322 2467 2637 
Q 2206 2953 1844 2953 
Q 1484 2953 1207 2617 
Q 931 2281 931 1641 
z
" transform="scale(0.015625)"/>
       <path id="ArialMT-68" d="M 422 0 
L 422 4581 
L 984 4581 
L 984 2938 
Q 1378 3394 1978 3394 
Q 2347 3394 2619 3248 
Q 2891 3103 3008 2847 
Q 3125 2591 3125 2103 
L 3125 0 
L 2563 0 
L 2563 2103 
Q 2563 2525 2380 2717 
Q 2197 2909 1863 2909 
Q 1613 2909 1392 2779 
Q 1172 2650 1078 2428 
Q 984 2206 984 1816 
L 984 0 
L 422 0 
z
" transform="scale(0.015625)"/>
       <path id="ArialMT-29" d="M 791 -1347 
L 388 -1347 
Q 1322 153 1322 1656 
Q 1322 2244 1188 2822 
Q 1081 3291 891 3722 
Q 769 4003 388 4659 
L 791 4659 
Q 1378 3875 1659 3084 
Q 1900 2403 1900 1659 
Q 1900 816 1576 28 
Q 1253 -759 791 -1347 
z
" transform="scale(0.015625)"/>
      </defs>
      <use xlink:href="#ArialMT-42"/>
      <use xlink:href="#ArialMT-69" x="66.699219"/>
      <use xlink:href="#ArialMT-61" x="88.916016"/>
      <use xlink:href="#ArialMT-79" x="144.53125"/>
      <use xlink:href="#ArialMT-61" x="194.53125"/>
      <use xlink:href="#ArialMT-20" x="250.146484"/>
      <use xlink:href="#ArialMT-48" x="277.929688"/>
      <use xlink:href="#ArialMT-61" x="350.146484"/>
      <use xlink:href="#ArialMT-72" x="405.761719"/>
      <use xlink:href="#ArialMT-69" x="439.0625"/>
      <use xlink:href="#ArialMT-61" x="461.279297"/>
      <use xlink:href="#ArialMT-6e" x="516.894531"/>
      <use xlink:href="#ArialMT-20" x="572.509766"/>
      <use xlink:href="#ArialMT-28" x="600.292969"/>
      <use xlink:href="#ArialMT-52" x="633.59375"/>
      <use xlink:href="#ArialMT-75" x="705.810547"/>
      <use xlink:href="#ArialMT-70" x="761.425781"/>
      <use xlink:href="#ArialMT-69" x="817.041016"/>
      <use xlink:href="#ArialMT-61" x="839.257812"/>
      <use xlink:href="#ArialMT-68" x="894.873047"/>
      <use xlink:href="#ArialMT-29" x="950.488281"/>
     </g>
    </g>
   </g>
   <g id="line2d_18">
    <path d="M 138.436364 261.524561 
L 139.676134 236.93112 
L 140.915904 283.30272 
L 142.155675 257.36206 
L 143.395445 259.172242 
L 144.635216 301.329689 
L 145.874986 282.795529 
L 147.114757 292.391969 
L 148.354527 292.41598 
L 149.594297 269.404834 
L 150.834068 282.956589 
L 152.073838 260.215898 
L 153.313609 273.143302 
L 154.553379 264.439886 
L 155.793149 269.219762 
L 157.03292 217.912289 
L 158.27269 265.137108 
L 159.512461 264.307649 
L 160.752231 245.573937 
L 161.992001 223.01964 
L 163.231772 264.118617 
L 164.471542 266.612369 
L 165.711313 227.471729 
L 166.951083 236.702886 
L 168.190854 260.85744 
L 169.430624 232.346489 
L 170.670394 245.762969 
L 171.910165 255.790737 
L 173.149935 206.182512 
L 174.389706 244.146497 
L 175.629476 292.57704 
L 176.869246 246.020369 
L 178.109017 262.14622 
L 179.348787 259.400646 
L 180.588558 227.48147 
L 181.828328 183.452825 
L 183.068099 287.920845 
L 184.307869 250.485588 
L 185.547639 263.413117 
L 186.78741 301.666289 
L 188.02718 282.969801 
L 189.266951 199.456419 
L 190.506721 163.909427 
L 191.746491 218.019251 
L 192.986262 292.476706 
L 194.226032 245.493373 
L 195.465803 264.400056 
L 196.705573 236.88822 
L 197.945343 273.78681 
L 199.185114 270.58203 
L 200.424884 300.686044 
L 201.664655 242.174559 
L 202.904425 155.37622 
L 204.144196 273.50568 
L 205.383966 198.530766 
L 206.623736 310.4419 
L 207.863507 299.59416 
L 209.103277 261.364891 
L 210.343048 201.86003 
L 211.582818 301.85136 
L 212.822588 285.33816 
L 214.062359 278.5045 
L 215.302129 292.41598 
L 216.5419 264.383937 
L 217.78167 264.100344 
L 219.02144 141.27336 
L 220.261211 242.131335 
L 221.500981 257.98198 
L 222.740752 222.351885 
L 223.980522 180.35064 
L 225.220293 251.964864 
L 226.460063 252.196071 
L 227.699833 274.026816 
L 228.939604 195.851664 
L 230.179374 259.416257 
L 231.419145 252.137863 
L 232.658915 254.471356 
L 233.898685 235.634601 
L 235.138456 320.279367 
L 236.378226 301.563245 
L 237.617997 318.043073 
L 240.097537 247.240396 
L 241.337308 263.889734 
L 242.577078 258.846192 
L 243.816849 245.052979 
L 245.056619 235.634601 
L 246.29639 218.607667 
L 247.53616 231.139466 
L 248.77593 272.752897 
L 250.015701 256.272192 
L 251.255471 218.372968 
L 252.495242 230.921375 
L 253.735012 236.560977 
L 254.974782 264.296754 
L 257.454323 229.330017 
L 258.694094 252.574861 
L 259.933864 252.821081 
L 261.173635 259.02197 
L 262.413405 266.57491 
L 263.653175 227.6568 
L 264.892946 292.221497 
L 266.132716 257.28632 
L 267.372487 271.750309 
L 268.612257 281.526757 
L 269.852027 301.349232 
L 271.091798 296.574329 
L 272.331568 320.220281 
L 276.050879 318.088217 
L 277.29065 303.086283 
L 278.53042 292.57704 
L 279.770191 310.945961 
L 281.009961 320.220281 
L 282.249732 284.07888 
L 283.489502 291.074681 
L 284.729272 291.074681 
L 285.969043 254.461321 
L 287.208813 305.8272 
L 288.448584 320.4 
L 289.688354 320.4 
L 290.928124 232.411968 
L 292.167895 244.506022 
L 293.407665 264.36924 
L 294.647436 257.246177 
L 295.887206 232.226897 
L 297.126976 150.994625 
L 298.366747 291.070656 
L 299.606517 126.932081 
L 300.846288 300.790023 
L 302.086058 224.995937 
L 303.325829 270.777474 
L 304.565599 242.188416 
L 305.805369 227.338673 
L 307.04514 231.641587 
L 308.28491 283.839696 
L 309.524681 232.142549 
L 310.764451 281.052055 
L 312.004221 246.487509 
L 313.243992 283.839696 
L 314.483762 281.294208 
L 315.723533 261.741312 
L 316.963303 278.871951 
L 318.203074 270.962546 
L 319.442844 264.101729 
L 320.682614 281.459629 
L 321.922385 283.117649 
L 323.162155 316.423625 
L 324.401926 311.40973 
L 325.641696 301.666289 
L 326.881466 301.495817 
L 328.121237 241.317216 
L 329.361007 246.025721 
L 330.600778 272.722186 
L 331.840548 264.394642 
L 333.080318 245.627367 
L 334.320089 290.706622 
L 335.559859 246.20544 
L 336.79963 264.75408 
L 338.0394 249.952522 
L 339.279171 218.38248 
L 340.518941 155.325881 
L 341.758711 229.520441 
L 342.998482 194.305018 
L 344.238252 234.19003 
L 345.478023 264.51728 
L 346.717793 224.165002 
L 347.957563 245.846002 
L 349.197334 235.775228 
L 350.437104 272.129881 
L 351.676875 274.284281 
L 352.916645 263.117081 
L 354.156415 254.88813 
L 355.396186 255.880769 
L 356.635956 190.09224 
L 357.875727 230.481329 
L 360.355268 256.59648 
L 361.595038 235.804589 
L 362.834808 246.20544 
L 364.074579 264.75408 
L 365.314349 266.740359 
L 366.55412 292.42656 
L 367.79389 274.0284 
L 369.03366 280.990937 
L 370.273431 137.521279 
L 371.513201 225.962206 
L 372.752972 255.47976 
L 373.992742 232.748 
L 375.232512 255.3187 
L 376.472283 235.555737 
L 377.712053 285.106677 
L 378.951824 307.038451 
L 380.191594 287.60854 
L 381.431365 250.127889 
L 382.671135 252.7447 
L 383.910905 283.30272 
L 385.150676 260.55116 
L 386.390446 302.80702 
L 387.630217 262.931869 
L 388.869987 254.81708 
L 390.109757 261.8936 
L 391.349528 268.10424 
L 392.589298 278.485841 
L 393.829069 311.12568 
L 395.068839 283.14166 
L 396.30861 276.07176 
L 397.54838 301.85136 
L 398.78815 283.30272 
L 400.027921 257.52312 
L 401.267691 301.85136 
L 402.507462 283.30272 
L 403.747232 276.07176 
L 404.987002 294.232606 
L 406.226773 293.115886 
L 407.466543 295.9272 
L 408.706314 263.2968 
L 409.946084 238.824 
L 412.425625 255.1392 
L 413.665395 194.94522 
L 414.905166 246.20544 
L 416.144936 221.947336 
L 417.384707 236.888309 
L 418.624477 276.07176 
L 419.864247 245.872729 
L 421.104018 229.76352 
L 422.343788 166.88664 
L 423.583559 292.57704 
L 424.823329 264.75408 
L 426.063099 301.85136 
L 427.30287 287.42904 
L 428.54264 283.30272 
L 429.782411 278.679154 
L 432.261951 206.652147 
L 433.501722 287.01454 
L 434.741492 255.3187 
L 435.981263 282.9806 
L 437.221033 293.398344 
L 438.460804 320.23894 
L 439.700574 307.586011 
L 440.940344 310.2523 
L 442.180115 301.42894 
L 443.419885 320.4 
L 444.659656 320.07788 
L 445.899426 310.70326 
L 447.139196 273.26478 
L 448.378967 277.735919 
L 449.618737 310.368087 
L 450.858508 286.49182 
L 452.098278 271.209195 
L 453.338049 295.898659 
L 454.577819 86.752625 
L 455.817589 267.8904 
L 457.05736 304.0848 
L 458.29713 271.4544 
L 459.536901 295.747481 
L 460.776671 277.300217 
L 462.016441 230.486681 
L 463.256212 282.943282 
L 464.495982 246.20544 
L 466.975523 292.397321 
L 468.215293 283.30272 
L 469.455064 292.832549 
L 470.694834 229.077048 
L 471.934605 273.86734 
L 473.174375 292.397321 
L 474.414146 313.16904 
L 475.653916 264.75408 
L 476.893686 235.650521 
L 478.133457 133.225121 
L 479.373227 272.485659 
L 480.612998 273.822519 
L 481.852768 292.037883 
L 483.092538 248.464582 
L 484.332309 311.12568 
L 485.572079 299.27736 
L 486.81185 244.645771 
L 488.05162 267.08149 
L 489.29139 201.715697 
L 490.531161 283.123001 
L 491.770931 257.52312 
L 493.010702 273.676752 
L 494.250472 237.035451 
L 495.490243 255.300041 
L 496.730013 291.268721 
L 497.969783 291.858164 
L 499.209554 252.988258 
L 500.449324 299.496677 
L 501.689095 125.095241 
L 502.928865 283.123001 
L 504.168635 236.571682 
L 505.408406 255.43686 
L 506.648176 290.882446 
L 507.887947 264.67355 
L 509.127717 289.68092 
L 510.367488 252.7447 
L 511.607258 255.47976 
L 512.847028 264.75408 
L 515.326569 246.48949 
L 516.56634 301.6903 
L 517.80611 292.25492 
L 519.04588 259.40542 
L 520.285651 247.90824 
L 521.525421 256.06584 
L 522.765192 287.726789 
L 524.004962 303.92374 
L 525.244732 304.0848 
L 526.484503 268.8804 
L 527.724273 286.65288 
L 528.964044 230.6664 
L 530.203814 263.13178 
L 531.443585 247.90824 
L 532.683355 295.76614 
L 533.923125 164.690426 
L 535.162896 254.779348 
L 536.402666 239.75064 
L 537.642437 255.05867 
L 538.882207 221.29597 
L 540.121977 266.10469 
L 542.601518 255.1392 
L 543.841289 279.426929 
L 545.081059 311.865665 
L 546.320829 125.04528 
L 547.5606 256.06584 
L 548.80037 238.463105 
L 550.040141 271.4544 
L 551.279911 254.954129 
L 552.519682 263.2968 
L 554.999222 296.13838 
L 556.238993 243.0612 
L 557.478763 287.7696 
L 558.718534 287.7696 
L 559.958304 304.0848 
L 561.198074 312.08134 
L 562.437845 297.65902 
L 563.677615 301.6903 
L 564.917386 273.843329 
L 566.157156 225.23854 
L 567.396926 236.93112 
L 568.636697 263.2968 
L 569.876467 253.837409 
L 571.116238 246.9816 
L 572.356008 280.353569 
L 573.595779 253.00638 
L 574.835549 293.69376 
L 576.075319 271.4544 
L 577.31509 264.22344 
L 578.55486 295.9272 
L 579.794631 287.247137 
L 582.274171 279.612 
L 583.513942 303.92374 
L 584.753712 304.0848 
L 585.993483 279.612 
L 587.233253 304.0848 
L 590.952564 230.6664 
L 592.192335 271.837728 
L 593.432105 295.76614 
L 594.671876 254.785149 
L 595.911646 262.18008 
L 597.151416 276.445857 
L 598.391187 255.47976 
L 599.630957 255.47976 
L 600.870728 220.42584 
L 602.110498 270.639211 
L 603.350268 271.313967 
L 604.590039 255.23817 
L 605.829809 183.15033 
L 607.06958 301.808549 
L 608.30935 174.079584 
L 609.549121 278.49528 
L 610.788891 263.2968 
L 612.028661 228.53193 
L 613.268432 302.465952 
L 614.508202 199.932048 
L 615.747973 266.257296 
L 616.987743 253.444606 
L 618.227513 292.166784 
L 619.467284 92.431747 
L 620.707054 248.629752 
L 621.946825 246.644716 
L 623.186595 302.543525 
L 624.426365 181.38024 
L 625.666136 271.166112 
L 626.905906 302.304892 
L 628.145677 202.466131 
L 629.385447 312.2424 
L 630.625218 271.1772 
L 631.864988 268.186911 
L 633.104758 276.248092 
L 634.344529 279.28988 
L 635.584299 270.229241 
L 636.82407 243.361861 
L 638.06384 263.2968 
L 639.30361 279.413208 
L 640.543381 261.281952 
L 643.022922 300.847104 
L 645.502463 286.3836 
L 646.742233 303.2532 
L 647.982003 278.053902 
L 649.221774 302.4216 
L 650.461544 250.236421 
L 651.701315 261.889416 
L 652.941085 279.342421 
L 654.180855 285.314101 
L 655.420626 269.1972 
L 656.660396 279.612 
L 657.900167 192.987 
L 659.139937 260.51292 
L 660.379707 271.005102 
L 661.619478 271.4049 
L 662.859248 303.775621 
L 664.099019 263.36016 
L 665.338789 229.994827 
L 666.57856 287.500021 
L 667.81833 287.2152 
L 669.0581 279.612 
L 670.297871 303.807193 
L 671.537641 284.183489 
L 672.777412 277.845113 
L 674.017182 258.440256 
L 675.256952 303.958278 
L 676.496723 312.073704 
L 677.736493 286.32435 
L 678.976264 277.038 
L 680.216034 238.686192 
L 681.455804 133.139124 
L 682.695575 295.71633 
L 683.935345 215.092769 
L 685.175116 279.3348 
L 686.414886 272.195969 
L 688.894427 194.45297 
L 690.134197 287.7696 
L 691.373968 258.061346 
L 692.613738 222.133649 
L 693.853509 73.050908 
L 695.093279 218.774776 
L 696.333049 218.289944 
L 697.57282 273.474 
L 698.81259 273.676752 
L 700.052361 255.47976 
L 701.292131 255.23817 
L 702.531901 273.03574 
L 703.771672 283.30272 
L 705.011442 262.74766 
L 706.251213 274.97484 
L 707.490983 227.41654 
L 708.730754 272.57242 
L 709.970524 214.556011 
L 711.210294 310.844919 
L 712.450065 289.62288 
L 716.169376 303.2532 
L 717.409146 288.173502 
L 718.648917 295.3728 
L 719.888687 238.824 
L 721.128458 272.38104 
L 722.368228 286.89308 
L 723.607999 278.077866 
L 724.847769 312.2424 
L 726.087539 278.688709 
L 727.32731 213.381792 
L 728.56708 295.21174 
L 729.806851 262.58134 
L 731.046621 303.7482 
L 732.286391 246.19752 
L 733.526162 301.867486 
L 734.765932 197.69544 
L 736.005703 293.83366 
L 737.245473 301.85136 
L 738.485243 281.554241 
L 739.725014 256.33512 
L 740.964784 301.6903 
L 742.204555 320.4 
L 743.444325 320.4 
L 744.684096 263.247696 
L 745.923866 320.4 
L 747.163636 320.4 
L 747.163636 320.4 
" clip-path="url(#p2a59bfd226)" style="fill: none; stroke: #4c72b0; stroke-width: 1.5; stroke-linecap: round"/>
   </g>
   <g id="line2d_19">
    <path d="M 174.389706 261.191 
L 175.629476 262.488029 
L 176.869246 262.488029 
L 178.109017 261.50183 
L 180.588558 261.50183 
L 181.828328 260.536669 
L 183.068099 260.536669 
L 184.307869 259.808272 
L 188.02718 259.808272 
L 189.266951 257.595692 
L 190.506721 253.138162 
L 191.746491 248.252978 
L 195.465803 248.252978 
L 196.705573 245.891669 
L 197.945343 248.252978 
L 199.185114 253.138162 
L 200.424884 253.138162 
L 201.664655 248.252978 
L 202.904425 248.252978 
L 204.144196 253.138162 
L 205.383966 248.252978 
L 207.863507 257.595692 
L 209.103277 260.382769 
L 210.343048 260.382769 
L 211.582818 261.755555 
L 212.822588 261.755555 
L 215.302129 263.906587 
L 216.5419 264.391997 
L 219.02144 264.391997 
L 220.261211 264.242141 
L 222.740752 264.242141 
L 223.980522 262.732618 
L 225.220293 259.673436 
L 226.460063 259.673436 
L 227.699833 262.732618 
L 228.939604 262.732618 
L 230.179374 260.390574 
L 231.419145 260.390574 
L 232.658915 258.699119 
L 237.617997 258.699119 
L 238.857767 260.390574 
L 242.577078 260.390574 
L 243.816849 259.131224 
L 245.056619 258.414086 
L 246.29639 256.226668 
L 248.77593 256.226668 
L 250.015701 255.371774 
L 251.255471 253.333714 
L 252.495242 252.166967 
L 253.735012 252.051363 
L 257.454323 252.051363 
L 258.694094 252.166967 
L 259.933864 252.166967 
L 262.413405 252.697971 
L 263.653175 252.697971 
L 264.892946 253.646219 
L 266.132716 253.646219 
L 267.372487 255.371774 
L 268.612257 255.371774 
L 271.091798 258.066256 
L 272.331568 258.934081 
L 279.770191 258.934081 
L 281.009961 261.455852 
L 282.249732 261.659362 
L 284.729272 269.16261 
L 285.969043 269.16261 
L 287.208813 272.251603 
L 288.448584 277.139827 
L 289.688354 282.802819 
L 297.126976 282.802819 
L 298.366747 287.574768 
L 299.606517 287.574768 
L 300.846288 291.072668 
L 303.325829 291.072668 
L 304.565599 287.574768 
L 308.28491 287.574768 
L 309.524681 283.959288 
L 310.764451 282.445876 
L 312.004221 275.914765 
L 314.483762 275.914765 
L 315.723533 267.573357 
L 318.203074 267.573357 
L 319.442844 264.235484 
L 321.922385 264.235484 
L 323.162155 267.573357 
L 329.361007 267.573357 
L 330.600778 270.87001 
L 333.080318 270.87001 
L 334.320089 271.842366 
L 335.559859 270.87001 
L 336.79963 270.87001 
L 338.0394 267.765777 
L 339.279171 267.765777 
L 340.518941 264.574361 
L 344.238252 264.574361 
L 345.478023 264.455961 
L 346.717793 264.455961 
L 347.957563 264.248185 
L 352.916645 264.248185 
L 354.156415 263.609405 
L 356.635956 255.384449 
L 357.875727 252.420326 
L 360.355268 252.420326 
L 361.595038 248.078981 
L 362.834808 246.20544 
L 365.314349 246.20544 
L 366.55412 248.078981 
L 367.79389 252.420326 
L 369.03366 252.420326 
L 370.273431 248.078981 
L 375.232512 248.078981 
L 376.472283 246.025721 
L 378.951824 255.103415 
L 380.191594 255.39923 
L 383.910905 255.39923 
L 385.150676 255.680264 
L 386.390446 256.238624 
L 387.630217 258.57382 
L 388.869987 256.238624 
L 391.349528 256.238624 
L 392.589298 258.57382 
L 393.829069 261.22238 
L 395.068839 262.412735 
L 396.30861 263.842975 
L 397.54838 265.747219 
L 398.78815 267.422299 
L 400.027921 267.422299 
L 402.507462 275.05008 
L 403.747232 275.05008 
L 404.987002 276.07176 
L 406.226773 276.07176 
L 407.466543 277.2788 
L 413.665395 277.2788 
L 414.905166 276.07176 
L 416.144936 272.088 
L 417.384707 265.70052 
L 418.624477 272.088 
L 419.864247 272.088 
L 421.104018 265.70052 
L 423.583559 265.70052 
L 424.823329 266.42916 
L 426.063099 272.088 
L 427.30287 276.07176 
L 431.022181 276.07176 
L 432.261951 270.41292 
L 433.501722 270.41292 
L 434.741492 264.02544 
L 435.981263 264.02544 
L 437.221033 270.41292 
L 444.659656 270.41292 
L 445.899426 277.375457 
L 447.139196 277.375457 
L 448.378967 278.207536 
L 449.618737 280.829877 
L 450.858508 283.14166 
L 452.098278 283.14166 
L 453.338049 284.89727 
L 455.817589 284.89727 
L 457.05736 286.75318 
L 458.29713 286.75318 
L 459.536901 287.22179 
L 460.776671 286.75318 
L 462.016441 286.75318 
L 464.495982 283.14166 
L 465.735753 282.961941 
L 466.975523 284.73621 
L 468.215293 284.89727 
L 469.455064 286.75318 
L 470.694834 284.89727 
L 471.934605 284.89727 
L 473.174375 289.44457 
L 474.414146 289.44457 
L 475.653916 284.89727 
L 476.893686 283.123001 
L 479.373227 277.518068 
L 480.612998 275.583778 
L 481.852768 275.583778 
L 483.092538 273.844929 
L 484.332309 275.583778 
L 485.572079 275.583778 
L 486.81185 273.844929 
L 488.05162 273.154089 
L 491.770931 273.154089 
L 493.010702 273.749635 
L 494.250472 273.081206 
L 501.689095 273.081206 
L 502.928865 273.749635 
L 504.168635 273.081206 
L 505.408406 269.783574 
L 509.127717 269.783574 
L 510.367488 265.917785 
L 511.607258 264.713815 
L 517.80611 264.713815 
L 519.04588 262.039485 
L 520.285651 262.039485 
L 521.525421 258.46427 
L 522.765192 258.46427 
L 524.004962 262.039485 
L 525.244732 262.039485 
L 526.484503 264.713815 
L 528.964044 264.713815 
L 530.203814 263.902665 
L 531.443585 263.902665 
L 532.683355 264.713815 
L 533.923125 263.902665 
L 535.162896 261.2686 
L 536.402666 261.2686 
L 537.642437 257.73563 
L 540.121977 257.73563 
L 541.361748 260.06411 
L 545.081059 260.06411 
L 546.320829 257.73563 
L 551.279911 257.73563 
L 552.519682 260.06411 
L 554.999222 260.06411 
L 556.238993 258.39432 
L 557.478763 261.92729 
L 558.718534 263.21429 
L 566.157156 263.21429 
L 567.396926 262.0098 
L 568.636697 263.2968 
L 569.876467 262.0098 
L 571.116238 262.0098 
L 572.356008 263.2968 
L 573.595779 263.2968 
L 574.835549 264.700745 
L 576.075319 268.779545 
L 577.31509 267.83892 
L 578.55486 271.4544 
L 579.794631 272.648864 
L 583.513942 272.648864 
L 584.753712 276.727664 
L 585.993483 279.612 
L 592.192335 279.612 
L 593.432105 279.982784 
L 594.671876 279.982784 
L 595.911646 279.612 
L 597.151416 279.612 
L 598.391187 278.028928 
L 599.630957 275.144593 
L 600.870728 272.840528 
L 602.110498 271.646064 
L 603.350268 271.384184 
L 604.590039 270.976589 
L 605.829809 267.431326 
L 607.06958 270.976589 
L 608.30935 270.976589 
L 609.549121 271.384184 
L 614.508202 271.384184 
L 615.747973 270.976589 
L 616.987743 268.448254 
L 618.227513 270.976589 
L 619.467284 268.448254 
L 620.707054 264.777048 
L 621.946825 262.73844 
L 623.186595 262.73844 
L 624.426365 258.82992 
L 630.625218 258.82992 
L 631.864988 262.73844 
L 633.104758 264.777048 
L 634.344529 264.777048 
L 635.584299 267.222103 
L 639.30361 267.222103 
L 640.543381 264.777048 
L 641.783151 267.222103 
L 643.022922 269.208076 
L 645.502463 269.208076 
L 646.742233 270.697676 
L 647.982003 270.697676 
L 649.221774 271.171656 
L 650.461544 271.171656 
L 651.701315 270.697676 
L 652.941085 271.171656 
L 654.180855 273.712646 
L 660.379707 273.712646 
L 661.619478 271.29105 
L 662.859248 273.826496 
L 664.099019 273.826496 
L 665.338789 271.29105 
L 666.57856 273.826496 
L 667.81833 273.826496 
L 669.0581 277.150997 
L 670.297871 278.671891 
L 671.537641 279.316151 
L 672.777412 278.698162 
L 674.017182 278.698162 
L 675.256952 279.377815 
L 677.736493 279.612 
L 678.976264 279.612 
L 680.216034 279.477211 
L 681.455804 278.698162 
L 682.695575 278.698162 
L 683.935345 277.949508 
L 685.175116 278.589956 
L 686.414886 277.441556 
L 690.134197 277.441556 
L 691.373968 274.616984 
L 692.613738 274.616984 
L 693.853509 271.800434 
L 696.333049 271.800434 
L 697.57282 272.834984 
L 698.81259 273.575376 
L 700.052361 272.834984 
L 701.292131 272.834984 
L 702.531901 273.25487 
L 703.771672 273.25487 
L 705.011442 272.615854 
L 706.251213 272.615854 
L 707.490983 267.471814 
L 708.730754 267.471814 
L 709.970524 260.593958 
L 711.210294 267.471814 
L 719.888687 267.471814 
L 721.128458 272.288504 
L 722.368228 272.288504 
L 723.607999 272.47673 
L 724.847769 272.47673 
L 726.087539 272.80408 
L 727.32731 272.80408 
L 728.56708 273.25487 
L 729.806851 272.80408 
L 731.046621 273.25487 
L 732.286391 273.25487 
L 733.526162 273.575376 
L 734.765932 273.575376 
L 736.005703 274.325796 
L 737.245473 276.526353 
L 738.485243 278.383288 
L 739.725014 278.383288 
L 740.964784 280.121475 
L 742.204555 282.428481 
L 743.444325 284.223661 
L 744.684096 284.223661 
L 745.923866 287.533291 
L 747.163636 288.898191 
L 747.163636 288.898191 
" clip-path="url(#p2a59bfd226)" style="fill: none; stroke: #dd8452; stroke-width: 1.5; stroke-linecap: round"/>
   </g>
   <g id="patch_3">
    <path d="M 108 320.4 
L 108 43.2 
" style="fill: none; stroke: #ffffff; stroke-width: 1.25; stroke-linejoin: miter; stroke-linecap: square"/>
   </g>
   <g id="patch_4">
    <path d="M 777.6 320.4 
L 777.6 43.2 
" style="fill: none; stroke: #ffffff; stroke-width: 1.25; stroke-linejoin: miter; stroke-linecap: square"/>
   </g>
   <g id="patch_5">
    <path d="M 108 320.4 
L 777.6 320.4 
" style="fill: none; stroke: #ffffff; stroke-width: 1.25; stroke-linejoin: miter; stroke-linecap: square"/>
   </g>
   <g id="patch_6">
    <path d="M 108 43.2 
L 777.6 43.2 
" style="fill: none; stroke: #ffffff; stroke-width: 1.25; stroke-linejoin: miter; stroke-linecap: square"/>
   </g>
   <g id="legend_1">
    <g id="patch_7">
     <path d="M 117.7 85.410156 
L 296.57375 85.410156 
Q 298.77375 85.410156 298.77375 83.210156 
L 298.77375 52.9 
Q 298.77375 50.7 296.57375 50.7 
L 117.7 50.7 
Q 115.5 50.7 115.5 52.9 
L 115.5 83.210156 
Q 115.5 85.410156 117.7 85.410156 
z
" style="fill: #4c4b47; opacity: 0.5; stroke: #4c4b47; stroke-linejoin: miter"/>
    </g>
    <g id="patch_8">
     <path d="M 115.7 83.410156 
L 294.57375 83.410156 
Q 296.77375 83.410156 296.77375 81.210156 
L 296.77375 50.9 
Q 296.77375 48.7 294.57375 48.7 
L 115.7 48.7 
Q 113.5 48.7 113.5 50.9 
L 113.5 81.210156 
Q 113.5 83.410156 115.7 83.410156 
z
" style="fill: #fff9ed; stroke: #cccccc; stroke-linejoin: miter"/>
    </g>
    <g id="line2d_20">
     <path d="M 117.9 57.123594 
L 128.9 57.123594 
L 139.9 57.123594 
" style="fill: none; stroke: #4c72b0; stroke-width: 1.5; stroke-linecap: round"/>
    </g>
    <g id="text_19">
     <!-- Biaya Harian -->
     <g style="fill: #262626" transform="translate(148.7 60.973594) scale(0.11 -0.11)">
      <use xlink:href="#ArialMT-42"/>
      <use xlink:href="#ArialMT-69" x="66.699219"/>
      <use xlink:href="#ArialMT-61" x="88.916016"/>
      <use xlink:href="#ArialMT-79" x="144.53125"/>
      <use xlink:href="#ArialMT-61" x="194.53125"/>
      <use xlink:href="#ArialMT-20" x="250.146484"/>
      <use xlink:href="#ArialMT-48" x="277.929688"/>
      <use xlink:href="#ArialMT-61" x="350.146484"/>
      <use xlink:href="#ArialMT-72" x="405.761719"/>
      <use xlink:href="#ArialMT-69" x="439.0625"/>
      <use xlink:href="#ArialMT-61" x="461.279297"/>
      <use xlink:href="#ArialMT-6e" x="516.894531"/>
     </g>
    </g>
    <g id="line2d_21">
     <path d="M 117.9 72.845 
L 128.9 72.845 
L 139.9 72.845 
" style="fill: none; stroke: #dd8452; stroke-width: 1.5; stroke-linecap: round"/>
    </g>
    <g id="text_20">
     <!-- Moving Median Biaya 30 Hari -->
     <g style="fill: #262626" transform="translate(148.7 76.695) scale(0.11 -0.11)">
      <defs>
       <path id="ArialMT-4d" d="M 475 0 
L 475 4581 
L 1388 4581 
L 2472 1338 
Q 2622 884 2691 659 
Q 2769 909 2934 1394 
L 4031 4581 
L 4847 4581 
L 4847 0 
L 4263 0 
L 4263 3834 
L 2931 0 
L 2384 0 
L 1059 3900 
L 1059 0 
L 475 0 
z
" transform="scale(0.015625)"/>
       <path id="ArialMT-6f" d="M 213 1659 
Q 213 2581 725 3025 
Q 1153 3394 1769 3394 
Q 2453 3394 2887 2945 
Q 3322 2497 3322 1706 
Q 3322 1066 3130 698 
Q 2938 331 2570 128 
Q 2203 -75 1769 -75 
Q 1072 -75 642 372 
Q 213 819 213 1659 
z
M 791 1659 
Q 791 1022 1069 705 
Q 1347 388 1769 388 
Q 2188 388 2466 706 
Q 2744 1025 2744 1678 
Q 2744 2294 2464 2611 
Q 2184 2928 1769 2928 
Q 1347 2928 1069 2612 
Q 791 2297 791 1659 
z
" transform="scale(0.015625)"/>
       <path id="ArialMT-76" d="M 1344 0 
L 81 3319 
L 675 3319 
L 1388 1331 
Q 1503 1009 1600 663 
Q 1675 925 1809 1294 
L 2547 3319 
L 3125 3319 
L 1869 0 
L 1344 0 
z
" transform="scale(0.015625)"/>
       <path id="ArialMT-67" d="M 319 -275 
L 866 -356 
Q 900 -609 1056 -725 
Q 1266 -881 1628 -881 
Q 2019 -881 2231 -725 
Q 2444 -569 2519 -288 
Q 2563 -116 2559 434 
Q 2191 0 1641 0 
Q 956 0 581 494 
Q 206 988 206 1678 
Q 206 2153 378 2554 
Q 550 2956 876 3175 
Q 1203 3394 1644 3394 
Q 2231 3394 2613 2919 
L 2613 3319 
L 3131 3319 
L 3131 450 
Q 3131 -325 2973 -648 
Q 2816 -972 2473 -1159 
Q 2131 -1347 1631 -1347 
Q 1038 -1347 672 -1080 
Q 306 -813 319 -275 
z
M 784 1719 
Q 784 1066 1043 766 
Q 1303 466 1694 466 
Q 2081 466 2343 764 
Q 2606 1063 2606 1700 
Q 2606 2309 2336 2618 
Q 2066 2928 1684 2928 
Q 1309 2928 1046 2623 
Q 784 2319 784 1719 
z
" transform="scale(0.015625)"/>
       <path id="ArialMT-65" d="M 2694 1069 
L 3275 997 
Q 3138 488 2766 206 
Q 2394 -75 1816 -75 
Q 1088 -75 661 373 
Q 234 822 234 1631 
Q 234 2469 665 2931 
Q 1097 3394 1784 3394 
Q 2450 3394 2872 2941 
Q 3294 2488 3294 1666 
Q 3294 1616 3291 1516 
L 816 1516 
Q 847 969 1125 678 
Q 1403 388 1819 388 
Q 2128 388 2347 550 
Q 2566 713 2694 1069 
z
M 847 1978 
L 2700 1978 
Q 2663 2397 2488 2606 
Q 2219 2931 1791 2931 
Q 1403 2931 1139 2672 
Q 875 2413 847 1978 
z
" transform="scale(0.015625)"/>
       <path id="ArialMT-64" d="M 2575 0 
L 2575 419 
Q 2259 -75 1647 -75 
Q 1250 -75 917 144 
Q 584 363 401 755 
Q 219 1147 219 1656 
Q 219 2153 384 2558 
Q 550 2963 881 3178 
Q 1213 3394 1622 3394 
Q 1922 3394 2156 3267 
Q 2391 3141 2538 2938 
L 2538 4581 
L 3097 4581 
L 3097 0 
L 2575 0 
z
M 797 1656 
Q 797 1019 1065 703 
Q 1334 388 1700 388 
Q 2069 388 2326 689 
Q 2584 991 2584 1609 
Q 2584 2291 2321 2609 
Q 2059 2928 1675 2928 
Q 1300 2928 1048 2622 
Q 797 2316 797 1656 
z
" transform="scale(0.015625)"/>
      </defs>
      <use xlink:href="#ArialMT-4d"/>
      <use xlink:href="#ArialMT-6f" x="83.300781"/>
      <use xlink:href="#ArialMT-76" x="138.916016"/>
      <use xlink:href="#ArialMT-69" x="188.916016"/>
      <use xlink:href="#ArialMT-6e" x="211.132812"/>
      <use xlink:href="#ArialMT-67" x="266.748047"/>
      <use xlink:href="#ArialMT-20" x="322.363281"/>
      <use xlink:href="#ArialMT-4d" x="350.146484"/>
      <use xlink:href="#ArialMT-65" x="433.447266"/>
      <use xlink:href="#ArialMT-64" x="489.0625"/>
      <use xlink:href="#ArialMT-69" x="544.677734"/>
      <use xlink:href="#ArialMT-61" x="566.894531"/>
      <use xlink:href="#ArialMT-6e" x="622.509766"/>
      <use xlink:href="#ArialMT-20" x="678.125"/>
      <use xlink:href="#ArialMT-42" x="705.908203"/>
      <use xlink:href="#ArialMT-69" x="772.607422"/>
      <use xlink:href="#ArialMT-61" x="794.824219"/>
      <use xlink:href="#ArialMT-79" x="850.439453"/>
      <use xlink:href="#ArialMT-61" x="900.439453"/>
      <use xlink:href="#ArialMT-20" x="956.054688"/>
      <use xlink:href="#ArialMT-33" x="983.837891"/>
      <use xlink:href="#ArialMT-30" x="1039.453125"/>
      <use xlink:href="#ArialMT-20" x="1095.068359"/>
      <use xlink:href="#ArialMT-48" x="1122.851562"/>
      <use xlink:href="#ArialMT-61" x="1195.068359"/>
      <use xlink:href="#ArialMT-72" x="1250.683594"/>
      <use xlink:href="#ArialMT-69" x="1283.984375"/>
     </g>
    </g>
   </g>
  </g>
 </g>
 <defs>
  <clipPath id="p2a59bfd226">
   <rect x="108" y="43.2" width="669.6" height="277.2"/>
  </clipPath>
 </defs>
</svg>
