<?xml version="1.0" encoding="utf-8" standalone="no"?>
<!DOCTYPE svg PUBLIC "-//W3C//DTD SVG 1.1//EN"
  "http://www.w3.org/Graphics/SVG/1.1/DTD/svg11.dtd">
<svg xmlns:xlink="http://www.w3.org/1999/xlink" width="460.8pt" height="345.6pt" viewBox="0 0 460.8 345.6" xmlns="http://www.w3.org/2000/svg" version="1.1">
 <metadata>
  <rdf:RDF xmlns:dc="http://purl.org/dc/elements/1.1/" xmlns:cc="http://creativecommons.org/ns#" xmlns:rdf="http://www.w3.org/1999/02/22-rdf-syntax-ns#">
   <cc:Work>
    <dc:type rdf:resource="http://purl.org/dc/dcmitype/StillImage"/>
    <dc:date>2024-05-06T10:15:12.398304</dc:date>
    <dc:format>image/svg+xml</dc:format>
    <dc:creator>
     <cc:Agent>
      <dc:title>Matplotlib v3.6.2, https://matplotlib.org/</dc:title>
     </cc:Agent>
    </dc:creator>
   </cc:Work>
  </rdf:RDF>
 </metadata>
 <defs>
  <style type="text/css">*{stroke-linejoin: round; stroke-linecap: butt}</style>
 </defs>
 <g id="figure_1">
  <g id="patch_1">
   <path d="M 0 345.6 
L 460.8 345.6 
L 460.8 0 
L 0 0 
L 0 345.6 
z
" style="fill: none"/>
  </g>
  <g id="axes_1">
   <g id="matplotlib.axis_1"/>
   <g id="matplotlib.axis_2"/>
   <g id="patch_2">
    <path d="M 340.475904 176.656896 
C 340.475904 148.781919 329.526365 121.992786 310.001491 102.098223 
C 290.476618 82.20366 263.897556 70.753615 236.027482 70.230819 
L 234.031104 176.656896 
L 340.475904 176.656896 
z
" style="fill: #172235; opacity: 0.5; stroke: #172235; stroke-linejoin: miter"/>
   </g>
   <g id="patch_3">
    <path d="M 236.027482 70.230819 
C 225.518469 70.033687 215.037975 71.394202 204.927613 74.268018 
C 194.817252 77.141834 185.188081 81.497384 176.353963 87.192697 
C 167.519846 92.88801 159.577821 99.860527 152.786759 107.882977 
C 145.995698 115.905427 140.430196 124.889689 136.271663 134.542917 
C 132.11313 144.196146 129.407245 154.412307 128.242206 164.858402 
C 127.077167 175.304497 127.465772 185.865783 129.395353 196.198011 
C 131.324935 206.530239 134.774299 216.519916 139.631012 225.841427 
C 144.487725 235.162937 150.698438 243.71389 158.060713 251.215565 
C 165.422988 258.71724 173.855954 265.087236 183.084737 270.117921 
C 192.31352 275.148605 202.236746 278.78472 212.530967 280.907745 
C 222.825188 283.03077 233.377328 283.617385 243.843436 282.648469 
C 254.309544 281.679553 264.574657 279.165749 274.304182 275.188995 
C 284.033707 271.212242 293.12077 265.81622 301.269176 259.176815 
C 309.417582 252.537411 316.537827 244.727553 322.397823 236.001806 
C 328.25782 227.276059 332.7932 217.73027 335.856132 207.675586 
C 338.919064 197.620902 340.475903 187.167768 340.475904 176.656906 
L 234.031104 176.656896 
L 236.027482 70.230819 
z
" style="fill: #422819; opacity: 0.5; stroke: #422819; stroke-linejoin: miter"/>
   </g>
   <g id="patch_4">
    <path d="M 342.6048 174.528 
C 342.6048 146.653023 331.655261 119.86389 312.130387 99.969327 
C 292.605514 80.074764 266.026452 68.624719 238.156378 68.101923 
L 236.16 174.528 
L 342.6048 174.528 
z
" style="fill: #4c72b0; stroke: #ffffff; stroke-linejoin: miter"/>
   </g>
   <g id="patch_5">
    <path d="M 238.156378 68.101923 
C 227.647365 67.904791 217.166871 69.265306 207.056509 72.139122 
C 196.946148 75.012938 187.316977 79.368488 178.482859 85.063801 
C 169.648742 90.759114 161.706717 97.731631 154.915655 105.754081 
C 148.124594 113.776531 142.559092 122.760793 138.400559 132.414021 
C 134.242026 142.06725 131.536141 152.283411 130.371102 162.729506 
C 129.206063 173.175601 129.594668 183.736887 131.524249 194.069115 
C 133.453831 204.401343 136.903195 214.39102 141.759908 223.712531 
C 146.616621 233.034041 152.827334 241.584994 160.189609 249.086669 
C 167.551884 256.588344 175.98485 262.95834 185.213633 267.989025 
C 194.442416 273.019709 204.365642 276.655824 214.659863 278.778849 
C 224.954084 280.901874 235.506224 281.488489 245.972332 280.519573 
C 256.43844 279.550657 266.703553 277.036853 276.433078 273.060099 
C 286.162603 269.083346 295.249666 263.687324 303.398072 257.047919 
C 311.546478 250.408515 318.666723 242.598657 324.526719 233.87291 
C 330.386716 225.147163 334.922096 215.601374 337.985028 205.54669 
C 341.04796 195.492006 342.604799 185.038872 342.6048 174.52801 
L 236.16 174.528 
L 238.156378 68.101923 
z
" style="fill: #dd8452; stroke: #ffffff; stroke-linejoin: miter"/>
   </g>
  </g>
 </g>
</svg>
