<?xml version="1.0" encoding="utf-8" standalone="no"?>
<!DOCTYPE svg PUBLIC "-//W3C//DTD SVG 1.1//EN"
  "http://www.w3.org/Graphics/SVG/1.1/DTD/svg11.dtd">
<svg xmlns:xlink="http://www.w3.org/1999/xlink" width="460.8pt" height="345.6pt" viewBox="0 0 460.8 345.6" xmlns="http://www.w3.org/2000/svg" version="1.1">
 <metadata>
  <rdf:RDF xmlns:dc="http://purl.org/dc/elements/1.1/" xmlns:cc="http://creativecommons.org/ns#" xmlns:rdf="http://www.w3.org/1999/02/22-rdf-syntax-ns#">
   <cc:Work>
    <dc:type rdf:resource="http://purl.org/dc/dcmitype/StillImage"/>
    <dc:date>2024-05-06T10:15:12.358185</dc:date>
    <dc:format>image/svg+xml</dc:format>
    <dc:creator>
     <cc:Agent>
      <dc:title>Matplotlib v3.6.2, https://matplotlib.org/</dc:title>
     </cc:Agent>
    </dc:creator>
   </cc:Work>
  </rdf:RDF>
 </metadata>
 <defs>
  <style type="text/css">*{stroke-linejoin: round; stroke-linecap: butt}</style>
 </defs>
 <g id="figure_1">
  <g id="patch_1">
   <path d="M 0 345.6 
L 460.8 345.6 
L 460.8 0 
L 0 0 
L 0 345.6 
z
" style="fill: none"/>
  </g>
  <g id="axes_1">
   <g id="matplotlib.axis_1"/>
   <g id="matplotlib.axis_2"/>
   <g id="patch_2">
    <path d="M 340.475904 176.656896 
C 340.475904 157.863923 335.499017 139.401911 326.053235 123.15528 
C 316.607453 106.908649 303.025472 93.449634 286.693608 84.151998 
C 270.361744 74.854362 251.855233 70.045585 233.063037 70.216498 
C 214.270842 70.387412 195.854856 75.531996 179.694802 85.125144 
C 163.534748 94.718291 150.199811 108.422113 141.05109 124.83786 
C 131.90237 141.253607 127.262099 159.803086 127.603912 178.59295 
C 127.945725 197.382814 133.257582 215.75125 142.997301 231.823391 
C 152.73702 247.895531 166.561551 261.105286 183.059822 270.104335 
L 234.031104 176.656896 
L 340.475904 176.656896 
z
" style="fill: #172235; opacity: 0.5; stroke: #172235; stroke-linejoin: miter"/>
   </g>
   <g id="patch_3">
    <path d="M 183.059822 270.104335 
C 199.270024 278.946255 217.50537 283.419932 235.967153 283.084088 
C 254.428936 282.748244 272.489506 277.614298 288.367398 268.188653 
C 304.24529 258.763009 317.400698 245.366113 326.535995 229.319413 
C 335.671291 213.272713 340.475901 195.121753 340.475904 176.656916 
L 234.031104 176.656896 
L 183.059822 270.104335 
z
" style="fill: #422819; opacity: 0.5; stroke: #422819; stroke-linejoin: miter"/>
   </g>
   <g id="patch_4">
    <path d="M 342.6048 174.528 
C 342.6048 155.735027 337.627913 137.273015 328.182131 121.026384 
C 318.736349 104.779753 305.154368 91.320738 288.822504 82.023102 
C 272.49064 72.725466 253.984129 67.916689 235.191933 68.087602 
C 216.399738 68.258516 197.983752 73.4031 181.823698 82.996248 
C 165.663644 92.589395 152.328707 106.293217 143.179986 122.708964 
C 134.031266 139.124711 129.390995 157.67419 129.732808 176.464054 
C 130.074621 195.253918 135.386478 213.622354 145.126197 229.694495 
C 154.865916 245.766635 168.690447 258.97639 185.188718 267.975439 
L 236.16 174.528 
L 342.6048 174.528 
z
" style="fill: #4c72b0; stroke: #ffffff; stroke-linejoin: miter"/>
   </g>
   <g id="patch_5">
    <path d="M 185.188718 267.975439 
C 201.39892 276.817359 219.634266 281.291036 238.096049 280.955192 
C 256.557832 280.619348 274.618402 275.485402 290.496294 266.059757 
C 306.374186 256.634113 319.529594 243.237217 328.664891 227.190517 
C 337.800187 211.143817 342.604797 192.992857 342.6048 174.52802 
L 236.16 174.528 
L 185.188718 267.975439 
z
" style="fill: #dd8452; stroke: #ffffff; stroke-linejoin: miter"/>
   </g>
  </g>
 </g>
</svg>
