<?xml version="1.0" encoding="utf-8" standalone="no"?>
<!DOCTYPE svg PUBLIC "-//W3C//DTD SVG 1.1//EN"
  "http://www.w3.org/Graphics/SVG/1.1/DTD/svg11.dtd">
<svg xmlns:xlink="http://www.w3.org/1999/xlink" width="460.8pt" height="345.6pt" viewBox="0 0 460.8 345.6" xmlns="http://www.w3.org/2000/svg" version="1.1">
 <metadata>
  <rdf:RDF xmlns:dc="http://purl.org/dc/elements/1.1/" xmlns:cc="http://creativecommons.org/ns#" xmlns:rdf="http://www.w3.org/1999/02/22-rdf-syntax-ns#">
   <cc:Work>
    <dc:type rdf:resource="http://purl.org/dc/dcmitype/StillImage"/>
    <dc:date>2024-05-06T10:15:12.299688</dc:date>
    <dc:format>image/svg+xml</dc:format>
    <dc:creator>
     <cc:Agent>
      <dc:title>Matplotlib v3.6.2, https://matplotlib.org/</dc:title>
     </cc:Agent>
    </dc:creator>
   </cc:Work>
  </rdf:RDF>
 </metadata>
 <defs>
  <style type="text/css">*{stroke-linejoin: round; stroke-linecap: butt}</style>
 </defs>
 <g id="figure_1">
  <g id="patch_1">
   <path d="M 0 345.6 
L 460.8 345.6 
L 460.8 0 
L 0 0 
L 0 345.6 
z
" style="fill: none"/>
  </g>
  <g id="axes_1">
   <g id="matplotlib.axis_1"/>
   <g id="matplotlib.axis_2"/>
   <g id="patch_2">
    <path d="M 340.475904 176.656896 
C 340.475904 156.860864 334.953564 137.451854 324.532296 120.620928 
C 314.111028 103.790003 299.198313 90.195267 281.477632 81.371417 
C 263.75695 72.547567 243.921198 68.839623 224.209613 70.666171 
C 204.498027 72.492719 185.68135 79.78234 169.883776 91.712115 
L 234.031104 176.656896 
L 340.475904 176.656896 
z
" style="fill: #172235; opacity: 0.5; stroke: #172235; stroke-linejoin: miter"/>
   </g>
   <g id="patch_3">
    <path d="M 169.883776 91.712115 
C 155.417191 102.636774 143.978395 117.078081 136.656051 133.661612 
C 129.333706 150.245144 126.367722 168.427562 128.04038 186.478392 
C 129.713037 204.529222 135.969533 221.857051 146.214419 236.812738 
C 156.459305 251.768424 170.35692 263.861964 186.584585 271.942379 
C 202.812251 280.022794 220.838289 283.82534 238.947108 282.988116 
C 257.055926 282.150892 274.654212 276.70133 290.067084 267.15808 
C 305.479956 257.614831 318.202432 244.290566 327.023673 228.453397 
C 335.844915 212.616227 340.475907 194.785038 340.475904 176.656876 
L 234.031104 176.656896 
L 169.883776 91.712115 
z
" style="fill: #422819; opacity: 0.5; stroke: #422819; stroke-linejoin: miter"/>
   </g>
   <g id="patch_4">
    <path d="M 342.6048 174.528 
C 342.6048 154.731968 337.08246 135.322958 326.661192 118.492032 
C 316.239924 101.661107 301.327209 88.066371 283.606528 79.242521 
C 265.885846 70.418671 246.050094 66.710727 226.338509 68.537275 
C 206.626923 70.363823 187.810246 77.653444 172.012672 89.583219 
L 236.16 174.528 
L 342.6048 174.528 
z
" style="fill: #4c72b0; stroke: #ffffff; stroke-linejoin: miter"/>
   </g>
   <g id="patch_5">
    <path d="M 172.012672 89.583219 
C 157.546087 100.507878 146.107291 114.949185 138.784947 131.532716 
C 131.462602 148.116248 128.496618 166.298666 130.169276 184.349496 
C 131.841933 202.400326 138.098429 219.728155 148.343315 234.683842 
C 158.588201 249.639528 172.485816 261.733068 188.713481 269.813483 
C 204.941147 277.893898 222.967185 281.696444 241.076004 280.85922 
C 259.184822 280.021996 276.783108 274.572434 292.19598 265.029184 
C 307.608852 255.485935 320.331328 242.16167 329.152569 226.324501 
C 337.973811 210.487331 342.604803 192.656142 342.6048 174.52798 
L 236.16 174.528 
L 172.012672 89.583219 
z
" style="fill: #dd8452; stroke: #ffffff; stroke-linejoin: miter"/>
   </g>
  </g>
 </g>
</svg>
